<svg version="1.1" xmlns="http://www.w3.org/2000/svg" viewBox="0 0 401.8205128205128 223.98630136986304" width="401.8205128205128" height="223.98630136986304">
  <!-- svg-source:excalidraw -->
  
  <defs>
    <style>
      @font-face {
        font-family: "Virgil";
        src: url("https://excalidraw.com/Virgil.woff2");
      }
      @font-face {
        font-family: "Cascadia";
        src: url("https://excalidraw.com/Cascadia.woff2");
      }
    </style>
  </defs>
  <g stroke-linecap="round"><g transform="translate(206.56207840136483 149.0474791656219) rotate(0 1.5284283860380583 -0.2582415468386614)" fill-rule="evenodd"><path d="M0 0 L2 1.78 L3.39 1.24 L3.54 0.01 L2 -1.92 L0 -2 L-0.61 -1.2 L0 0" stroke="none" stroke-width="0" fill="#ffffff" fill-rule="evenodd"></path><path d="M0 0 C0.1 0.13, 0.26 0.49, 0.6 0.79 C0.93 1.08, 1.54 1.7, 2 1.78 C2.47 1.85, 3.13 1.54, 3.39 1.24 C3.65 0.94, 3.78 0.53, 3.54 0.01 C3.31 -0.52, 2.44 -1.54, 2 -1.92 C1.57 -2.31, 1.26 -2.29, 0.92 -2.31 C0.59 -2.32, 0.25 -2.18, 0 -2 C-0.26 -1.81, -0.61 -1.53, -0.61 -1.2 C-0.61 -0.87, -0.1 -0.2, 0 0 M0 0 C0.1 0.13, 0.26 0.49, 0.6 0.79 C0.93 1.08, 1.54 1.7, 2 1.78 C2.47 1.85, 3.13 1.54, 3.39 1.24 C3.65 0.94, 3.78 0.53, 3.54 0.01 C3.31 -0.52, 2.44 -1.54, 2 -1.92 C1.57 -2.31, 1.26 -2.29, 0.92 -2.31 C0.59 -2.32, 0.25 -2.18, 0 -2 C-0.26 -1.81, -0.61 -1.53, -0.61 -1.2 C-0.61 -0.87, -0.1 -0.2, 0 0" stroke="#000000" stroke-width="1" fill="none"></path></g></g><g stroke-linecap="round"><g transform="translate(213.11555745662395 122.4027939067787) rotate(354.2378726086236 1.2366362670740614 -0.06205632163633368)" fill-rule="evenodd"><path d="M0 0 L1.96 2.17 L3.11 1.43 L0.64 -2.27 L-0.63 -1.4 L0 0" stroke="none" stroke-width="0" fill="#ffffff" fill-rule="evenodd"></path><path d="M0 0 C0.13 0.17, 0.45 0.67, 0.78 1.03 C1.1 1.39, 1.57 2.1, 1.96 2.17 C2.34 2.23, 3.03 1.77, 3.11 1.43 C3.19 1.09, 2.68 0.55, 2.43 0.11 C2.18 -0.33, 1.88 -0.81, 1.59 -1.21 C1.29 -1.61, 0.95 -2.15, 0.64 -2.27 C0.32 -2.39, -0.08 -2.08, -0.29 -1.94 C-0.5 -1.79, -0.6 -1.58, -0.63 -1.4 C-0.67 -1.21, -0.61 -1.07, -0.5 -0.84 C-0.4 -0.6, -0.08 -0.14, 0 0 M0 0 C0.13 0.17, 0.45 0.67, 0.78 1.03 C1.1 1.39, 1.57 2.1, 1.96 2.17 C2.34 2.23, 3.03 1.77, 3.11 1.43 C3.19 1.09, 2.68 0.55, 2.43 0.11 C2.18 -0.33, 1.88 -0.81, 1.59 -1.21 C1.29 -1.61, 0.95 -2.15, 0.64 -2.27 C0.32 -2.39, -0.08 -2.08, -0.29 -1.94 C-0.5 -1.79, -0.6 -1.58, -0.63 -1.4 C-0.67 -1.21, -0.61 -1.07, -0.5 -0.84 C-0.4 -0.6, -0.08 -0.14, 0 0" stroke="#000000" stroke-width="1" fill="none"></path></g></g><g stroke-linecap="round"><g transform="translate(211.13290543227652 92.24780228202934) rotate(70.75302048686233 0.8054956508536293 -2.4061943026934216)" fill-rule="evenodd"><path d="M0 0 L-1.62 -2.69 L-1.16 -4.11 L0.58 -4.79 L3.12 -2.18 L0 0" stroke="none" stroke-width="0" fill="#bcdec2" fill-rule="evenodd"></path><path d="M0 0 C-0.16 -0.21, -0.71 -0.8, -0.98 -1.25 C-1.25 -1.7, -1.59 -2.22, -1.62 -2.69 C-1.65 -3.17, -1.52 -3.76, -1.16 -4.11 C-0.79 -4.46, 0 -4.91, 0.58 -4.79 C1.16 -4.68, 1.92 -3.85, 2.35 -3.41 C2.77 -2.97, 3.04 -2.41, 3.12 -2.18 C3.21 -1.94, 3.4 -2.36, 2.88 -2 C2.36 -1.63, 0.48 -0.33, 0 0 M0 0 C-0.16 -0.21, -0.71 -0.8, -0.98 -1.25 C-1.25 -1.7, -1.59 -2.22, -1.62 -2.69 C-1.65 -3.17, -1.52 -3.76, -1.16 -4.11 C-0.79 -4.46, 0 -4.91, 0.58 -4.79 C1.16 -4.68, 1.92 -3.85, 2.35 -3.41 C2.77 -2.97, 3.04 -2.41, 3.12 -2.18 C3.21 -1.94, 3.4 -2.36, 2.88 -2 C2.36 -1.63, 0.48 -0.33, 0 0" stroke="#bcdec2" stroke-width="1" fill="none"></path></g></g><g stroke-linecap="round"><g transform="translate(212.04826911698296 90.7962017180912) rotate(57.2749558461637 -0.5472071957631215 -0.9156867460103797)"><path d="M0 0 C-0.09 -0.14, -0.33 -0.56, -0.52 -0.87 C-0.7 -1.17, -1 -1.67, -1.09 -1.83 M0 0 C-0.09 -0.14, -0.33 -0.56, -0.52 -0.87 C-0.7 -1.17, -1 -1.67, -1.09 -1.83" stroke="#000000" stroke-width="1" fill="none"></path></g></g><g stroke-linecap="round"><g transform="translate(211.1465003020529 92.24752244000456) rotate(70.75302048686233 0.7977891938784865 -2.4061943026934216)"><path d="M0 0 C-0.16 -0.21, -0.71 -0.8, -0.98 -1.25 C-1.25 -1.7, -1.59 -2.22, -1.62 -2.69 C-1.65 -3.17, -1.52 -3.76, -1.16 -4.11 C-0.79 -4.46, 0 -4.91, 0.58 -4.79 C1.16 -4.68, 1.91 -3.86, 2.35 -3.41 C2.79 -2.96, 3.07 -2.31, 3.22 -2.09 M0 0 C-0.16 -0.21, -0.71 -0.8, -0.98 -1.25 C-1.25 -1.7, -1.59 -2.22, -1.62 -2.69 C-1.65 -3.17, -1.52 -3.76, -1.16 -4.11 C-0.79 -4.46, 0 -4.91, 0.58 -4.79 C1.16 -4.68, 1.91 -3.86, 2.35 -3.41 C2.79 -2.96, 3.07 -2.31, 3.22 -2.09" stroke="#000000" stroke-width="1" fill="none"></path></g></g><g stroke-linecap="round"><g transform="translate(211.7883501059324 91.29878762728822) rotate(57.2749558461637 0.05305190832399376 -0.8945462063360878)"><path d="M0 0 C-0.01 -0.18, -0.07 -0.78, -0.04 -1.08 C-0.02 -1.38, 0.12 -1.67, 0.15 -1.79 M0 0 C-0.01 -0.18, -0.07 -0.78, -0.04 -1.08 C-0.02 -1.38, 0.12 -1.67, 0.15 -1.79" stroke="#000000" stroke-width="1" fill="none"></path></g></g><g stroke-linecap="round"><g transform="translate(212.01311757143174 90.81201316184246) rotate(57.2749558461637 -0.5472071957631215 -0.9156867460103797)"><path d="M0 0 C-0.09 -0.14, -0.33 -0.56, -0.52 -0.87 C-0.7 -1.17, -1 -1.67, -1.09 -1.83 M0 0 C-0.09 -0.14, -0.33 -0.56, -0.52 -0.87 C-0.7 -1.17, -1 -1.67, -1.09 -1.83" stroke="#000000" stroke-width="1" fill="none"></path></g></g><g stroke-linecap="round"><g transform="translate(211.75319856038118 91.31459907103977) rotate(57.2749558461637 0.05305190832399376 -0.8945462063360878)"><path d="M0 0 C-0.01 -0.18, -0.07 -0.78, -0.04 -1.08 C-0.02 -1.38, 0.12 -1.67, 0.15 -1.79 M0 0 C-0.01 -0.18, -0.07 -0.78, -0.04 -1.08 C-0.02 -1.38, 0.12 -1.67, 0.15 -1.79" stroke="#000000" stroke-width="1" fill="none"></path></g></g><g stroke-linecap="round"><g transform="translate(214.67552998561234 130.2706756614482) rotate(0 -20.05069276566479 -11.34999457162266)" fill-rule="evenodd"><path d="M0 0 L-0.82 7.35 L-4.06 14.45 L-10.46 18.9 L-19.85 20.76 L-29.15 18.9 L-33.34 17.41 L-36.84 14.88 L-39.27 11.25 L-40.61 4.76 L-40.29 -15.78 L-39.62 -22 L-37.24 -30.56 L-34.17 -36.43 L-31.18 -39.86 L-27.59 -41.69 L-17.31 -43.45 L-8.57 -42.23 L-2.09 -39.39 L-0.18 -36.21 L0.69 -31.84 L-1.05 -19.47 L0 0" stroke="none" stroke-width="0" fill="#bcdec2" fill-rule="evenodd"></path><path d="M0 0 C-0.14 1.23, -0.14 4.94, -0.82 7.35 C-1.5 9.76, -2.45 12.52, -4.06 14.45 C-5.67 16.37, -7.83 17.85, -10.46 18.9 C-13.09 19.95, -16.74 20.76, -19.85 20.76 C-22.97 20.76, -26.32 19.88, -29.15 18.9 C-31.99 17.92, -34.93 17.24, -36.84 14.88 C-38.75 12.53, -40.15 10.91, -40.61 4.76 C-41.08 -1.38, -40.69 -15.13, -39.62 -22 C-38.54 -28.86, -36.18 -33.15, -34.17 -36.43 C-32.17 -39.72, -30.4 -40.53, -27.59 -41.69 C-24.78 -42.86, -20.48 -43.36, -17.31 -43.45 C-14.14 -43.54, -11.11 -42.91, -8.57 -42.23 C-6.03 -41.55, -3.63 -41.12, -2.09 -39.39 C-0.54 -37.66, 0.52 -35.16, 0.69 -31.84 C0.87 -28.52, -0.93 -24.77, -1.05 -19.47 C-1.16 -14.16, -0.17 -3.24, 0 0 M0 0 C-0.14 1.23, -0.14 4.94, -0.82 7.35 C-1.5 9.76, -2.45 12.52, -4.06 14.45 C-5.67 16.37, -7.83 17.85, -10.46 18.9 C-13.09 19.95, -16.74 20.76, -19.85 20.76 C-22.97 20.76, -26.32 19.88, -29.15 18.9 C-31.99 17.92, -34.93 17.24, -36.84 14.88 C-38.75 12.53, -40.15 10.91, -40.61 4.76 C-41.08 -1.38, -40.69 -15.13, -39.62 -22 C-38.54 -28.86, -36.18 -33.15, -34.17 -36.43 C-32.17 -39.72, -30.4 -40.53, -27.59 -41.69 C-24.78 -42.86, -20.48 -43.36, -17.31 -43.45 C-14.14 -43.54, -11.11 -42.91, -8.57 -42.23 C-6.03 -41.55, -3.63 -41.12, -2.09 -39.39 C-0.54 -37.66, 0.52 -35.16, 0.69 -31.84 C0.87 -28.52, -0.93 -24.77, -1.05 -19.47 C-1.16 -14.16, -0.17 -3.24, 0 0" stroke="#000000" stroke-width="1" fill="none"></path></g></g><g stroke-linecap="round"><g stroke-opacity="0.6" fill-opacity="0.6" transform="translate(194.4260853125935 150.55372340432018) rotate(0 7.941019276576924 -9.696945403901395)" fill-rule="evenodd"><path d="M0 0 L-3.86 -5.9 L-3.1 -10.11 L-0.46 -14.23 L4.87 -17.49 L10.81 -19.35 L15.77 -18.54 L19.24 -16.39 L19.55 -13.7 L16.28 -6.6 L11.04 -2.16 L0 0" stroke="none" stroke-width="0" fill="#ffffff" fill-rule="evenodd"></path><path d="M0 0 C-0.64 -0.98, -3.78 -3.53, -3.86 -5.9 C-3.94 -8.27, -2.9 -11.99, -0.46 -14.23 C1.99 -16.47, 7.53 -18.99, 10.81 -19.35 C14.09 -19.71, 17.95 -17.81, 19.24 -16.39 C20.52 -14.97, 19.03 -12.47, 18.54 -10.84 C18.04 -9.21, 17.53 -8.05, 16.28 -6.6 C15.03 -5.16, 12.83 -3.15, 11.04 -2.16 C9.25 -1.17, 7.39 -1.03, 5.55 -0.67 C3.71 -0.31, 0.92 -0.11, 0 0 M0 0 C-0.64 -0.98, -3.78 -3.53, -3.86 -5.9 C-3.94 -8.27, -2.9 -11.99, -0.46 -14.23 C1.99 -16.47, 7.53 -18.99, 10.81 -19.35 C14.09 -19.71, 17.95 -17.81, 19.24 -16.39 C20.52 -14.97, 19.03 -12.47, 18.54 -10.84 C18.04 -9.21, 17.53 -8.05, 16.28 -6.6 C15.03 -5.16, 12.83 -3.15, 11.04 -2.16 C9.25 -1.17, 7.39 -1.03, 5.55 -0.67 C3.71 -0.31, 0.92 -0.11, 0 0" stroke="#000000" stroke-width="1" fill="none"></path></g></g><g stroke-linecap="round" transform="translate(203.3976843273042 94.79404060053304) rotate(0 7.222945501309653 7.294107525953109)"><path d="M14.45 7.29 C14.45 7.72, 14.41 8.14, 14.34 8.56 C14.26 8.98, 14.15 9.39, 14.01 9.79 C13.87 10.19, 13.69 10.58, 13.48 10.94 C13.27 11.31, 13.02 11.66, 12.76 11.98 C12.49 12.31, 12.19 12.61, 11.87 12.88 C11.55 13.15, 11.2 13.4, 10.83 13.61 C10.47 13.82, 10.09 14, 9.69 14.15 C9.3 14.29, 8.89 14.4, 8.48 14.48 C8.07 14.55, 7.64 14.59, 7.22 14.59 C6.8 14.59, 6.38 14.55, 5.97 14.48 C5.56 14.4, 5.15 14.29, 4.75 14.15 C4.36 14, 3.97 13.82, 3.61 13.61 C3.25 13.4, 2.9 13.15, 2.58 12.88 C2.26 12.61, 1.96 12.31, 1.69 11.98 C1.42 11.66, 1.18 11.31, 0.97 10.94 C0.76 10.58, 0.58 10.19, 0.44 9.79 C0.29 9.39, 0.18 8.98, 0.11 8.56 C0.04 8.14, 0 7.72, 0 7.29 C0 6.87, 0.04 6.44, 0.11 6.03 C0.18 5.61, 0.29 5.2, 0.44 4.8 C0.58 4.4, 0.76 4.01, 0.97 3.65 C1.18 3.28, 1.42 2.93, 1.69 2.61 C1.96 2.28, 2.26 1.98, 2.58 1.71 C2.9 1.44, 3.25 1.19, 3.61 0.98 C3.97 0.77, 4.36 0.58, 4.75 0.44 C5.15 0.3, 5.56 0.18, 5.97 0.11 C6.38 0.04, 6.8 0, 7.22 0 C7.64 0, 8.07 0.04, 8.48 0.11 C8.89 0.18, 9.3 0.3, 9.69 0.44 C10.09 0.58, 10.47 0.77, 10.83 0.98 C11.2 1.19, 11.55 1.44, 11.87 1.71 C12.19 1.98, 12.49 2.28, 12.76 2.61 C13.02 2.93, 13.27 3.28, 13.48 3.65 C13.69 4.01, 13.87 4.4, 14.01 4.8 C14.15 5.2, 14.26 5.61, 14.34 6.03 C14.41 6.44, 14.43 7.08, 14.45 7.29 C14.46 7.51, 14.46 7.08, 14.45 7.29" stroke="none" stroke-width="0" fill="#ffffff"></path><path d="M14.45 7.29 C14.45 7.72, 14.41 8.14, 14.34 8.56 C14.26 8.98, 14.15 9.39, 14.01 9.79 C13.87 10.19, 13.69 10.58, 13.48 10.94 C13.27 11.31, 13.02 11.66, 12.76 11.98 C12.49 12.31, 12.19 12.61, 11.87 12.88 C11.55 13.15, 11.2 13.4, 10.83 13.61 C10.47 13.82, 10.09 14, 9.69 14.15 C9.3 14.29, 8.89 14.4, 8.48 14.48 C8.07 14.55, 7.64 14.59, 7.22 14.59 C6.8 14.59, 6.38 14.55, 5.97 14.48 C5.56 14.4, 5.15 14.29, 4.75 14.15 C4.36 14, 3.97 13.82, 3.61 13.61 C3.25 13.4, 2.9 13.15, 2.58 12.88 C2.26 12.61, 1.96 12.31, 1.69 11.98 C1.42 11.66, 1.18 11.31, 0.97 10.94 C0.76 10.58, 0.58 10.19, 0.44 9.79 C0.29 9.39, 0.18 8.98, 0.11 8.56 C0.04 8.14, 0 7.72, 0 7.29 C0 6.87, 0.04 6.44, 0.11 6.03 C0.18 5.61, 0.29 5.2, 0.44 4.8 C0.58 4.4, 0.76 4.01, 0.97 3.65 C1.18 3.28, 1.42 2.93, 1.69 2.61 C1.96 2.28, 2.26 1.98, 2.58 1.71 C2.9 1.44, 3.25 1.19, 3.61 0.98 C3.97 0.77, 4.36 0.58, 4.75 0.44 C5.15 0.3, 5.56 0.18, 5.97 0.11 C6.38 0.04, 6.8 0, 7.22 0 C7.64 0, 8.07 0.04, 8.48 0.11 C8.89 0.18, 9.3 0.3, 9.69 0.44 C10.09 0.58, 10.47 0.77, 10.83 0.98 C11.2 1.19, 11.55 1.44, 11.87 1.71 C12.19 1.98, 12.49 2.28, 12.76 2.61 C13.02 2.93, 13.27 3.28, 13.48 3.65 C13.69 4.01, 13.87 4.4, 14.01 4.8 C14.15 5.2, 14.26 5.61, 14.34 6.03 C14.41 6.44, 14.43 7.08, 14.45 7.29 C14.46 7.51, 14.46 7.08, 14.45 7.29" stroke="#000000" stroke-width="1" fill="none"></path></g><g stroke-linecap="round" transform="translate(181.33341380553816 93.92107192754247) rotate(0 8.679532904406415 8.76504554385869)"><path d="M17.36 8.77 C17.36 9.27, 17.31 9.79, 17.23 10.29 C17.14 10.79, 17.01 11.29, 16.84 11.76 C16.66 12.24, 16.45 12.71, 16.2 13.15 C15.95 13.59, 15.65 14.01, 15.33 14.4 C15.01 14.79, 14.64 15.15, 14.26 15.48 C13.87 15.81, 13.45 16.1, 13.02 16.36 C12.58 16.61, 12.12 16.83, 11.65 17 C11.18 17.18, 10.68 17.31, 10.19 17.4 C9.69 17.49, 9.18 17.53, 8.68 17.53 C8.18 17.53, 7.67 17.49, 7.17 17.4 C6.68 17.31, 6.18 17.18, 5.71 17 C5.24 16.83, 4.77 16.61, 4.34 16.36 C3.9 16.1, 3.49 15.81, 3.1 15.48 C2.72 15.15, 2.35 14.79, 2.03 14.4 C1.71 14.01, 1.41 13.59, 1.16 13.15 C0.91 12.71, 0.7 12.24, 0.52 11.76 C0.35 11.29, 0.22 10.79, 0.13 10.29 C0.04 9.79, 0 9.27, 0 8.77 C0 8.26, 0.04 7.74, 0.13 7.24 C0.22 6.74, 0.35 6.24, 0.52 5.77 C0.7 5.29, 0.91 4.82, 1.16 4.38 C1.41 3.94, 1.71 3.52, 2.03 3.13 C2.35 2.74, 2.72 2.38, 3.1 2.05 C3.49 1.72, 3.9 1.43, 4.34 1.17 C4.77 0.92, 5.24 0.7, 5.71 0.53 C6.18 0.36, 6.68 0.22, 7.17 0.13 C7.67 0.05, 8.18 0, 8.68 0 C9.18 0, 9.69 0.05, 10.19 0.13 C10.68 0.22, 11.18 0.36, 11.65 0.53 C12.12 0.7, 12.58 0.92, 13.02 1.17 C13.45 1.43, 13.87 1.72, 14.26 2.05 C14.64 2.38, 15.01 2.74, 15.33 3.13 C15.65 3.52, 15.95 3.94, 16.2 4.38 C16.45 4.82, 16.66 5.29, 16.84 5.77 C17.01 6.24, 17.14 6.74, 17.23 7.24 C17.31 7.74, 17.34 8.51, 17.36 8.77 C17.38 9.02, 17.38 8.51, 17.36 8.77" stroke="none" stroke-width="0" fill="#ffffff"></path><path d="M17.36 8.77 C17.36 9.27, 17.31 9.79, 17.23 10.29 C17.14 10.79, 17.01 11.29, 16.84 11.76 C16.66 12.24, 16.45 12.71, 16.2 13.15 C15.95 13.59, 15.65 14.01, 15.33 14.4 C15.01 14.79, 14.64 15.15, 14.26 15.48 C13.87 15.81, 13.45 16.1, 13.02 16.36 C12.58 16.61, 12.12 16.83, 11.65 17 C11.18 17.18, 10.68 17.31, 10.19 17.4 C9.69 17.49, 9.18 17.53, 8.68 17.53 C8.18 17.53, 7.67 17.49, 7.17 17.4 C6.68 17.31, 6.18 17.18, 5.71 17 C5.24 16.83, 4.77 16.61, 4.34 16.36 C3.9 16.1, 3.49 15.81, 3.1 15.48 C2.72 15.15, 2.35 14.79, 2.03 14.4 C1.71 14.01, 1.41 13.59, 1.16 13.15 C0.91 12.71, 0.7 12.24, 0.52 11.76 C0.35 11.29, 0.22 10.79, 0.13 10.29 C0.04 9.79, 0 9.27, 0 8.77 C0 8.26, 0.04 7.74, 0.13 7.24 C0.22 6.74, 0.35 6.24, 0.52 5.77 C0.7 5.29, 0.91 4.82, 1.16 4.38 C1.41 3.94, 1.71 3.52, 2.03 3.13 C2.35 2.74, 2.72 2.38, 3.1 2.05 C3.49 1.72, 3.9 1.43, 4.34 1.17 C4.77 0.92, 5.24 0.7, 5.71 0.53 C6.18 0.36, 6.68 0.22, 7.17 0.13 C7.67 0.05, 8.18 0, 8.68 0 C9.18 0, 9.69 0.05, 10.19 0.13 C10.68 0.22, 11.18 0.36, 11.65 0.53 C12.12 0.7, 12.58 0.92, 13.02 1.17 C13.45 1.43, 13.87 1.72, 14.26 2.05 C14.64 2.38, 15.01 2.74, 15.33 3.13 C15.65 3.52, 15.95 3.94, 16.2 4.38 C16.45 4.82, 16.66 5.29, 16.84 5.77 C17.01 6.24, 17.14 6.74, 17.23 7.24 C17.31 7.74, 17.34 8.51, 17.36 8.77 C17.38 9.02, 17.38 8.51, 17.36 8.77" stroke="#000000" stroke-width="1" fill="none"></path></g><g stroke-linecap="round"><g stroke-opacity="0.1" fill-opacity="0.1" transform="translate(213.77557773517196 108.59075519426369) rotate(0 -5.10984749080302 -6.2366825295984825)" fill-rule="evenodd"><path d="M0 0 L-2.68 0.01 L-6.04 -1.22 L-8.57 -4.76 L-8.48 -7.7 L-7.27 -10.71 L-2.27 -13.69 L-6.27 -13.04 L-9.76 -9.2 L-10.55 -4.3 L-10.09 -2.5 L-7.78 0.02 L-5.58 0.94 L-2.85 1.16 L0.34 0.03" stroke="none" stroke-width="0" fill="#000000" fill-rule="evenodd"></path><path d="M0 0 C-0.22 0.03, -0.89 0.16, -1.34 0.16 C-1.79 0.16, -2.17 0.1, -2.68 0.01 C-3.2 -0.09, -3.85 -0.22, -4.41 -0.42 C-4.97 -0.62, -5.56 -0.85, -6.04 -1.22 C-6.52 -1.58, -6.89 -2.02, -7.31 -2.61 C-7.73 -3.2, -8.37 -3.91, -8.57 -4.76 C-8.76 -5.61, -8.7 -6.71, -8.48 -7.7 C-8.26 -8.7, -7.92 -9.85, -7.27 -10.71 C-6.62 -11.58, -5.41 -12.39, -4.58 -12.88 C-3.74 -13.38, -1.99 -13.66, -2.27 -13.69 C-2.55 -13.72, -5.22 -13.49, -6.27 -13.04 C-7.33 -12.59, -8.04 -11.62, -8.62 -10.98 C-9.2 -10.34, -9.47 -9.89, -9.76 -9.2 C-10.05 -8.5, -10.24 -7.63, -10.38 -6.82 C-10.51 -6, -10.6 -5.02, -10.55 -4.3 C-10.5 -3.58, -10.3 -3.01, -10.09 -2.5 C-9.87 -1.99, -9.65 -1.65, -9.26 -1.23 C-8.88 -0.81, -8.4 -0.34, -7.78 0.02 C-7.17 0.39, -6.4 0.75, -5.58 0.94 C-4.76 1.13, -3.84 1.31, -2.85 1.16 C-1.86 1.01, -0.19 0.22, 0.34 0.03 M0 0 C-0.22 0.03, -0.89 0.16, -1.34 0.16 C-1.79 0.16, -2.17 0.1, -2.68 0.01 C-3.2 -0.09, -3.85 -0.22, -4.41 -0.42 C-4.97 -0.62, -5.56 -0.85, -6.04 -1.22 C-6.52 -1.58, -6.89 -2.02, -7.31 -2.61 C-7.73 -3.2, -8.37 -3.91, -8.57 -4.76 C-8.76 -5.61, -8.7 -6.71, -8.48 -7.7 C-8.26 -8.7, -7.92 -9.85, -7.27 -10.71 C-6.62 -11.58, -5.41 -12.39, -4.58 -12.88 C-3.74 -13.38, -1.99 -13.66, -2.27 -13.69 C-2.55 -13.72, -5.22 -13.49, -6.27 -13.04 C-7.33 -12.59, -8.04 -11.62, -8.62 -10.98 C-9.2 -10.34, -9.47 -9.89, -9.76 -9.2 C-10.05 -8.5, -10.24 -7.63, -10.38 -6.82 C-10.51 -6, -10.6 -5.02, -10.55 -4.3 C-10.5 -3.58, -10.3 -3.01, -10.09 -2.5 C-9.87 -1.99, -9.65 -1.65, -9.26 -1.23 C-8.88 -0.81, -8.4 -0.34, -7.78 0.02 C-7.17 0.39, -6.4 0.75, -5.58 0.94 C-4.76 1.13, -3.84 1.31, -2.85 1.16 C-1.86 1.01, -0.19 0.22, 0.34 0.03" stroke="#000000" stroke-width="1" fill="none"></path></g></g><g stroke-linecap="round"><g stroke-opacity="0.1" fill-opacity="0.1" transform="translate(190.95575950361524 111.21548229346104) rotate(0 -4.353383982339722 -8.520887580634053)" fill-rule="evenodd"><path d="M0 0 L-3.65 -2.14 L-6.47 -5.53 L-7.08 -10.01 L-5.62 -13.62 L-2.39 -16.23 L0.39 -17.2 L-4.42 -16.42 L-8.61 -11.8 L-9.13 -8.98 L-7.42 -2.91 L-2.2 0.08 L0 0" stroke="none" stroke-width="0" fill="#000000" fill-rule="evenodd"></path><path d="M0 0 C-0.61 -0.36, -2.58 -1.22, -3.65 -2.14 C-4.73 -3.06, -5.9 -4.22, -6.47 -5.53 C-7.04 -6.84, -7.22 -8.66, -7.08 -10.01 C-6.93 -11.36, -6.4 -12.59, -5.62 -13.62 C-4.84 -14.66, -3.39 -15.64, -2.39 -16.23 C-1.38 -16.83, 0.72 -17.17, 0.39 -17.2 C0.05 -17.23, -3.15 -16.96, -4.42 -16.42 C-5.7 -15.88, -6.55 -14.71, -7.25 -13.94 C-7.94 -13.17, -8.3 -12.63, -8.61 -11.8 C-8.93 -10.98, -9.11 -9.99, -9.13 -8.98 C-9.14 -7.97, -8.99 -6.74, -8.7 -5.73 C-8.42 -4.72, -7.96 -3.65, -7.42 -2.91 C-6.88 -2.17, -6.32 -1.78, -5.45 -1.29 C-4.58 -0.79, -3.11 -0.13, -2.2 0.08 C-1.29 0.3, -0.37 0.01, 0 0 M0 0 C-0.61 -0.36, -2.58 -1.22, -3.65 -2.14 C-4.73 -3.06, -5.9 -4.22, -6.47 -5.53 C-7.04 -6.84, -7.22 -8.66, -7.08 -10.01 C-6.93 -11.36, -6.4 -12.59, -5.62 -13.62 C-4.84 -14.66, -3.39 -15.64, -2.39 -16.23 C-1.38 -16.83, 0.72 -17.17, 0.39 -17.2 C0.05 -17.23, -3.15 -16.96, -4.42 -16.42 C-5.7 -15.88, -6.55 -14.71, -7.25 -13.94 C-7.94 -13.17, -8.3 -12.63, -8.61 -11.8 C-8.93 -10.98, -9.11 -9.99, -9.13 -8.98 C-9.14 -7.97, -8.99 -6.74, -8.7 -5.73 C-8.42 -4.72, -7.96 -3.65, -7.42 -2.91 C-6.88 -2.17, -6.32 -1.78, -5.45 -1.29 C-4.58 -0.79, -3.11 -0.13, -2.2 0.08 C-1.29 0.3, -0.37 0.01, 0 0" stroke="#000000" stroke-width="1" fill="none"></path></g></g><g stroke-linecap="round" transform="translate(181.4005098213653 93.85397591171545) rotate(0 8.679532904406415 8.76504554385869)"><path d="M17.36 8.77 C17.36 9.27, 17.31 9.79, 17.23 10.29 C17.14 10.79, 17.01 11.29, 16.84 11.76 C16.66 12.24, 16.45 12.71, 16.2 13.15 C15.95 13.59, 15.65 14.01, 15.33 14.4 C15.01 14.79, 14.64 15.15, 14.26 15.48 C13.87 15.81, 13.45 16.1, 13.02 16.36 C12.58 16.61, 12.12 16.83, 11.65 17 C11.18 17.18, 10.68 17.31, 10.19 17.4 C9.69 17.49, 9.18 17.53, 8.68 17.53 C8.18 17.53, 7.67 17.49, 7.17 17.4 C6.68 17.31, 6.18 17.18, 5.71 17 C5.24 16.83, 4.77 16.61, 4.34 16.36 C3.9 16.1, 3.49 15.81, 3.1 15.48 C2.72 15.15, 2.35 14.79, 2.03 14.4 C1.71 14.01, 1.41 13.59, 1.16 13.15 C0.91 12.71, 0.7 12.24, 0.52 11.76 C0.35 11.29, 0.22 10.79, 0.13 10.29 C0.04 9.79, 0 9.27, 0 8.77 C0 8.26, 0.04 7.74, 0.13 7.24 C0.22 6.74, 0.35 6.24, 0.52 5.77 C0.7 5.29, 0.91 4.82, 1.16 4.38 C1.41 3.94, 1.71 3.52, 2.03 3.13 C2.35 2.74, 2.72 2.38, 3.1 2.05 C3.49 1.72, 3.9 1.43, 4.34 1.17 C4.77 0.92, 5.24 0.7, 5.71 0.53 C6.18 0.36, 6.68 0.22, 7.17 0.13 C7.67 0.05, 8.18 0, 8.68 0 C9.18 0, 9.69 0.05, 10.19 0.13 C10.68 0.22, 11.18 0.36, 11.65 0.53 C12.12 0.7, 12.58 0.92, 13.02 1.17 C13.45 1.43, 13.87 1.72, 14.26 2.05 C14.64 2.38, 15.01 2.74, 15.33 3.13 C15.65 3.52, 15.95 3.94, 16.2 4.38 C16.45 4.82, 16.66 5.29, 16.84 5.77 C17.01 6.24, 17.14 6.74, 17.23 7.24 C17.31 7.74, 17.34 8.51, 17.36 8.77 C17.38 9.02, 17.38 8.51, 17.36 8.77" stroke="#000000" stroke-width="1" fill="none"></path></g><g stroke-linecap="round" transform="translate(203.4839409200838 94.70277898340856) rotate(0 7.222945501309653 7.294107525953109)"><path d="M14.45 7.29 C14.45 7.72, 14.41 8.14, 14.34 8.56 C14.26 8.98, 14.15 9.39, 14.01 9.79 C13.87 10.19, 13.69 10.58, 13.48 10.94 C13.27 11.31, 13.02 11.66, 12.76 11.98 C12.49 12.31, 12.19 12.61, 11.87 12.88 C11.55 13.15, 11.2 13.4, 10.83 13.61 C10.47 13.82, 10.09 14, 9.69 14.15 C9.3 14.29, 8.89 14.4, 8.48 14.48 C8.07 14.55, 7.64 14.59, 7.22 14.59 C6.8 14.59, 6.38 14.55, 5.97 14.48 C5.56 14.4, 5.15 14.29, 4.75 14.15 C4.36 14, 3.97 13.82, 3.61 13.61 C3.25 13.4, 2.9 13.15, 2.58 12.88 C2.26 12.61, 1.96 12.31, 1.69 11.98 C1.42 11.66, 1.18 11.31, 0.97 10.94 C0.76 10.58, 0.58 10.19, 0.44 9.79 C0.29 9.39, 0.18 8.98, 0.11 8.56 C0.04 8.14, 0 7.72, 0 7.29 C0 6.87, 0.04 6.44, 0.11 6.03 C0.18 5.61, 0.29 5.2, 0.44 4.8 C0.58 4.4, 0.76 4.01, 0.97 3.65 C1.18 3.28, 1.42 2.93, 1.69 2.61 C1.96 2.28, 2.26 1.98, 2.58 1.71 C2.9 1.44, 3.25 1.19, 3.61 0.98 C3.97 0.77, 4.36 0.58, 4.75 0.44 C5.15 0.3, 5.56 0.18, 5.97 0.11 C6.38 0.04, 6.8 0, 7.22 0 C7.64 0, 8.07 0.04, 8.48 0.11 C8.89 0.18, 9.3 0.3, 9.69 0.44 C10.09 0.58, 10.47 0.77, 10.83 0.98 C11.2 1.19, 11.55 1.44, 11.87 1.71 C12.19 1.98, 12.49 2.28, 12.76 2.61 C13.02 2.93, 13.27 3.28, 13.48 3.65 C13.69 4.01, 13.87 4.4, 14.01 4.8 C14.15 5.2, 14.26 5.61, 14.34 6.03 C14.41 6.44, 14.43 7.08, 14.45 7.29 C14.46 7.51, 14.46 7.08, 14.45 7.29" stroke="#000000" stroke-width="1" fill="none"></path></g><g stroke-linecap="round" transform="translate(190.79270582697086 103.76761444093063) rotate(0 1.753009108771721 1.6674964693194454)"><path d="M3.51 1.67 C3.51 1.76, 3.5 1.86, 3.48 1.96 C3.46 2.05, 3.44 2.15, 3.4 2.24 C3.37 2.33, 3.32 2.42, 3.27 2.5 C3.22 2.58, 3.16 2.67, 3.1 2.74 C3.03 2.81, 2.96 2.88, 2.88 2.94 C2.8 3.01, 2.72 3.06, 2.63 3.11 C2.54 3.16, 2.45 3.2, 2.35 3.23 C2.26 3.27, 2.16 3.29, 2.06 3.31 C1.96 3.33, 1.85 3.33, 1.75 3.33 C1.65 3.33, 1.55 3.33, 1.45 3.31 C1.35 3.29, 1.25 3.27, 1.15 3.23 C1.06 3.2, 0.96 3.16, 0.88 3.11 C0.79 3.06, 0.7 3.01, 0.63 2.94 C0.55 2.88, 0.48 2.81, 0.41 2.74 C0.34 2.67, 0.29 2.58, 0.23 2.5 C0.18 2.42, 0.14 2.33, 0.11 2.24 C0.07 2.15, 0.04 2.05, 0.03 1.96 C0.01 1.86, 0 1.76, 0 1.67 C0 1.57, 0.01 1.47, 0.03 1.38 C0.04 1.28, 0.07 1.19, 0.11 1.1 C0.14 1.01, 0.18 0.92, 0.23 0.83 C0.29 0.75, 0.34 0.67, 0.41 0.6 C0.48 0.52, 0.55 0.45, 0.63 0.39 C0.7 0.33, 0.79 0.27, 0.88 0.22 C0.96 0.18, 1.06 0.13, 1.15 0.1 C1.25 0.07, 1.35 0.04, 1.45 0.03 C1.55 0.01, 1.65 0, 1.75 0 C1.85 0, 1.96 0.01, 2.06 0.03 C2.16 0.04, 2.26 0.07, 2.35 0.1 C2.45 0.13, 2.54 0.18, 2.63 0.22 C2.72 0.27, 2.8 0.33, 2.88 0.39 C2.96 0.45, 3.03 0.52, 3.1 0.6 C3.16 0.67, 3.22 0.75, 3.27 0.83 C3.32 0.92, 3.37 1.01, 3.4 1.1 C3.44 1.19, 3.46 1.28, 3.48 1.38 C3.5 1.47, 3.5 1.62, 3.51 1.67 C3.51 1.72, 3.51 1.62, 3.51 1.67" stroke="none" stroke-width="0" fill="#000000"></path><path d="M3.51 1.67 C3.51 1.76, 3.5 1.86, 3.48 1.96 C3.46 2.05, 3.44 2.15, 3.4 2.24 C3.37 2.33, 3.32 2.42, 3.27 2.5 C3.22 2.58, 3.16 2.67, 3.1 2.74 C3.03 2.81, 2.96 2.88, 2.88 2.94 C2.8 3.01, 2.72 3.06, 2.63 3.11 C2.54 3.16, 2.45 3.2, 2.35 3.23 C2.26 3.27, 2.16 3.29, 2.06 3.31 C1.96 3.33, 1.85 3.33, 1.75 3.33 C1.65 3.33, 1.55 3.33, 1.45 3.31 C1.35 3.29, 1.25 3.27, 1.15 3.23 C1.06 3.2, 0.96 3.16, 0.88 3.11 C0.79 3.06, 0.7 3.01, 0.63 2.94 C0.55 2.88, 0.48 2.81, 0.41 2.74 C0.34 2.67, 0.29 2.58, 0.23 2.5 C0.18 2.42, 0.14 2.33, 0.11 2.24 C0.07 2.15, 0.04 2.05, 0.03 1.96 C0.01 1.86, 0 1.76, 0 1.67 C0 1.57, 0.01 1.47, 0.03 1.38 C0.04 1.28, 0.07 1.19, 0.11 1.1 C0.14 1.01, 0.18 0.92, 0.23 0.83 C0.29 0.75, 0.34 0.67, 0.41 0.6 C0.48 0.52, 0.55 0.45, 0.63 0.39 C0.7 0.33, 0.79 0.27, 0.88 0.22 C0.96 0.18, 1.06 0.13, 1.15 0.1 C1.25 0.07, 1.35 0.04, 1.45 0.03 C1.55 0.01, 1.65 0, 1.75 0 C1.85 0, 1.96 0.01, 2.06 0.03 C2.16 0.04, 2.26 0.07, 2.35 0.1 C2.45 0.13, 2.54 0.18, 2.63 0.22 C2.72 0.27, 2.8 0.33, 2.88 0.39 C2.96 0.45, 3.03 0.52, 3.1 0.6 C3.16 0.67, 3.22 0.75, 3.27 0.83 C3.32 0.92, 3.37 1.01, 3.4 1.1 C3.44 1.19, 3.46 1.28, 3.48 1.38 C3.5 1.47, 3.5 1.62, 3.51 1.67 C3.51 1.72, 3.51 1.62, 3.51 1.67" stroke="#000000" stroke-width="1" fill="none"></path></g><g stroke-linecap="round" transform="translate(191.64783222149356 104.53722819600114) rotate(0 0.34205055780910243 0.42756319726140646)"><path d="M0.68 0.43 C0.68 0.45, 0.68 0.48, 0.68 0.5 C0.68 0.53, 0.67 0.55, 0.66 0.57 C0.66 0.6, 0.65 0.62, 0.64 0.64 C0.63 0.66, 0.62 0.68, 0.6 0.7 C0.59 0.72, 0.58 0.74, 0.56 0.76 C0.55 0.77, 0.53 0.79, 0.51 0.8 C0.5 0.81, 0.48 0.82, 0.46 0.83 C0.44 0.84, 0.42 0.84, 0.4 0.85 C0.38 0.85, 0.36 0.86, 0.34 0.86 C0.32 0.86, 0.3 0.85, 0.28 0.85 C0.26 0.84, 0.24 0.84, 0.23 0.83 C0.21 0.82, 0.19 0.81, 0.17 0.8 C0.15 0.79, 0.14 0.77, 0.12 0.76 C0.11 0.74, 0.09 0.72, 0.08 0.7 C0.07 0.68, 0.06 0.66, 0.05 0.64 C0.04 0.62, 0.03 0.6, 0.02 0.57 C0.01 0.55, 0.01 0.53, 0.01 0.5 C0 0.48, 0 0.45, 0 0.43 C0 0.4, 0 0.38, 0.01 0.35 C0.01 0.33, 0.01 0.3, 0.02 0.28 C0.03 0.26, 0.04 0.24, 0.05 0.21 C0.06 0.19, 0.07 0.17, 0.08 0.15 C0.09 0.13, 0.11 0.12, 0.12 0.1 C0.14 0.08, 0.15 0.07, 0.17 0.06 C0.19 0.04, 0.21 0.03, 0.23 0.03 C0.24 0.02, 0.26 0.01, 0.28 0.01 C0.3 0, 0.32 0, 0.34 0 C0.36 0, 0.38 0, 0.4 0.01 C0.42 0.01, 0.44 0.02, 0.46 0.03 C0.48 0.03, 0.5 0.04, 0.51 0.06 C0.53 0.07, 0.55 0.08, 0.56 0.1 C0.58 0.12, 0.59 0.13, 0.6 0.15 C0.62 0.17, 0.63 0.19, 0.64 0.21 C0.65 0.24, 0.66 0.26, 0.66 0.28 C0.67 0.3, 0.68 0.33, 0.68 0.35 C0.68 0.38, 0.68 0.42, 0.68 0.43 C0.68 0.44, 0.68 0.42, 0.68 0.43" stroke="none" stroke-width="0" fill="#ffffff"></path><path d="M0.68 0.43 C0.68 0.45, 0.68 0.48, 0.68 0.5 C0.68 0.53, 0.67 0.55, 0.66 0.57 C0.66 0.6, 0.65 0.62, 0.64 0.64 C0.63 0.66, 0.62 0.68, 0.6 0.7 C0.59 0.72, 0.58 0.74, 0.56 0.76 C0.55 0.77, 0.53 0.79, 0.51 0.8 C0.5 0.81, 0.48 0.82, 0.46 0.83 C0.44 0.84, 0.42 0.84, 0.4 0.85 C0.38 0.85, 0.36 0.86, 0.34 0.86 C0.32 0.86, 0.3 0.85, 0.28 0.85 C0.26 0.84, 0.24 0.84, 0.23 0.83 C0.21 0.82, 0.19 0.81, 0.17 0.8 C0.15 0.79, 0.14 0.77, 0.12 0.76 C0.11 0.74, 0.09 0.72, 0.08 0.7 C0.07 0.68, 0.06 0.66, 0.05 0.64 C0.04 0.62, 0.03 0.6, 0.02 0.57 C0.01 0.55, 0.01 0.53, 0.01 0.5 C0 0.48, 0 0.45, 0 0.43 C0 0.4, 0 0.38, 0.01 0.35 C0.01 0.33, 0.01 0.3, 0.02 0.28 C0.03 0.26, 0.04 0.24, 0.05 0.21 C0.06 0.19, 0.07 0.17, 0.08 0.15 C0.09 0.13, 0.11 0.12, 0.12 0.1 C0.14 0.08, 0.15 0.07, 0.17 0.06 C0.19 0.04, 0.21 0.03, 0.23 0.03 C0.24 0.02, 0.26 0.01, 0.28 0.01 C0.3 0, 0.32 0, 0.34 0 C0.36 0, 0.38 0, 0.4 0.01 C0.42 0.01, 0.44 0.02, 0.46 0.03 C0.48 0.03, 0.5 0.04, 0.51 0.06 C0.53 0.07, 0.55 0.08, 0.56 0.1 C0.58 0.12, 0.59 0.13, 0.6 0.15 C0.62 0.17, 0.63 0.19, 0.64 0.21 C0.65 0.24, 0.66 0.26, 0.66 0.28 C0.67 0.3, 0.68 0.33, 0.68 0.35 C0.68 0.38, 0.68 0.42, 0.68 0.43 C0.68 0.44, 0.68 0.42, 0.68 0.43" stroke="#ffffff" stroke-width="1" fill="none"></path></g><g stroke-linecap="round" transform="translate(211.48219925991577 103.03105426635159) rotate(0 1.458821505190599 1.3876594805471711)"><path d="M2.92 1.39 C2.92 1.47, 2.91 1.55, 2.9 1.63 C2.88 1.71, 2.86 1.79, 2.83 1.86 C2.8 1.94, 2.76 2.01, 2.72 2.08 C2.68 2.15, 2.63 2.22, 2.58 2.28 C2.52 2.34, 2.46 2.4, 2.4 2.45 C2.33 2.5, 2.26 2.55, 2.19 2.59 C2.12 2.63, 2.04 2.66, 1.96 2.69 C1.88 2.72, 1.8 2.74, 1.71 2.75 C1.63 2.77, 1.54 2.78, 1.46 2.78 C1.37 2.78, 1.29 2.77, 1.21 2.75 C1.12 2.74, 1.04 2.72, 0.96 2.69 C0.88 2.66, 0.8 2.63, 0.73 2.59 C0.66 2.55, 0.59 2.5, 0.52 2.45 C0.46 2.4, 0.4 2.34, 0.34 2.28 C0.29 2.22, 0.24 2.15, 0.2 2.08 C0.15 2.01, 0.12 1.94, 0.09 1.86 C0.06 1.79, 0.04 1.71, 0.02 1.63 C0.01 1.55, 0 1.47, 0 1.39 C0 1.31, 0.01 1.23, 0.02 1.15 C0.04 1.07, 0.06 0.99, 0.09 0.91 C0.12 0.84, 0.15 0.76, 0.2 0.69 C0.24 0.62, 0.29 0.56, 0.34 0.5 C0.4 0.43, 0.46 0.38, 0.52 0.32 C0.59 0.27, 0.66 0.23, 0.73 0.19 C0.8 0.15, 0.88 0.11, 0.96 0.08 C1.04 0.06, 1.12 0.04, 1.21 0.02 C1.29 0.01, 1.37 0, 1.46 0 C1.54 0, 1.63 0.01, 1.71 0.02 C1.8 0.04, 1.88 0.06, 1.96 0.08 C2.04 0.11, 2.12 0.15, 2.19 0.19 C2.26 0.23, 2.33 0.27, 2.4 0.32 C2.46 0.38, 2.52 0.43, 2.58 0.5 C2.63 0.56, 2.68 0.62, 2.72 0.69 C2.76 0.76, 2.8 0.84, 2.83 0.91 C2.86 0.99, 2.88 1.07, 2.9 1.15 C2.91 1.23, 2.91 1.35, 2.92 1.39 C2.92 1.43, 2.92 1.35, 2.92 1.39" stroke="none" stroke-width="0" fill="#000000"></path><path d="M2.92 1.39 C2.92 1.47, 2.91 1.55, 2.9 1.63 C2.88 1.71, 2.86 1.79, 2.83 1.86 C2.8 1.94, 2.76 2.01, 2.72 2.08 C2.68 2.15, 2.63 2.22, 2.58 2.28 C2.52 2.34, 2.46 2.4, 2.4 2.45 C2.33 2.5, 2.26 2.55, 2.19 2.59 C2.12 2.63, 2.04 2.66, 1.96 2.69 C1.88 2.72, 1.8 2.74, 1.71 2.75 C1.63 2.77, 1.54 2.78, 1.46 2.78 C1.37 2.78, 1.29 2.77, 1.21 2.75 C1.12 2.74, 1.04 2.72, 0.96 2.69 C0.88 2.66, 0.8 2.63, 0.73 2.59 C0.66 2.55, 0.59 2.5, 0.52 2.45 C0.46 2.4, 0.4 2.34, 0.34 2.28 C0.29 2.22, 0.24 2.15, 0.2 2.08 C0.15 2.01, 0.12 1.94, 0.09 1.86 C0.06 1.79, 0.04 1.71, 0.02 1.63 C0.01 1.55, 0 1.47, 0 1.39 C0 1.31, 0.01 1.23, 0.02 1.15 C0.04 1.07, 0.06 0.99, 0.09 0.91 C0.12 0.84, 0.15 0.76, 0.2 0.69 C0.24 0.62, 0.29 0.56, 0.34 0.5 C0.4 0.43, 0.46 0.38, 0.52 0.32 C0.59 0.27, 0.66 0.23, 0.73 0.19 C0.8 0.15, 0.88 0.11, 0.96 0.08 C1.04 0.06, 1.12 0.04, 1.21 0.02 C1.29 0.01, 1.37 0, 1.46 0 C1.54 0, 1.63 0.01, 1.71 0.02 C1.8 0.04, 1.88 0.06, 1.96 0.08 C2.04 0.11, 2.12 0.15, 2.19 0.19 C2.26 0.23, 2.33 0.27, 2.4 0.32 C2.46 0.38, 2.52 0.43, 2.58 0.5 C2.63 0.56, 2.68 0.62, 2.72 0.69 C2.76 0.76, 2.8 0.84, 2.83 0.91 C2.86 0.99, 2.88 1.07, 2.9 1.15 C2.91 1.23, 2.91 1.35, 2.92 1.39 C2.92 1.43, 2.92 1.35, 2.92 1.39" stroke="#000000" stroke-width="1" fill="none"></path></g><g stroke-linecap="round" transform="translate(212.19381950635022 103.24454034028196) rotate(0 0.2846480985737685 0.3558101232172248)"><path d="M0.57 0.36 C0.57 0.38, 0.57 0.4, 0.56 0.42 C0.56 0.44, 0.56 0.46, 0.55 0.48 C0.55 0.5, 0.54 0.52, 0.53 0.53 C0.52 0.55, 0.51 0.57, 0.5 0.58 C0.49 0.6, 0.48 0.62, 0.47 0.63 C0.45 0.64, 0.44 0.65, 0.43 0.66 C0.41 0.67, 0.4 0.68, 0.38 0.69 C0.37 0.7, 0.35 0.7, 0.33 0.71 C0.32 0.71, 0.3 0.71, 0.28 0.71 C0.27 0.71, 0.25 0.71, 0.24 0.71 C0.22 0.7, 0.2 0.7, 0.19 0.69 C0.17 0.68, 0.16 0.67, 0.14 0.66 C0.13 0.65, 0.11 0.64, 0.1 0.63 C0.09 0.62, 0.08 0.6, 0.07 0.58 C0.06 0.57, 0.05 0.55, 0.04 0.53 C0.03 0.52, 0.02 0.5, 0.02 0.48 C0.01 0.46, 0.01 0.44, 0 0.42 C0 0.4, 0 0.38, 0 0.36 C0 0.34, 0 0.31, 0 0.29 C0.01 0.27, 0.01 0.25, 0.02 0.23 C0.02 0.21, 0.03 0.2, 0.04 0.18 C0.05 0.16, 0.06 0.14, 0.07 0.13 C0.08 0.11, 0.09 0.1, 0.1 0.08 C0.11 0.07, 0.13 0.06, 0.14 0.05 C0.16 0.04, 0.17 0.03, 0.19 0.02 C0.2 0.01, 0.22 0.01, 0.24 0.01 C0.25 0, 0.27 0, 0.28 0 C0.3 0, 0.32 0, 0.33 0.01 C0.35 0.01, 0.37 0.01, 0.38 0.02 C0.4 0.03, 0.41 0.04, 0.43 0.05 C0.44 0.06, 0.45 0.07, 0.47 0.08 C0.48 0.1, 0.49 0.11, 0.5 0.13 C0.51 0.14, 0.52 0.16, 0.53 0.18 C0.54 0.2, 0.55 0.21, 0.55 0.23 C0.56 0.25, 0.56 0.27, 0.56 0.29 C0.57 0.31, 0.57 0.35, 0.57 0.36 C0.57 0.37, 0.57 0.35, 0.57 0.36" stroke="none" stroke-width="0" fill="#ffffff"></path><path d="M0.57 0.36 C0.57 0.38, 0.57 0.4, 0.56 0.42 C0.56 0.44, 0.56 0.46, 0.55 0.48 C0.55 0.5, 0.54 0.52, 0.53 0.53 C0.52 0.55, 0.51 0.57, 0.5 0.58 C0.49 0.6, 0.48 0.62, 0.47 0.63 C0.45 0.64, 0.44 0.65, 0.43 0.66 C0.41 0.67, 0.4 0.68, 0.38 0.69 C0.37 0.7, 0.35 0.7, 0.33 0.71 C0.32 0.71, 0.3 0.71, 0.28 0.71 C0.27 0.71, 0.25 0.71, 0.24 0.71 C0.22 0.7, 0.2 0.7, 0.19 0.69 C0.17 0.68, 0.16 0.67, 0.14 0.66 C0.13 0.65, 0.11 0.64, 0.1 0.63 C0.09 0.62, 0.08 0.6, 0.07 0.58 C0.06 0.57, 0.05 0.55, 0.04 0.53 C0.03 0.52, 0.02 0.5, 0.02 0.48 C0.01 0.46, 0.01 0.44, 0 0.42 C0 0.4, 0 0.38, 0 0.36 C0 0.34, 0 0.31, 0 0.29 C0.01 0.27, 0.01 0.25, 0.02 0.23 C0.02 0.21, 0.03 0.2, 0.04 0.18 C0.05 0.16, 0.06 0.14, 0.07 0.13 C0.08 0.11, 0.09 0.1, 0.1 0.08 C0.11 0.07, 0.13 0.06, 0.14 0.05 C0.16 0.04, 0.17 0.03, 0.19 0.02 C0.2 0.01, 0.22 0.01, 0.24 0.01 C0.25 0, 0.27 0, 0.28 0 C0.3 0, 0.32 0, 0.33 0.01 C0.35 0.01, 0.37 0.01, 0.38 0.02 C0.4 0.03, 0.41 0.04, 0.43 0.05 C0.44 0.06, 0.45 0.07, 0.47 0.08 C0.48 0.1, 0.49 0.11, 0.5 0.13 C0.51 0.14, 0.52 0.16, 0.53 0.18 C0.54 0.2, 0.55 0.21, 0.55 0.23 C0.56 0.25, 0.56 0.27, 0.56 0.29 C0.57 0.31, 0.57 0.35, 0.57 0.36 C0.57 0.37, 0.57 0.35, 0.57 0.36" stroke="#ffffff" stroke-width="1" fill="none"></path></g><g stroke-linecap="round"><g transform="translate(198.4098234173598 114.09914082027564) rotate(354.3524280434069 3.3540149437982905 -0.9053657028800615)" fill-rule="evenodd"><path d="M0 0 L1.25 -2.4 L3.23 -2.72 L4.89 -2.54 L6.71 -0.61 L6.26 0.45 L1.55 0.91 L0.02 0.08" stroke="none" stroke-width="0" fill="#ccbdac" fill-rule="evenodd"></path><path d="M0 0 C0.02 -0.18, -0.09 -0.7, 0.12 -1.1 C0.33 -1.5, 0.73 -2.13, 1.25 -2.4 C1.77 -2.66, 2.62 -2.69, 3.23 -2.72 C3.83 -2.74, 4.36 -2.73, 4.89 -2.54 C5.41 -2.34, 6.08 -1.88, 6.38 -1.56 C6.68 -1.24, 6.74 -0.95, 6.71 -0.61 C6.69 -0.28, 6.81 0.27, 6.26 0.45 C5.71 0.63, 4.21 0.37, 3.42 0.45 C2.64 0.53, 2.04 0.88, 1.55 0.91 C1.05 0.95, 0.69 0.79, 0.44 0.65 C0.18 0.51, 0.09 0.18, 0.02 0.08 M0 0 C0.02 -0.18, -0.09 -0.7, 0.12 -1.1 C0.33 -1.5, 0.73 -2.13, 1.25 -2.4 C1.77 -2.66, 2.62 -2.69, 3.23 -2.72 C3.83 -2.74, 4.36 -2.73, 4.89 -2.54 C5.41 -2.34, 6.08 -1.88, 6.38 -1.56 C6.68 -1.24, 6.74 -0.95, 6.71 -0.61 C6.69 -0.28, 6.81 0.27, 6.26 0.45 C5.71 0.63, 4.21 0.37, 3.42 0.45 C2.64 0.53, 2.04 0.88, 1.55 0.91 C1.05 0.95, 0.69 0.79, 0.44 0.65 C0.18 0.51, 0.09 0.18, 0.02 0.08" stroke="#000000" stroke-width="1" fill="none"></path></g></g><g stroke-linecap="round"><g transform="translate(201.16443625525005 114.82180989490217) rotate(354.3524280434069 -0.84323662313966 -1.3359158388040555)" fill-rule="evenodd"><path d="M0 0 L-1.44 -0.42 L-1.63 -1.19 L0.82 -1.96 L-0.26 -2.95 L-1.4 -2.78 L-2.4 -1.72 L-2.42 -0.34 L-1.52 0.33 L0 0" stroke="none" stroke-width="0" fill="#958b7f" fill-rule="evenodd"></path><path d="M0 0 C-0.05 -0.01, -0.04 0.02, -0.28 -0.05 C-0.52 -0.12, -1.21 -0.23, -1.44 -0.42 C-1.67 -0.61, -1.73 -0.97, -1.63 -1.19 C-1.54 -1.41, -1.3 -1.61, -0.89 -1.74 C-0.48 -1.87, 0.72 -1.76, 0.82 -1.96 C0.93 -2.16, 0.11 -2.82, -0.26 -2.95 C-0.63 -3.09, -1.1 -2.9, -1.4 -2.78 C-1.7 -2.65, -1.91 -2.39, -2.07 -2.21 C-2.24 -2.03, -2.32 -1.91, -2.4 -1.72 C-2.47 -1.53, -2.52 -1.31, -2.52 -1.08 C-2.52 -0.85, -2.5 -0.54, -2.42 -0.34 C-2.33 -0.14, -2.16 0.02, -2.01 0.13 C-1.86 0.24, -1.75 0.32, -1.52 0.33 C-1.29 0.33, -0.88 0.22, -0.62 0.17 C-0.37 0.11, -0.1 0.03, 0 0 M0 0 C-0.05 -0.01, -0.04 0.02, -0.28 -0.05 C-0.52 -0.12, -1.21 -0.23, -1.44 -0.42 C-1.67 -0.61, -1.73 -0.97, -1.63 -1.19 C-1.54 -1.41, -1.3 -1.61, -0.89 -1.74 C-0.48 -1.87, 0.72 -1.76, 0.82 -1.96 C0.93 -2.16, 0.11 -2.82, -0.26 -2.95 C-0.63 -3.09, -1.1 -2.9, -1.4 -2.78 C-1.7 -2.65, -1.91 -2.39, -2.07 -2.21 C-2.24 -2.03, -2.32 -1.91, -2.4 -1.72 C-2.47 -1.53, -2.52 -1.31, -2.52 -1.08 C-2.52 -0.85, -2.5 -0.54, -2.42 -0.34 C-2.33 -0.14, -2.16 0.02, -2.01 0.13 C-1.86 0.24, -1.75 0.32, -1.52 0.33 C-1.29 0.33, -0.88 0.22, -0.62 0.17 C-0.37 0.11, -0.1 0.03, 0 0" stroke="#958b7f" stroke-width="1" fill="none"></path></g></g><g stroke-linecap="round"><g transform="translate(198.37832533592598 114.0983854995963) rotate(354.3524280434069 3.382871354503152 -0.9132350264539468)"><path d="M0 0 C0.02 -0.19, -0.07 -0.71, 0.15 -1.11 C0.36 -1.51, 0.76 -2.14, 1.28 -2.4 C1.79 -2.67, 2.65 -2.7, 3.25 -2.73 C3.86 -2.75, 4.41 -2.72, 4.91 -2.55 C5.42 -2.38, 6 -2, 6.3 -1.7 C6.59 -1.4, 6.67 -1.1, 6.69 -0.75 C6.71 -0.41, 6.96 0.16, 6.42 0.36 C5.88 0.56, 4.26 0.35, 3.45 0.44 C2.64 0.53, 2.07 0.87, 1.57 0.9 C1.08 0.94, 0.73 0.79, 0.47 0.64 C0.2 0.49, 0.08 0.11, 0 0 M0 0 C0.02 -0.19, -0.07 -0.71, 0.15 -1.11 C0.36 -1.51, 0.76 -2.14, 1.28 -2.4 C1.79 -2.67, 2.65 -2.7, 3.25 -2.73 C3.86 -2.75, 4.41 -2.72, 4.91 -2.55 C5.42 -2.38, 6 -2, 6.3 -1.7 C6.59 -1.4, 6.67 -1.1, 6.69 -0.75 C6.71 -0.41, 6.96 0.16, 6.42 0.36 C5.88 0.56, 4.26 0.35, 3.45 0.44 C2.64 0.53, 2.07 0.87, 1.57 0.9 C1.08 0.94, 0.73 0.79, 0.47 0.64 C0.2 0.49, 0.08 0.11, 0 0" stroke="#000000" stroke-width="1" fill="none"></path></g></g><g stroke-linecap="round"><g transform="translate(199.21988149355582 111.05832702217651) rotate(354.3524280434069 2.32692014547564 0.11176160876249241)" fill-rule="evenodd"><path d="M0 0 L0.87 -1.19 L4.62 -0.69 L4.35 0.55 L2.71 1.59 L0.98 1.17 L0 0" stroke="none" stroke-width="0" fill="#595755" fill-rule="evenodd"></path><path d="M0 0 C0.01 -0.11, -0.09 -0.47, 0.05 -0.67 C0.2 -0.87, 0.49 -1.07, 0.87 -1.19 C1.24 -1.31, 1.87 -1.37, 2.31 -1.38 C2.76 -1.39, 3.14 -1.39, 3.53 -1.27 C3.91 -1.16, 4.48 -0.99, 4.62 -0.69 C4.75 -0.39, 4.67 0.17, 4.35 0.55 C4.03 0.93, 3.27 1.49, 2.71 1.59 C2.15 1.69, 1.39 1.35, 0.98 1.17 C0.57 0.99, 0.42 0.7, 0.25 0.51 C0.09 0.31, 0.04 0.08, 0 0 M0 0 C0.01 -0.11, -0.09 -0.47, 0.05 -0.67 C0.2 -0.87, 0.49 -1.07, 0.87 -1.19 C1.24 -1.31, 1.87 -1.37, 2.31 -1.38 C2.76 -1.39, 3.14 -1.39, 3.53 -1.27 C3.91 -1.16, 4.48 -0.99, 4.62 -0.69 C4.75 -0.39, 4.67 0.17, 4.35 0.55 C4.03 0.93, 3.27 1.49, 2.71 1.59 C2.15 1.69, 1.39 1.35, 0.98 1.17 C0.57 0.99, 0.42 0.7, 0.25 0.51 C0.09 0.31, 0.04 0.08, 0 0" stroke="#000000" stroke-width="1" fill="none"></path></g></g><g stroke-linecap="round"><g transform="translate(202.1054679854018 112.6071759140334) rotate(354.3524280434069 -1.4182023341754189 -1.3654750215862634)" fill-rule="evenodd"><path d="M0 0 L-1.91 -1.16 L-0.56 -2.8 L-2.38 -2.43 L-2.49 -0.8 L-0.52 0.08" stroke="none" stroke-width="0" fill="#454342" fill-rule="evenodd"></path><path d="M0 0 C-0.1 -0.02, -0.38 -0.01, -0.6 -0.1 C-0.83 -0.19, -1.15 -0.35, -1.37 -0.52 C-1.58 -0.7, -1.82 -0.94, -1.91 -1.16 C-1.99 -1.38, -1.99 -1.64, -1.88 -1.85 C-1.78 -2.06, -1.52 -2.25, -1.3 -2.41 C-1.08 -2.57, -0.51 -2.76, -0.56 -2.8 C-0.62 -2.85, -1.34 -2.74, -1.65 -2.68 C-1.95 -2.61, -2.2 -2.55, -2.38 -2.43 C-2.56 -2.31, -2.63 -2.13, -2.71 -1.94 C-2.78 -1.75, -2.86 -1.49, -2.83 -1.3 C-2.79 -1.11, -2.62 -0.94, -2.49 -0.8 C-2.37 -0.66, -2.23 -0.56, -2.09 -0.46 C-1.95 -0.36, -1.85 -0.28, -1.68 -0.21 C-1.5 -0.14, -1.24 -0.1, -1.05 -0.05 C-0.86 0, -0.61 0.06, -0.52 0.08 M0 0 C-0.1 -0.02, -0.38 -0.01, -0.6 -0.1 C-0.83 -0.19, -1.15 -0.35, -1.37 -0.52 C-1.58 -0.7, -1.82 -0.94, -1.91 -1.16 C-1.99 -1.38, -1.99 -1.64, -1.88 -1.85 C-1.78 -2.06, -1.52 -2.25, -1.3 -2.41 C-1.08 -2.57, -0.51 -2.76, -0.56 -2.8 C-0.62 -2.85, -1.34 -2.74, -1.65 -2.68 C-1.95 -2.61, -2.2 -2.55, -2.38 -2.43 C-2.56 -2.31, -2.63 -2.13, -2.71 -1.94 C-2.78 -1.75, -2.86 -1.49, -2.83 -1.3 C-2.79 -1.11, -2.62 -0.94, -2.49 -0.8 C-2.37 -0.66, -2.23 -0.56, -2.09 -0.46 C-1.95 -0.36, -1.85 -0.28, -1.68 -0.21 C-1.5 -0.14, -1.24 -0.1, -1.05 -0.05 C-0.86 0, -0.61 0.06, -0.52 0.08" stroke="#454342" stroke-width="1" fill="none"></path></g></g><g stroke-linecap="round"><g transform="translate(199.21016882036872 111.05363506975749) rotate(354.3524280434069 2.337384833577971 0.08885517085687411)"><path d="M0 0 C0.01 -0.11, -0.09 -0.47, 0.05 -0.67 C0.2 -0.87, 0.49 -1.07, 0.87 -1.19 C1.24 -1.31, 1.87 -1.37, 2.31 -1.38 C2.76 -1.39, 3.14 -1.39, 3.53 -1.27 C3.91 -1.16, 4.47 -0.98, 4.62 -0.69 C4.76 -0.4, 4.72 0.09, 4.42 0.46 C4.11 0.83, 3.36 1.42, 2.78 1.54 C2.21 1.65, 1.4 1.34, 0.98 1.17 C0.56 1, 0.42 0.7, 0.25 0.51 C0.09 0.31, 0.04 0.08, 0 0 M0 0 C0.01 -0.11, -0.09 -0.47, 0.05 -0.67 C0.2 -0.87, 0.49 -1.07, 0.87 -1.19 C1.24 -1.31, 1.87 -1.37, 2.31 -1.38 C2.76 -1.39, 3.14 -1.39, 3.53 -1.27 C3.91 -1.16, 4.47 -0.98, 4.62 -0.69 C4.76 -0.4, 4.72 0.09, 4.42 0.46 C4.11 0.83, 3.36 1.42, 2.78 1.54 C2.21 1.65, 1.4 1.34, 0.98 1.17 C0.56 1, 0.42 0.7, 0.25 0.51 C0.09 0.31, 0.04 0.08, 0 0" stroke="#000000" stroke-width="1" fill="none"></path></g></g><g stroke-linecap="round"><g transform="translate(202.80035081694052 110.17791880275468) rotate(354.3524280434069 0.20948061355090886 0.38486860319625293)" fill-rule="evenodd"><path d="" stroke="none" stroke-width="0" fill="#454342" fill-rule="evenodd"></path><path d="M0 0 C0.07 0.06, 0.37 0.22, 0.41 0.34 C0.46 0.47, 0.29 0.7, 0.27 0.77 M0 0 C0.07 0.06, 0.37 0.22, 0.41 0.34 C0.46 0.47, 0.29 0.7, 0.27 0.77" stroke="#000000" stroke-width="1" fill="none"></path></g></g><g stroke-linecap="round"><g transform="translate(200.7668376526492 115.01694094677975) rotate(354.3524280434069 0.014373209558527833 0.6324212205751394)"><path d="M0 0 C0 0.21, 0.02 1.05, 0.03 1.26 M0 0 C0 0.21, 0.02 1.05, 0.03 1.26" stroke="#000000" stroke-width="1" fill="none"></path></g></g><g stroke-linecap="round"><g transform="translate(200.76061104607197 115.95643573271877) rotate(354.3524280434069 1.5240632596721753 -0.28569942867517284)" fill-rule="evenodd"><path d="M0 0 L0.25 0.78 L2.21 0.85 L3.01 0.47 L3.07 -1.3 L-0.01 -1.06 L0 0" stroke="none" stroke-width="0" fill="#ffffff" fill-rule="evenodd"></path><path d="M0 0 C0.04 0.13, 0.05 0.62, 0.25 0.78 C0.45 0.94, 0.87 0.93, 1.2 0.94 C1.53 0.95, 1.91 0.93, 2.21 0.85 C2.52 0.78, 2.85 0.69, 3.01 0.47 C3.17 0.26, 3.15 -0.12, 3.16 -0.41 C3.17 -0.71, 3.17 -1.13, 3.07 -1.3 C2.96 -1.47, 2.8 -1.4, 2.52 -1.43 C2.25 -1.47, 1.82 -1.55, 1.4 -1.49 C0.97 -1.43, 0.22 -1.31, -0.01 -1.06 C-0.25 -0.81, 0 -0.18, 0 0 M0 0 C0.04 0.13, 0.05 0.62, 0.25 0.78 C0.45 0.94, 0.87 0.93, 1.2 0.94 C1.53 0.95, 1.91 0.93, 2.21 0.85 C2.52 0.78, 2.85 0.69, 3.01 0.47 C3.17 0.26, 3.15 -0.12, 3.16 -0.41 C3.17 -0.71, 3.17 -1.13, 3.07 -1.3 C2.96 -1.47, 2.8 -1.4, 2.52 -1.43 C2.25 -1.47, 1.82 -1.55, 1.4 -1.49 C0.97 -1.43, 0.22 -1.31, -0.01 -1.06 C-0.25 -0.81, 0 -0.18, 0 0" stroke="#000000" stroke-width="1" fill="none"></path></g></g><g stroke-linecap="round"><g transform="translate(202.41549822144123 114.67359576525166) rotate(354.3524280434069 0.0345838707298185 1.077990716889417)" fill-rule="evenodd"><path d="" stroke="none" stroke-width="0" fill="#ffffff" fill-rule="evenodd"></path><path d="M0 0 C0.01 0.16, 0.06 0.6, 0.07 0.96 C0.08 1.32, 0.06 1.96, 0.06 2.16 M0 0 C0.01 0.16, 0.06 0.6, 0.07 0.96 C0.08 1.32, 0.06 1.96, 0.06 2.16" stroke="#000000" stroke-width="1" fill="none"></path></g></g><g stroke-linecap="round"><g transform="translate(182.5594076456723 94.47894049749067) rotate(352.10971498794663 -2.4049388216845955 -0.20831631945691242)" fill-rule="evenodd"><path d="M0 0 L-3.46 2.12 L-4.81 -0.52 L-4.34 -1.93 L-2.61 -2.62 L0 0" stroke="none" stroke-width="0" fill="#bcdec2" fill-rule="evenodd"></path><path d="M0 0 C-0.48 0.32, -2.29 1.55, -2.87 1.9 C-3.44 2.26, -3.25 2.29, -3.46 2.12 C-3.68 1.96, -3.94 1.36, -4.17 0.92 C-4.39 0.48, -4.78 -0.04, -4.81 -0.52 C-4.84 -0.99, -4.71 -1.58, -4.34 -1.93 C-3.98 -2.28, -3.19 -2.73, -2.61 -2.62 C-2.02 -2.5, -1.27 -1.67, -0.84 -1.23 C-0.4 -0.8, -0.14 -0.21, 0 0 M0 0 C-0.48 0.32, -2.29 1.55, -2.87 1.9 C-3.44 2.26, -3.25 2.29, -3.46 2.12 C-3.68 1.96, -3.94 1.36, -4.17 0.92 C-4.39 0.48, -4.78 -0.04, -4.81 -0.52 C-4.84 -0.99, -4.71 -1.58, -4.34 -1.93 C-3.98 -2.28, -3.19 -2.73, -2.61 -2.62 C-2.02 -2.5, -1.27 -1.67, -0.84 -1.23 C-0.4 -0.8, -0.14 -0.21, 0 0" stroke="#bcdec2" stroke-width="1" fill="none"></path></g></g><g stroke-linecap="round"><g transform="translate(180.78509705416604 95.62413378310418) rotate(338.63165034724796 -0.6569368813858318 -0.5839438945651523)"><path d="M0 0 C-0.05 -0.13, -0.1 -0.56, -0.32 -0.75 C-0.54 -0.95, -1.15 -1.1, -1.31 -1.17 M0 0 C-0.05 -0.13, -0.1 -0.56, -0.32 -0.75 C-0.54 -0.95, -1.15 -1.1, -1.31 -1.17" stroke="#000000" stroke-width="1" fill="none"></path></g></g><g stroke-linecap="round"><g transform="translate(180.58511031491264 95.40834481845388) rotate(338.63165034724796 -0.06170402228377725 -1.0583641490565014)"><path d="M0 0 C-0.02 -0.15, -0.11 -0.55, -0.12 -0.9 C-0.13 -1.25, -0.08 -1.91, -0.07 -2.12 M0 0 C-0.02 -0.15, -0.11 -0.55, -0.12 -0.9 C-0.13 -1.25, -0.08 -1.91, -0.07 -2.12" stroke="#000000" stroke-width="1" fill="none"></path></g></g><g stroke-linecap="round"><g transform="translate(179.15122455291134 96.72019036534152) rotate(352.10971498794663 1.0284604109156135 -2.457525372602248)" fill-rule="evenodd"><path d="M0 0 L-1.41 -2.8 L-0.95 -4.21 L0.79 -4.9 L3.47 -2.27" stroke="none" stroke-width="0" fill="#bcdec2" fill-rule="evenodd"></path><path d="M0 0 C-0.13 -0.21, -0.56 -0.82, -0.79 -1.28 C-1.02 -1.75, -1.38 -2.31, -1.41 -2.8 C-1.43 -3.28, -1.31 -3.86, -0.95 -4.21 C-0.58 -4.56, 0.21 -5.01, 0.79 -4.9 C1.38 -4.78, 2.11 -3.95, 2.56 -3.51 C3.01 -3.07, 3.32 -2.48, 3.47 -2.27 M0 0 C-0.13 -0.21, -0.56 -0.82, -0.79 -1.28 C-1.02 -1.75, -1.38 -2.31, -1.41 -2.8 C-1.43 -3.28, -1.31 -3.86, -0.95 -4.21 C-0.58 -4.56, 0.21 -5.01, 0.79 -4.9 C1.38 -4.78, 2.11 -3.95, 2.56 -3.51 C3.01 -3.07, 3.32 -2.48, 3.47 -2.27" stroke="#000000" stroke-width="1" fill="none"></path></g></g><g stroke-linecap="round"><g transform="translate(181.89335374835537 125.00520840605697) rotate(4.746031570543487 1.2366362670740614 -0.06205632163633368)" fill-rule="evenodd"><path d="M0 0 L1.96 2.17 L3.11 1.43 L0.64 -2.27 L-0.63 -1.4 L0 0" stroke="none" stroke-width="0" fill="#ffffff" fill-rule="evenodd"></path><path d="M0 0 C0.13 0.17, 0.45 0.67, 0.78 1.03 C1.1 1.39, 1.57 2.1, 1.96 2.17 C2.34 2.23, 3.03 1.77, 3.11 1.43 C3.19 1.09, 2.68 0.55, 2.43 0.11 C2.18 -0.33, 1.88 -0.81, 1.59 -1.21 C1.29 -1.61, 0.95 -2.15, 0.64 -2.27 C0.32 -2.39, -0.08 -2.08, -0.29 -1.94 C-0.5 -1.79, -0.6 -1.58, -0.63 -1.4 C-0.67 -1.21, -0.61 -1.07, -0.5 -0.84 C-0.4 -0.6, -0.08 -0.14, 0 0 M0 0 C0.13 0.17, 0.45 0.67, 0.78 1.03 C1.1 1.39, 1.57 2.1, 1.96 2.17 C2.34 2.23, 3.03 1.77, 3.11 1.43 C3.19 1.09, 2.68 0.55, 2.43 0.11 C2.18 -0.33, 1.88 -0.81, 1.59 -1.21 C1.29 -1.61, 0.95 -2.15, 0.64 -2.27 C0.32 -2.39, -0.08 -2.08, -0.29 -1.94 C-0.5 -1.79, -0.6 -1.58, -0.63 -1.4 C-0.67 -1.21, -0.61 -1.07, -0.5 -0.84 C-0.4 -0.6, -0.08 -0.14, 0 0" stroke="#000000" stroke-width="1" fill="none"></path></g></g><g stroke-linecap="round"><g transform="translate(182.0115868858519 149.9450941710104) rotate(41.461030233629415 1.519138149875971 -0.36033940873841175)" fill-rule="evenodd"><path d="M0 0 L2 1.78 L3.19 1.18 L3.39 -0.13 L0.94 -2.5 L-0.44 -1.06 L0 0" stroke="none" stroke-width="0" fill="#ffffff" fill-rule="evenodd"></path><path d="M0 0 C0.14 0.16, 0.49 0.65, 0.82 0.95 C1.16 1.24, 1.61 1.74, 2 1.78 C2.4 1.82, 2.96 1.5, 3.19 1.18 C3.43 0.87, 3.59 0.39, 3.39 -0.13 C3.19 -0.65, 2.41 -1.53, 2 -1.92 C1.59 -2.32, 1.28 -2.49, 0.94 -2.5 C0.61 -2.52, 0.23 -2.24, 0 -2 C-0.23 -1.76, -0.44 -1.39, -0.44 -1.06 C-0.44 -0.72, -0.07 -0.18, 0 0 M0 0 C0.14 0.16, 0.49 0.65, 0.82 0.95 C1.16 1.24, 1.61 1.74, 2 1.78 C2.4 1.82, 2.96 1.5, 3.19 1.18 C3.43 0.87, 3.59 0.39, 3.39 -0.13 C3.19 -0.65, 2.41 -1.53, 2 -1.92 C1.59 -2.32, 1.28 -2.49, 0.94 -2.5 C0.61 -2.52, 0.23 -2.24, 0 -2 C-0.23 -1.76, -0.44 -1.39, -0.44 -1.06 C-0.44 -0.72, -0.07 -0.18, 0 0" stroke="#000000" stroke-width="1" fill="none"></path></g></g><g transform="translate(10 10) rotate(0 190.9102564102564 101.99315068493152)"><text x="0" y="140.98630136986304" font-family="Helvetica, Segoe UI Emoji" font-size="169.99513888338677px" fill="#007d9c" text-anchor="start" style="white-space: pre;" direction="ltr">mq tt</text></g><g stroke-opacity="0.2" fill-opacity="0.2" transform="translate(247.4006248404064 20.690452972828666) rotate(0 29.60735560068656 93.75662606884083)"><text x="0" y="129.51325213768166" font-family="Helvetica, Segoe UI Emoji" font-size="157.90589653699502px" fill="#007d9c" text-anchor="start" style="white-space: pre;" direction="ltr">/</text></g></svg>