<svg version="1.1" xmlns="http://www.w3.org/2000/svg" viewBox="0 0 410.3846153846156 228.5616438356165" width="410.3846153846156" height="228.5616438356165">
  <!-- svg-source:excalidraw -->
  
  <defs>
    <style>
      @font-face {
        font-family: "Virgil";
        src: url("https://excalidraw.com/Virgil.woff2");
      }
      @font-face {
        font-family: "Cascadia";
        src: url("https://excalidraw.com/Cascadia.woff2");
      }
    </style>
  </defs>
  <rect x="0" y="0" width="410.3846153846156" height="228.5616438356165" fill="#f1f3f5"></rect><g stroke-linecap="round"><g transform="translate(210.9708981036049 152.16626622097868) rotate(0 1.562710508188161 -0.2640338157691673)" fill-rule="evenodd"><path d="M0 0 L2.05 1.82 L3.47 1.27 L3.62 0.01 L2.05 -1.96 L0 -2.04 L-0.62 -1.23 L0 0" stroke="none" stroke-width="0" fill="#ffffff" fill-rule="evenodd"></path><path d="M0 0 C0.1 0.13, 0.27 0.5, 0.61 0.81 C0.95 1.11, 1.57 1.74, 2.05 1.82 C2.52 1.9, 3.2 1.57, 3.47 1.27 C3.73 0.97, 3.86 0.55, 3.62 0.01 C3.39 -0.53, 2.49 -1.57, 2.05 -1.96 C1.6 -2.36, 1.29 -2.34, 0.94 -2.36 C0.6 -2.37, 0.26 -2.23, 0 -2.04 C-0.26 -1.85, -0.62 -1.57, -0.62 -1.23 C-0.62 -0.89, -0.1 -0.2, 0 0 M0 0 C0.1 0.13, 0.27 0.5, 0.61 0.81 C0.95 1.11, 1.57 1.74, 2.05 1.82 C2.52 1.9, 3.2 1.57, 3.47 1.27 C3.73 0.97, 3.86 0.55, 3.62 0.01 C3.39 -0.53, 2.49 -1.57, 2.05 -1.96 C1.6 -2.36, 1.29 -2.34, 0.94 -2.36 C0.6 -2.37, 0.26 -2.23, 0 -2.04 C-0.26 -1.85, -0.62 -1.57, -0.62 -1.23 C-0.62 -0.89, -0.1 -0.2, 0 0" stroke="#000000" stroke-width="1" fill="none"></path></g></g><g stroke-linecap="round"><g transform="translate(217.67136943637763 124.9239498509641) rotate(354.2378726086236 1.2643735925191208 -0.0634482235520295)" fill-rule="evenodd"><path d="M0 0 L2 2.22 L3.18 1.46 L0.65 -2.32 L-0.65 -1.43 L0 0" stroke="none" stroke-width="0" fill="#ffffff" fill-rule="evenodd"></path><path d="M0 0 C0.13 0.18, 0.46 0.68, 0.79 1.05 C1.13 1.42, 1.6 2.15, 2 2.22 C2.4 2.29, 3.1 1.81, 3.18 1.46 C3.26 1.11, 2.74 0.56, 2.49 0.11 C2.23 -0.34, 1.93 -0.83, 1.62 -1.24 C1.32 -1.64, 0.97 -2.2, 0.65 -2.32 C0.33 -2.45, -0.08 -2.13, -0.3 -1.98 C-0.51 -1.83, -0.61 -1.62, -0.65 -1.43 C-0.68 -1.24, -0.62 -1.09, -0.51 -0.86 C-0.41 -0.62, -0.09 -0.14, 0 0 M0 0 C0.13 0.18, 0.46 0.68, 0.79 1.05 C1.13 1.42, 1.6 2.15, 2 2.22 C2.4 2.29, 3.1 1.81, 3.18 1.46 C3.26 1.11, 2.74 0.56, 2.49 0.11 C2.23 -0.34, 1.93 -0.83, 1.62 -1.24 C1.32 -1.64, 0.97 -2.2, 0.65 -2.32 C0.33 -2.45, -0.08 -2.13, -0.3 -1.98 C-0.51 -1.83, -0.61 -1.62, -0.65 -1.43 C-0.68 -1.24, -0.62 -1.09, -0.51 -0.86 C-0.41 -0.62, -0.09 -0.14, 0 0" stroke="#000000" stroke-width="1" fill="none"></path></g></g><g stroke-linecap="round"><g transform="translate(215.6442472101545 94.09259215256844) rotate(70.75302048686233 0.8235626408063013 -2.460164411960733)" fill-rule="evenodd"><path d="M0 0 L-1.65 -2.75 L-1.18 -4.2 L0.59 -4.9 L3.2 -2.23 L0 0" stroke="none" stroke-width="0" fill="#bcdec2" fill-rule="evenodd"></path><path d="M0 0 C-0.17 -0.21, -0.72 -0.82, -1 -1.28 C-1.28 -1.74, -1.62 -2.27, -1.65 -2.75 C-1.68 -3.24, -1.56 -3.84, -1.18 -4.2 C-0.81 -4.56, 0 -5.02, 0.59 -4.9 C1.19 -4.78, 1.97 -3.93, 2.4 -3.49 C2.84 -3.04, 3.1 -2.47, 3.2 -2.23 C3.29 -1.99, 3.48 -2.41, 2.95 -2.04 C2.41 -1.67, 0.49 -0.34, 0 0 M0 0 C-0.17 -0.21, -0.72 -0.82, -1 -1.28 C-1.28 -1.74, -1.62 -2.27, -1.65 -2.75 C-1.68 -3.24, -1.56 -3.84, -1.18 -4.2 C-0.81 -4.56, 0 -5.02, 0.59 -4.9 C1.19 -4.78, 1.97 -3.93, 2.4 -3.49 C2.84 -3.04, 3.1 -2.47, 3.2 -2.23 C3.29 -1.99, 3.48 -2.41, 2.95 -2.04 C2.41 -1.67, 0.49 -0.34, 0 0" stroke="#bcdec2" stroke-width="1" fill="none"></path></g></g><g stroke-linecap="round"><g transform="translate(216.58014218696303 92.60843268806252) rotate(57.2749558461637 -0.5594808646493448 -0.936225284266186)"><path d="M0 0 C-0.09 -0.15, -0.34 -0.58, -0.53 -0.89 C-0.71 -1.2, -1.02 -1.71, -1.12 -1.87 M0 0 C-0.09 -0.15, -0.34 -0.58, -0.53 -0.89 C-0.71 -1.2, -1.02 -1.71, -1.12 -1.87" stroke="#000000" stroke-width="1" fill="none"></path></g></g><g stroke-linecap="round"><g transform="translate(215.65814700817646 94.09230603378353) rotate(70.75302048686233 0.8156833306561566 -2.460164411960733)"><path d="M0 0 C-0.17 -0.21, -0.72 -0.82, -1 -1.28 C-1.28 -1.74, -1.62 -2.27, -1.65 -2.75 C-1.68 -3.24, -1.56 -3.84, -1.18 -4.2 C-0.81 -4.56, 0 -5.02, 0.59 -4.9 C1.19 -4.78, 1.95 -3.95, 2.4 -3.49 C2.85 -3.03, 3.14 -2.36, 3.29 -2.14 M0 0 C-0.17 -0.21, -0.72 -0.82, -1 -1.28 C-1.28 -1.74, -1.62 -2.27, -1.65 -2.75 C-1.68 -3.24, -1.56 -3.84, -1.18 -4.2 C-0.81 -4.56, 0 -5.02, 0.59 -4.9 C1.19 -4.78, 1.95 -3.95, 2.4 -3.49 C2.85 -3.03, 3.14 -2.36, 3.29 -2.14" stroke="#000000" stroke-width="1" fill="none"></path></g></g><g stroke-linecap="round"><g transform="translate(216.31439328203749 93.12229142606026) rotate(57.2749558461637 0.054241844351167856 -0.9146105695700157)"><path d="M0 0 C-0.01 -0.18, -0.07 -0.8, -0.04 -1.1 C-0.02 -1.41, 0.12 -1.71, 0.16 -1.83 M0 0 C-0.01 -0.18, -0.07 -0.8, -0.04 -1.1 C-0.02 -1.41, 0.12 -1.71, 0.16 -1.83" stroke="#000000" stroke-width="1" fill="none"></path></g></g><g stroke-linecap="round"><g transform="translate(216.54420220435497 92.62459877705004) rotate(57.2749558461637 -0.5594808646493448 -0.936225284266186)"><path d="M0 0 C-0.09 -0.15, -0.34 -0.58, -0.53 -0.89 C-0.71 -1.2, -1.02 -1.71, -1.12 -1.87 M0 0 C-0.09 -0.15, -0.34 -0.58, -0.53 -0.89 C-0.71 -1.2, -1.02 -1.71, -1.12 -1.87" stroke="#000000" stroke-width="1" fill="none"></path></g></g><g stroke-linecap="round"><g transform="translate(216.27845329942943 93.13845751504806) rotate(57.2749558461637 0.054241844351167856 -0.9146105695700157)"><path d="M0 0 C-0.01 -0.18, -0.07 -0.8, -0.04 -1.1 C-0.02 -1.41, 0.12 -1.71, 0.16 -1.83 M0 0 C-0.01 -0.18, -0.07 -0.8, -0.04 -1.1 C-0.02 -1.41, 0.12 -1.71, 0.16 -1.83" stroke="#000000" stroke-width="1" fill="none"></path></g></g><g stroke-linecap="round"><g transform="translate(219.2663316117754 132.96830548287886) rotate(0 -20.500422896867065 -11.604571039752543)" fill-rule="evenodd"><path d="M0 0 L-0.84 7.52 L-4.15 14.77 L-10.7 19.32 L-20.3 21.22 L-29.81 19.33 L-34.09 17.8 L-37.66 15.22 L-40.15 11.5 L-41.52 4.87 L-41.19 -16.14 L-40.51 -22.49 L-38.08 -31.25 L-34.94 -37.25 L-31.88 -40.75 L-28.2 -42.63 L-17.7 -44.42 L-8.76 -43.18 L-2.13 -40.27 L-0.19 -37.02 L0.71 -32.56 L-1.07 -19.9 L0 0" stroke="none" stroke-width="0" fill="#bcdec2" fill-rule="evenodd"></path><path d="M0 0 C-0.14 1.25, -0.15 5.05, -0.84 7.52 C-1.53 9.98, -2.51 12.8, -4.15 14.77 C-5.79 16.74, -8.01 18.25, -10.7 19.32 C-13.39 20.4, -17.11 21.22, -20.3 21.22 C-23.48 21.22, -26.91 20.33, -29.81 19.33 C-32.7 18.33, -35.71 17.63, -37.66 15.22 C-39.62 12.81, -41.05 11.15, -41.52 4.87 C-42 -1.41, -41.6 -15.47, -40.51 -22.49 C-39.41 -29.51, -36.99 -33.9, -34.94 -37.25 C-32.89 -40.61, -31.08 -41.43, -28.2 -42.63 C-25.33 -43.83, -20.94 -44.33, -17.7 -44.42 C-14.46 -44.51, -11.35 -43.87, -8.76 -43.18 C-6.17 -42.48, -3.71 -42.04, -2.13 -40.27 C-0.56 -38.5, 0.53 -35.95, 0.71 -32.56 C0.89 -29.16, -0.95 -25.33, -1.07 -19.9 C-1.19 -14.48, -0.18 -3.32, 0 0 M0 0 C-0.14 1.25, -0.15 5.05, -0.84 7.52 C-1.53 9.98, -2.51 12.8, -4.15 14.77 C-5.79 16.74, -8.01 18.25, -10.7 19.32 C-13.39 20.4, -17.11 21.22, -20.3 21.22 C-23.48 21.22, -26.91 20.33, -29.81 19.33 C-32.7 18.33, -35.71 17.63, -37.66 15.22 C-39.62 12.81, -41.05 11.15, -41.52 4.87 C-42 -1.41, -41.6 -15.47, -40.51 -22.49 C-39.41 -29.51, -36.99 -33.9, -34.94 -37.25 C-32.89 -40.61, -31.08 -41.43, -28.2 -42.63 C-25.33 -43.83, -20.94 -44.33, -17.7 -44.42 C-14.46 -44.51, -11.35 -43.87, -8.76 -43.18 C-6.17 -42.48, -3.71 -42.04, -2.13 -40.27 C-0.56 -38.5, 0.53 -35.95, 0.71 -32.56 C0.89 -29.16, -0.95 -25.33, -1.07 -19.9 C-1.19 -14.48, -0.18 -3.32, 0 0" stroke="#000000" stroke-width="1" fill="none"></path></g></g><g stroke-linecap="round"><g stroke-opacity="0.6" fill-opacity="0.6" transform="translate(198.56269887074325 153.70629499904476) rotate(0 8.11913360324246 -9.914444548680308)" fill-rule="evenodd"><path d="M0 0 L-3.95 -6.03 L-3.17 -10.34 L-0.47 -14.55 L4.97 -17.89 L11.06 -19.78 L16.13 -18.95 L19.67 -16.76 L19.99 -14 L16.64 -6.75 L11.29 -2.21 L0 0" stroke="none" stroke-width="0" fill="#ffffff" fill-rule="evenodd"></path><path d="M0 0 C-0.66 -1, -3.87 -3.6, -3.95 -6.03 C-4.02 -8.45, -2.97 -12.25, -0.47 -14.55 C2.03 -16.84, 7.7 -19.41, 11.06 -19.78 C14.41 -20.15, 18.35 -18.21, 19.67 -16.76 C20.98 -15.31, 19.46 -12.75, 18.95 -11.08 C18.45 -9.42, 17.92 -8.23, 16.64 -6.75 C15.36 -5.27, 13.12 -3.22, 11.29 -2.21 C9.46 -1.2, 7.56 -1.05, 5.67 -0.69 C3.79 -0.32, 0.95 -0.11, 0 0 M0 0 C-0.66 -1, -3.87 -3.6, -3.95 -6.03 C-4.02 -8.45, -2.97 -12.25, -0.47 -14.55 C2.03 -16.84, 7.7 -19.41, 11.06 -19.78 C14.41 -20.15, 18.35 -18.21, 19.67 -16.76 C20.98 -15.31, 19.46 -12.75, 18.95 -11.08 C18.45 -9.42, 17.92 -8.23, 16.64 -6.75 C15.36 -5.27, 13.12 -3.22, 11.29 -2.21 C9.46 -1.2, 7.56 -1.05, 5.67 -0.69 C3.79 -0.32, 0.95 -0.11, 0 0" stroke="#000000" stroke-width="1" fill="none"></path></g></g><g stroke-linecap="round" transform="translate(207.73552776060762 96.69594171936842) rotate(0 7.384953680574824 7.457711844915451)"><path d="M14.77 7.46 C14.77 7.89, 14.73 8.33, 14.66 8.75 C14.58 9.18, 14.47 9.6, 14.32 10.01 C14.18 10.41, 13.99 10.81, 13.78 11.19 C13.57 11.56, 13.32 11.92, 13.04 12.25 C12.77 12.58, 12.46 12.89, 12.13 13.17 C11.8 13.45, 11.45 13.7, 11.08 13.92 C10.71 14.13, 10.31 14.32, 9.91 14.47 C9.51 14.61, 9.09 14.73, 8.67 14.8 C8.25 14.88, 7.81 14.92, 7.38 14.92 C6.96 14.92, 6.52 14.88, 6.1 14.8 C5.68 14.73, 5.26 14.61, 4.86 14.47 C4.46 14.32, 4.06 14.13, 3.69 13.92 C3.32 13.7, 2.97 13.45, 2.64 13.17 C2.31 12.89, 2 12.58, 1.73 12.25 C1.45 11.92, 1.2 11.56, 0.99 11.19 C0.78 10.81, 0.59 10.41, 0.45 10.01 C0.3 9.6, 0.19 9.18, 0.11 8.75 C0.04 8.33, 0 7.89, 0 7.46 C0 7.03, 0.04 6.59, 0.11 6.16 C0.19 5.74, 0.3 5.31, 0.45 4.91 C0.59 4.5, 0.78 4.1, 0.99 3.73 C1.2 3.36, 1.45 2.99, 1.73 2.66 C2 2.33, 2.31 2.02, 2.64 1.74 C2.97 1.47, 3.32 1.21, 3.69 1 C4.06 0.78, 4.46 0.6, 4.86 0.45 C5.26 0.3, 5.68 0.19, 6.1 0.11 C6.52 0.04, 6.96 0, 7.38 0 C7.81 0, 8.25 0.04, 8.67 0.11 C9.09 0.19, 9.51 0.3, 9.91 0.45 C10.31 0.6, 10.71 0.78, 11.08 1 C11.45 1.21, 11.8 1.47, 12.13 1.74 C12.46 2.02, 12.77 2.33, 13.04 2.66 C13.32 2.99, 13.57 3.36, 13.78 3.73 C13.99 4.1, 14.18 4.5, 14.32 4.91 C14.47 5.31, 14.58 5.74, 14.66 6.16 C14.73 6.59, 14.75 7.24, 14.77 7.46 C14.79 7.67, 14.79 7.24, 14.77 7.46" stroke="none" stroke-width="0" fill="#ffffff"></path><path d="M14.77 7.46 C14.77 7.89, 14.73 8.33, 14.66 8.75 C14.58 9.18, 14.47 9.6, 14.32 10.01 C14.18 10.41, 13.99 10.81, 13.78 11.19 C13.57 11.56, 13.32 11.92, 13.04 12.25 C12.77 12.58, 12.46 12.89, 12.13 13.17 C11.8 13.45, 11.45 13.7, 11.08 13.92 C10.71 14.13, 10.31 14.32, 9.91 14.47 C9.51 14.61, 9.09 14.73, 8.67 14.8 C8.25 14.88, 7.81 14.92, 7.38 14.92 C6.96 14.92, 6.52 14.88, 6.1 14.8 C5.68 14.73, 5.26 14.61, 4.86 14.47 C4.46 14.32, 4.06 14.13, 3.69 13.92 C3.32 13.7, 2.97 13.45, 2.64 13.17 C2.31 12.89, 2 12.58, 1.73 12.25 C1.45 11.92, 1.2 11.56, 0.99 11.19 C0.78 10.81, 0.59 10.41, 0.45 10.01 C0.3 9.6, 0.19 9.18, 0.11 8.75 C0.04 8.33, 0 7.89, 0 7.46 C0 7.03, 0.04 6.59, 0.11 6.16 C0.19 5.74, 0.3 5.31, 0.45 4.91 C0.59 4.5, 0.78 4.1, 0.99 3.73 C1.2 3.36, 1.45 2.99, 1.73 2.66 C2 2.33, 2.31 2.02, 2.64 1.74 C2.97 1.47, 3.32 1.21, 3.69 1 C4.06 0.78, 4.46 0.6, 4.86 0.45 C5.26 0.3, 5.68 0.19, 6.1 0.11 C6.52 0.04, 6.96 0, 7.38 0 C7.81 0, 8.25 0.04, 8.67 0.11 C9.09 0.19, 9.51 0.3, 9.91 0.45 C10.31 0.6, 10.71 0.78, 11.08 1 C11.45 1.21, 11.8 1.47, 12.13 1.74 C12.46 2.02, 12.77 2.33, 13.04 2.66 C13.32 2.99, 13.57 3.36, 13.78 3.73 C13.99 4.1, 14.18 4.5, 14.32 4.91 C14.47 5.31, 14.58 5.74, 14.66 6.16 C14.73 6.59, 14.75 7.24, 14.77 7.46 C14.79 7.67, 14.79 7.24, 14.77 7.46" stroke="#000000" stroke-width="1" fill="none"></path></g><g stroke-linecap="round" transform="translate(185.1763632522543 95.80339265978341) rotate(0 8.874211837323742 8.961642495819518)"><path d="M17.75 8.96 C17.75 9.48, 17.7 10.01, 17.61 10.52 C17.52 11.03, 17.39 11.54, 17.21 12.03 C17.04 12.51, 16.82 12.99, 16.56 13.44 C16.3 13.89, 16 14.32, 15.67 14.72 C15.34 15.12, 14.97 15.49, 14.58 15.83 C14.18 16.16, 13.76 16.46, 13.31 16.72 C12.87 16.98, 12.39 17.21, 11.91 17.38 C11.43 17.56, 10.92 17.7, 10.42 17.79 C9.91 17.88, 9.39 17.92, 8.87 17.92 C8.36 17.92, 7.84 17.88, 7.33 17.79 C6.83 17.7, 6.32 17.56, 5.84 17.38 C5.36 17.21, 4.88 16.98, 4.44 16.72 C3.99 16.46, 3.56 16.16, 3.17 15.83 C2.78 15.49, 2.41 15.12, 2.08 14.72 C1.75 14.32, 1.45 13.89, 1.19 13.44 C0.93 12.99, 0.71 12.51, 0.54 12.03 C0.36 11.54, 0.22 11.03, 0.13 10.52 C0.05 10.01, 0 9.48, 0 8.96 C0 8.44, 0.05 7.92, 0.13 7.41 C0.22 6.89, 0.36 6.38, 0.54 5.9 C0.71 5.41, 0.93 4.93, 1.19 4.48 C1.45 4.03, 1.75 3.6, 2.08 3.2 C2.41 2.8, 2.78 2.43, 3.17 2.1 C3.56 1.76, 3.99 1.46, 4.44 1.2 C4.88 0.94, 5.36 0.72, 5.84 0.54 C6.32 0.36, 6.83 0.23, 7.33 0.14 C7.84 0.05, 8.36 0, 8.87 0 C9.39 0, 9.91 0.05, 10.42 0.14 C10.92 0.23, 11.43 0.36, 11.91 0.54 C12.39 0.72, 12.87 0.94, 13.31 1.2 C13.76 1.46, 14.18 1.76, 14.58 2.1 C14.97 2.43, 15.34 2.8, 15.67 3.2 C16 3.6, 16.3 4.03, 16.56 4.48 C16.82 4.93, 17.04 5.41, 17.21 5.9 C17.39 6.38, 17.52 6.89, 17.61 7.41 C17.7 7.92, 17.73 8.7, 17.75 8.96 C17.77 9.22, 17.77 8.7, 17.75 8.96" stroke="none" stroke-width="0" fill="#ffffff"></path><path d="M17.75 8.96 C17.75 9.48, 17.7 10.01, 17.61 10.52 C17.52 11.03, 17.39 11.54, 17.21 12.03 C17.04 12.51, 16.82 12.99, 16.56 13.44 C16.3 13.89, 16 14.32, 15.67 14.72 C15.34 15.12, 14.97 15.49, 14.58 15.83 C14.18 16.16, 13.76 16.46, 13.31 16.72 C12.87 16.98, 12.39 17.21, 11.91 17.38 C11.43 17.56, 10.92 17.7, 10.42 17.79 C9.91 17.88, 9.39 17.92, 8.87 17.92 C8.36 17.92, 7.84 17.88, 7.33 17.79 C6.83 17.7, 6.32 17.56, 5.84 17.38 C5.36 17.21, 4.88 16.98, 4.44 16.72 C3.99 16.46, 3.56 16.16, 3.17 15.83 C2.78 15.49, 2.41 15.12, 2.08 14.72 C1.75 14.32, 1.45 13.89, 1.19 13.44 C0.93 12.99, 0.71 12.51, 0.54 12.03 C0.36 11.54, 0.22 11.03, 0.13 10.52 C0.05 10.01, 0 9.48, 0 8.96 C0 8.44, 0.05 7.92, 0.13 7.41 C0.22 6.89, 0.36 6.38, 0.54 5.9 C0.71 5.41, 0.93 4.93, 1.19 4.48 C1.45 4.03, 1.75 3.6, 2.08 3.2 C2.41 2.8, 2.78 2.43, 3.17 2.1 C3.56 1.76, 3.99 1.46, 4.44 1.2 C4.88 0.94, 5.36 0.72, 5.84 0.54 C6.32 0.36, 6.83 0.23, 7.33 0.14 C7.84 0.05, 8.36 0, 8.87 0 C9.39 0, 9.91 0.05, 10.42 0.14 C10.92 0.23, 11.43 0.36, 11.91 0.54 C12.39 0.72, 12.87 0.94, 13.31 1.2 C13.76 1.46, 14.18 1.76, 14.58 2.1 C14.97 2.43, 15.34 2.8, 15.67 3.2 C16 3.6, 16.3 4.03, 16.56 4.48 C16.82 4.93, 17.04 5.41, 17.21 5.9 C17.39 6.38, 17.52 6.89, 17.61 7.41 C17.7 7.92, 17.73 8.7, 17.75 8.96 C17.77 9.22, 17.77 8.7, 17.75 8.96" stroke="#000000" stroke-width="1" fill="none"></path></g><g stroke-linecap="round"><g stroke-opacity="0.1" fill-opacity="0.1" transform="translate(218.34619374239435 110.80211186842149) rotate(0 -5.224459609661949 -6.376569170179096)" fill-rule="evenodd"><path d="M0 0 L-2.74 0.01 L-6.17 -1.25 L-8.76 -4.87 L-8.67 -7.88 L-7.43 -10.95 L-2.32 -14 L-6.41 -13.33 L-9.98 -9.4 L-10.79 -4.4 L-10.31 -2.55 L-7.96 0.02 L-5.7 0.96 L-2.91 1.19 L0.35 0.03" stroke="none" stroke-width="0" fill="#000000" fill-rule="evenodd"></path><path d="M0 0 C-0.23 0.03, -0.91 0.16, -1.37 0.16 C-1.83 0.16, -2.22 0.11, -2.74 0.01 C-3.27 -0.09, -3.94 -0.22, -4.51 -0.43 C-5.08 -0.64, -5.68 -0.87, -6.17 -1.25 C-6.67 -1.62, -7.05 -2.06, -7.48 -2.67 C-7.91 -3.27, -8.56 -4, -8.76 -4.87 C-8.96 -5.74, -8.89 -6.86, -8.67 -7.88 C-8.45 -8.89, -8.1 -10.07, -7.43 -10.95 C-6.77 -11.84, -5.53 -12.67, -4.68 -13.17 C-3.83 -13.68, -2.03 -13.97, -2.32 -14 C-2.61 -14.02, -5.33 -13.8, -6.41 -13.33 C-7.5 -12.87, -8.22 -11.88, -8.82 -11.22 C-9.41 -10.57, -9.68 -10.11, -9.98 -9.4 C-10.28 -8.7, -10.47 -7.81, -10.61 -6.97 C-10.74 -6.14, -10.84 -5.13, -10.79 -4.4 C-10.74 -3.66, -10.53 -3.08, -10.31 -2.55 C-10.09 -2.03, -9.86 -1.69, -9.47 -1.26 C-9.08 -0.83, -8.59 -0.35, -7.96 0.02 C-7.33 0.4, -6.55 0.77, -5.7 0.96 C-4.86 1.16, -3.92 1.34, -2.91 1.19 C-1.9 1.03, -0.19 0.22, 0.35 0.03 M0 0 C-0.23 0.03, -0.91 0.16, -1.37 0.16 C-1.83 0.16, -2.22 0.11, -2.74 0.01 C-3.27 -0.09, -3.94 -0.22, -4.51 -0.43 C-5.08 -0.64, -5.68 -0.87, -6.17 -1.25 C-6.67 -1.62, -7.05 -2.06, -7.48 -2.67 C-7.91 -3.27, -8.56 -4, -8.76 -4.87 C-8.96 -5.74, -8.89 -6.86, -8.67 -7.88 C-8.45 -8.89, -8.1 -10.07, -7.43 -10.95 C-6.77 -11.84, -5.53 -12.67, -4.68 -13.17 C-3.83 -13.68, -2.03 -13.97, -2.32 -14 C-2.61 -14.02, -5.33 -13.8, -6.41 -13.33 C-7.5 -12.87, -8.22 -11.88, -8.82 -11.22 C-9.41 -10.57, -9.68 -10.11, -9.98 -9.4 C-10.28 -8.7, -10.47 -7.81, -10.61 -6.97 C-10.74 -6.14, -10.84 -5.13, -10.79 -4.4 C-10.74 -3.66, -10.53 -3.08, -10.31 -2.55 C-10.09 -2.03, -9.86 -1.69, -9.47 -1.26 C-9.08 -0.83, -8.59 -0.35, -7.96 0.02 C-7.33 0.4, -6.55 0.77, -5.7 0.96 C-4.86 1.16, -3.92 1.34, -2.91 1.19 C-1.9 1.03, -0.19 0.22, 0.35 0.03" stroke="#000000" stroke-width="1" fill="none"></path></g></g><g stroke-linecap="round"><g stroke-opacity="0.1" fill-opacity="0.1" transform="translate(195.01453484940862 113.48571069222652) rotate(0 -4.451028885308006 -8.71200815359299)" fill-rule="evenodd"><path d="M0 0 L-3.74 -2.19 L-6.61 -5.66 L-7.23 -10.23 L-5.75 -13.93 L-2.44 -16.6 L0.39 -17.59 L-4.52 -16.79 L-8.81 -12.07 L-9.33 -9.18 L-7.58 -2.98 L-2.25 0.08 L0 0" stroke="none" stroke-width="0" fill="#000000" fill-rule="evenodd"></path><path d="M0 0 C-0.62 -0.36, -2.63 -1.25, -3.74 -2.19 C-4.84 -3.13, -6.03 -4.32, -6.61 -5.66 C-7.19 -7, -7.38 -8.85, -7.23 -10.23 C-7.09 -11.61, -6.55 -12.87, -5.75 -13.93 C-4.95 -14.99, -3.46 -15.99, -2.44 -16.6 C-1.42 -17.21, 0.74 -17.56, 0.39 -17.59 C0.05 -17.62, -3.22 -17.34, -4.52 -16.79 C-5.82 -16.23, -6.69 -15.04, -7.41 -14.25 C-8.12 -13.47, -8.49 -12.91, -8.81 -12.07 C-9.13 -11.22, -9.32 -10.22, -9.33 -9.18 C-9.35 -8.15, -9.19 -6.89, -8.9 -5.86 C-8.6 -4.83, -8.14 -3.73, -7.58 -2.98 C-7.03 -2.22, -6.46 -1.82, -5.57 -1.31 C-4.68 -0.8, -3.18 -0.13, -2.25 0.08 C-1.32 0.3, -0.38 0.01, 0 0 M0 0 C-0.62 -0.36, -2.63 -1.25, -3.74 -2.19 C-4.84 -3.13, -6.03 -4.32, -6.61 -5.66 C-7.19 -7, -7.38 -8.85, -7.23 -10.23 C-7.09 -11.61, -6.55 -12.87, -5.75 -13.93 C-4.95 -14.99, -3.46 -15.99, -2.44 -16.6 C-1.42 -17.21, 0.74 -17.56, 0.39 -17.59 C0.05 -17.62, -3.22 -17.34, -4.52 -16.79 C-5.82 -16.23, -6.69 -15.04, -7.41 -14.25 C-8.12 -13.47, -8.49 -12.91, -8.81 -12.07 C-9.13 -11.22, -9.32 -10.22, -9.33 -9.18 C-9.35 -8.15, -9.19 -6.89, -8.9 -5.86 C-8.6 -4.83, -8.14 -3.73, -7.58 -2.98 C-7.03 -2.22, -6.46 -1.82, -5.57 -1.31 C-4.68 -0.8, -3.18 -0.13, -2.25 0.08 C-1.32 0.3, -0.38 0.01, 0 0" stroke="#000000" stroke-width="1" fill="none"></path></g></g><g stroke-linecap="round" transform="translate(185.2449642086017 95.73479170343614) rotate(0 8.874211837323742 8.961642495819518)"><path d="M17.75 8.96 C17.75 9.48, 17.7 10.01, 17.61 10.52 C17.52 11.03, 17.39 11.54, 17.21 12.03 C17.04 12.51, 16.82 12.99, 16.56 13.44 C16.3 13.89, 16 14.32, 15.67 14.72 C15.34 15.12, 14.97 15.49, 14.58 15.83 C14.18 16.16, 13.76 16.46, 13.31 16.72 C12.87 16.98, 12.39 17.21, 11.91 17.38 C11.43 17.56, 10.92 17.7, 10.42 17.79 C9.91 17.88, 9.39 17.92, 8.87 17.92 C8.36 17.92, 7.84 17.88, 7.33 17.79 C6.83 17.7, 6.32 17.56, 5.84 17.38 C5.36 17.21, 4.88 16.98, 4.44 16.72 C3.99 16.46, 3.56 16.16, 3.17 15.83 C2.78 15.49, 2.41 15.12, 2.08 14.72 C1.75 14.32, 1.45 13.89, 1.19 13.44 C0.93 12.99, 0.71 12.51, 0.54 12.03 C0.36 11.54, 0.22 11.03, 0.13 10.52 C0.05 10.01, 0 9.48, 0 8.96 C0 8.44, 0.05 7.92, 0.13 7.41 C0.22 6.89, 0.36 6.38, 0.54 5.9 C0.71 5.41, 0.93 4.93, 1.19 4.48 C1.45 4.03, 1.75 3.6, 2.08 3.2 C2.41 2.8, 2.78 2.43, 3.17 2.1 C3.56 1.76, 3.99 1.46, 4.44 1.2 C4.88 0.94, 5.36 0.72, 5.84 0.54 C6.32 0.36, 6.83 0.23, 7.33 0.14 C7.84 0.05, 8.36 0, 8.87 0 C9.39 0, 9.91 0.05, 10.42 0.14 C10.92 0.23, 11.43 0.36, 11.91 0.54 C12.39 0.72, 12.87 0.94, 13.31 1.2 C13.76 1.46, 14.18 1.76, 14.58 2.1 C14.97 2.43, 15.34 2.8, 15.67 3.2 C16 3.6, 16.3 4.03, 16.56 4.48 C16.82 4.93, 17.04 5.41, 17.21 5.9 C17.39 6.38, 17.52 6.89, 17.61 7.41 C17.7 7.92, 17.73 8.7, 17.75 8.96 C17.77 9.22, 17.77 8.7, 17.75 8.96" stroke="#000000" stroke-width="1" fill="none"></path></g><g stroke-linecap="round" transform="translate(207.82371905904745 96.60263313561182) rotate(0 7.384953680574824 7.457711844915451)"><path d="M14.77 7.46 C14.77 7.89, 14.73 8.33, 14.66 8.75 C14.58 9.18, 14.47 9.6, 14.32 10.01 C14.18 10.41, 13.99 10.81, 13.78 11.19 C13.57 11.56, 13.32 11.92, 13.04 12.25 C12.77 12.58, 12.46 12.89, 12.13 13.17 C11.8 13.45, 11.45 13.7, 11.08 13.92 C10.71 14.13, 10.31 14.32, 9.91 14.47 C9.51 14.61, 9.09 14.73, 8.67 14.8 C8.25 14.88, 7.81 14.92, 7.38 14.92 C6.96 14.92, 6.52 14.88, 6.1 14.8 C5.68 14.73, 5.26 14.61, 4.86 14.47 C4.46 14.32, 4.06 14.13, 3.69 13.92 C3.32 13.7, 2.97 13.45, 2.64 13.17 C2.31 12.89, 2 12.58, 1.73 12.25 C1.45 11.92, 1.2 11.56, 0.99 11.19 C0.78 10.81, 0.59 10.41, 0.45 10.01 C0.3 9.6, 0.19 9.18, 0.11 8.75 C0.04 8.33, 0 7.89, 0 7.46 C0 7.03, 0.04 6.59, 0.11 6.16 C0.19 5.74, 0.3 5.31, 0.45 4.91 C0.59 4.5, 0.78 4.1, 0.99 3.73 C1.2 3.36, 1.45 2.99, 1.73 2.66 C2 2.33, 2.31 2.02, 2.64 1.74 C2.97 1.47, 3.32 1.21, 3.69 1 C4.06 0.78, 4.46 0.6, 4.86 0.45 C5.26 0.3, 5.68 0.19, 6.1 0.11 C6.52 0.04, 6.96 0, 7.38 0 C7.81 0, 8.25 0.04, 8.67 0.11 C9.09 0.19, 9.51 0.3, 9.91 0.45 C10.31 0.6, 10.71 0.78, 11.08 1 C11.45 1.21, 11.8 1.47, 12.13 1.74 C12.46 2.02, 12.77 2.33, 13.04 2.66 C13.32 2.99, 13.57 3.36, 13.78 3.73 C13.99 4.1, 14.18 4.5, 14.32 4.91 C14.47 5.31, 14.58 5.74, 14.66 6.16 C14.73 6.59, 14.75 7.24, 14.77 7.46 C14.79 7.67, 14.79 7.24, 14.77 7.46" stroke="#000000" stroke-width="1" fill="none"></path></g><g stroke-linecap="round" transform="translate(194.8478239349696 105.87078972957954) rotate(0 1.7923284991638866 1.7048978406681101)"><path d="M3.58 1.7 C3.58 1.8, 3.58 1.9, 3.56 2 C3.54 2.1, 3.51 2.2, 3.48 2.29 C3.44 2.38, 3.4 2.47, 3.34 2.56 C3.29 2.64, 3.23 2.73, 3.17 2.8 C3.1 2.88, 3.02 2.95, 2.94 3.01 C2.86 3.07, 2.78 3.13, 2.69 3.18 C2.6 3.23, 2.5 3.27, 2.41 3.31 C2.31 3.34, 2.21 3.37, 2.1 3.38 C2 3.4, 1.9 3.41, 1.79 3.41 C1.69 3.41, 1.58 3.4, 1.48 3.38 C1.38 3.37, 1.28 3.34, 1.18 3.31 C1.08 3.27, 0.99 3.23, 0.9 3.18 C0.81 3.13, 0.72 3.07, 0.64 3.01 C0.56 2.95, 0.49 2.88, 0.42 2.8 C0.35 2.73, 0.29 2.64, 0.24 2.56 C0.19 2.47, 0.14 2.38, 0.11 2.29 C0.07 2.2, 0.05 2.1, 0.03 2 C0.01 1.9, 0 1.8, 0 1.7 C0 1.61, 0.01 1.51, 0.03 1.41 C0.05 1.31, 0.07 1.21, 0.11 1.12 C0.14 1.03, 0.19 0.94, 0.24 0.85 C0.29 0.77, 0.35 0.68, 0.42 0.61 C0.49 0.53, 0.56 0.46, 0.64 0.4 C0.72 0.34, 0.81 0.28, 0.9 0.23 C0.99 0.18, 1.08 0.14, 1.18 0.1 C1.28 0.07, 1.38 0.04, 1.48 0.03 C1.58 0.01, 1.69 0, 1.79 0 C1.9 0, 2 0.01, 2.1 0.03 C2.21 0.04, 2.31 0.07, 2.41 0.1 C2.5 0.14, 2.6 0.18, 2.69 0.23 C2.78 0.28, 2.86 0.34, 2.94 0.4 C3.02 0.46, 3.1 0.53, 3.17 0.61 C3.23 0.68, 3.29 0.77, 3.34 0.85 C3.4 0.94, 3.44 1.03, 3.48 1.12 C3.51 1.21, 3.54 1.31, 3.56 1.41 C3.58 1.51, 3.58 1.66, 3.58 1.7 C3.59 1.75, 3.59 1.66, 3.58 1.7" stroke="none" stroke-width="0" fill="#000000"></path><path d="M3.58 1.7 C3.58 1.8, 3.58 1.9, 3.56 2 C3.54 2.1, 3.51 2.2, 3.48 2.29 C3.44 2.38, 3.4 2.47, 3.34 2.56 C3.29 2.64, 3.23 2.73, 3.17 2.8 C3.1 2.88, 3.02 2.95, 2.94 3.01 C2.86 3.07, 2.78 3.13, 2.69 3.18 C2.6 3.23, 2.5 3.27, 2.41 3.31 C2.31 3.34, 2.21 3.37, 2.1 3.38 C2 3.4, 1.9 3.41, 1.79 3.41 C1.69 3.41, 1.58 3.4, 1.48 3.38 C1.38 3.37, 1.28 3.34, 1.18 3.31 C1.08 3.27, 0.99 3.23, 0.9 3.18 C0.81 3.13, 0.72 3.07, 0.64 3.01 C0.56 2.95, 0.49 2.88, 0.42 2.8 C0.35 2.73, 0.29 2.64, 0.24 2.56 C0.19 2.47, 0.14 2.38, 0.11 2.29 C0.07 2.2, 0.05 2.1, 0.03 2 C0.01 1.9, 0 1.8, 0 1.7 C0 1.61, 0.01 1.51, 0.03 1.41 C0.05 1.31, 0.07 1.21, 0.11 1.12 C0.14 1.03, 0.19 0.94, 0.24 0.85 C0.29 0.77, 0.35 0.68, 0.42 0.61 C0.49 0.53, 0.56 0.46, 0.64 0.4 C0.72 0.34, 0.81 0.28, 0.9 0.23 C0.99 0.18, 1.08 0.14, 1.18 0.1 C1.28 0.07, 1.38 0.04, 1.48 0.03 C1.58 0.01, 1.69 0, 1.79 0 C1.9 0, 2 0.01, 2.1 0.03 C2.21 0.04, 2.31 0.07, 2.41 0.1 C2.5 0.14, 2.6 0.18, 2.69 0.23 C2.78 0.28, 2.86 0.34, 2.94 0.4 C3.02 0.46, 3.1 0.53, 3.17 0.61 C3.23 0.68, 3.29 0.77, 3.34 0.85 C3.4 0.94, 3.44 1.03, 3.48 1.12 C3.51 1.21, 3.54 1.31, 3.56 1.41 C3.58 1.51, 3.58 1.66, 3.58 1.7 C3.59 1.75, 3.59 1.66, 3.58 1.7" stroke="#000000" stroke-width="1" fill="none"></path></g><g stroke-linecap="round" transform="translate(195.72213051992742 106.65766565604173) rotate(0 0.34972263398321957 0.43715329247899604)"><path d="M0.7 0.44 C0.7 0.46, 0.7 0.49, 0.69 0.51 C0.69 0.54, 0.69 0.56, 0.68 0.59 C0.67 0.61, 0.66 0.63, 0.65 0.66 C0.64 0.68, 0.63 0.7, 0.62 0.72 C0.6 0.74, 0.59 0.76, 0.57 0.77 C0.56 0.79, 0.54 0.8, 0.52 0.82 C0.51 0.83, 0.49 0.84, 0.47 0.85 C0.45 0.86, 0.43 0.86, 0.41 0.87 C0.39 0.87, 0.37 0.87, 0.35 0.87 C0.33 0.87, 0.31 0.87, 0.29 0.87 C0.27 0.86, 0.25 0.86, 0.23 0.85 C0.21 0.84, 0.19 0.83, 0.17 0.82 C0.16 0.8, 0.14 0.79, 0.12 0.77 C0.11 0.76, 0.09 0.74, 0.08 0.72 C0.07 0.7, 0.06 0.68, 0.05 0.66 C0.04 0.63, 0.03 0.61, 0.02 0.59 C0.01 0.56, 0.01 0.54, 0.01 0.51 C0 0.49, 0 0.46, 0 0.44 C0 0.41, 0 0.39, 0.01 0.36 C0.01 0.34, 0.01 0.31, 0.02 0.29 C0.03 0.26, 0.04 0.24, 0.05 0.22 C0.06 0.2, 0.07 0.18, 0.08 0.16 C0.09 0.14, 0.11 0.12, 0.12 0.1 C0.14 0.09, 0.16 0.07, 0.17 0.06 C0.19 0.05, 0.21 0.04, 0.23 0.03 C0.25 0.02, 0.27 0.01, 0.29 0.01 C0.31 0, 0.33 0, 0.35 0 C0.37 0, 0.39 0, 0.41 0.01 C0.43 0.01, 0.45 0.02, 0.47 0.03 C0.49 0.04, 0.51 0.05, 0.52 0.06 C0.54 0.07, 0.56 0.09, 0.57 0.1 C0.59 0.12, 0.6 0.14, 0.62 0.16 C0.63 0.18, 0.64 0.2, 0.65 0.22 C0.66 0.24, 0.67 0.26, 0.68 0.29 C0.69 0.31, 0.69 0.34, 0.69 0.36 C0.7 0.39, 0.7 0.42, 0.7 0.44 C0.7 0.45, 0.7 0.42, 0.7 0.44" stroke="none" stroke-width="0" fill="#ffffff"></path><path d="M0.7 0.44 C0.7 0.46, 0.7 0.49, 0.69 0.51 C0.69 0.54, 0.69 0.56, 0.68 0.59 C0.67 0.61, 0.66 0.63, 0.65 0.66 C0.64 0.68, 0.63 0.7, 0.62 0.72 C0.6 0.74, 0.59 0.76, 0.57 0.77 C0.56 0.79, 0.54 0.8, 0.52 0.82 C0.51 0.83, 0.49 0.84, 0.47 0.85 C0.45 0.86, 0.43 0.86, 0.41 0.87 C0.39 0.87, 0.37 0.87, 0.35 0.87 C0.33 0.87, 0.31 0.87, 0.29 0.87 C0.27 0.86, 0.25 0.86, 0.23 0.85 C0.21 0.84, 0.19 0.83, 0.17 0.82 C0.16 0.8, 0.14 0.79, 0.12 0.77 C0.11 0.76, 0.09 0.74, 0.08 0.72 C0.07 0.7, 0.06 0.68, 0.05 0.66 C0.04 0.63, 0.03 0.61, 0.02 0.59 C0.01 0.56, 0.01 0.54, 0.01 0.51 C0 0.49, 0 0.46, 0 0.44 C0 0.41, 0 0.39, 0.01 0.36 C0.01 0.34, 0.01 0.31, 0.02 0.29 C0.03 0.26, 0.04 0.24, 0.05 0.22 C0.06 0.2, 0.07 0.18, 0.08 0.16 C0.09 0.14, 0.11 0.12, 0.12 0.1 C0.14 0.09, 0.16 0.07, 0.17 0.06 C0.19 0.05, 0.21 0.04, 0.23 0.03 C0.25 0.02, 0.27 0.01, 0.29 0.01 C0.31 0, 0.33 0, 0.35 0 C0.37 0, 0.39 0, 0.41 0.01 C0.43 0.01, 0.45 0.02, 0.47 0.03 C0.49 0.04, 0.51 0.05, 0.52 0.06 C0.54 0.07, 0.56 0.09, 0.57 0.1 C0.59 0.12, 0.6 0.14, 0.62 0.16 C0.63 0.18, 0.64 0.2, 0.65 0.22 C0.66 0.24, 0.67 0.26, 0.68 0.29 C0.69 0.31, 0.69 0.34, 0.69 0.36 C0.7 0.39, 0.7 0.42, 0.7 0.44 C0.7 0.45, 0.7 0.42, 0.7 0.44" stroke="#ffffff" stroke-width="1" fill="none"></path></g><g stroke-linecap="round" transform="translate(216.00137557801486 105.11770876403216) rotate(0 1.4915423689831186 1.4187842046424635)"><path d="M2.98 1.42 C2.98 1.5, 2.98 1.58, 2.96 1.67 C2.95 1.75, 2.92 1.83, 2.89 1.9 C2.86 1.98, 2.83 2.06, 2.78 2.13 C2.74 2.2, 2.69 2.27, 2.63 2.33 C2.58 2.39, 2.52 2.45, 2.45 2.51 C2.38 2.56, 2.31 2.61, 2.24 2.65 C2.16 2.69, 2.08 2.72, 2 2.75 C1.92 2.78, 1.84 2.8, 1.75 2.82 C1.67 2.83, 1.58 2.84, 1.49 2.84 C1.41 2.84, 1.32 2.83, 1.23 2.82 C1.15 2.8, 1.06 2.78, 0.98 2.75 C0.9 2.72, 0.82 2.69, 0.75 2.65 C0.67 2.61, 0.6 2.56, 0.53 2.51 C0.47 2.45, 0.4 2.39, 0.35 2.33 C0.29 2.27, 0.24 2.2, 0.2 2.13 C0.16 2.06, 0.12 1.98, 0.09 1.9 C0.06 1.83, 0.04 1.75, 0.02 1.67 C0.01 1.58, 0 1.5, 0 1.42 C0 1.34, 0.01 1.25, 0.02 1.17 C0.04 1.09, 0.06 1.01, 0.09 0.93 C0.12 0.86, 0.16 0.78, 0.2 0.71 C0.24 0.64, 0.29 0.57, 0.35 0.51 C0.4 0.44, 0.47 0.38, 0.53 0.33 C0.6 0.28, 0.67 0.23, 0.75 0.19 C0.82 0.15, 0.9 0.11, 0.98 0.09 C1.06 0.06, 1.15 0.04, 1.23 0.02 C1.32 0.01, 1.41 0, 1.49 0 C1.58 0, 1.67 0.01, 1.75 0.02 C1.84 0.04, 1.92 0.06, 2 0.09 C2.08 0.11, 2.16 0.15, 2.24 0.19 C2.31 0.23, 2.38 0.28, 2.45 0.33 C2.52 0.38, 2.58 0.44, 2.63 0.51 C2.69 0.57, 2.74 0.64, 2.78 0.71 C2.83 0.78, 2.86 0.86, 2.89 0.93 C2.92 1.01, 2.95 1.09, 2.96 1.17 C2.98 1.25, 2.98 1.38, 2.98 1.42 C2.99 1.46, 2.99 1.38, 2.98 1.42" stroke="none" stroke-width="0" fill="#000000"></path><path d="M2.98 1.42 C2.98 1.5, 2.98 1.58, 2.96 1.67 C2.95 1.75, 2.92 1.83, 2.89 1.9 C2.86 1.98, 2.83 2.06, 2.78 2.13 C2.74 2.2, 2.69 2.27, 2.63 2.33 C2.58 2.39, 2.52 2.45, 2.45 2.51 C2.38 2.56, 2.31 2.61, 2.24 2.65 C2.16 2.69, 2.08 2.72, 2 2.75 C1.92 2.78, 1.84 2.8, 1.75 2.82 C1.67 2.83, 1.58 2.84, 1.49 2.84 C1.41 2.84, 1.32 2.83, 1.23 2.82 C1.15 2.8, 1.06 2.78, 0.98 2.75 C0.9 2.72, 0.82 2.69, 0.75 2.65 C0.67 2.61, 0.6 2.56, 0.53 2.51 C0.47 2.45, 0.4 2.39, 0.35 2.33 C0.29 2.27, 0.24 2.2, 0.2 2.13 C0.16 2.06, 0.12 1.98, 0.09 1.9 C0.06 1.83, 0.04 1.75, 0.02 1.67 C0.01 1.58, 0 1.5, 0 1.42 C0 1.34, 0.01 1.25, 0.02 1.17 C0.04 1.09, 0.06 1.01, 0.09 0.93 C0.12 0.86, 0.16 0.78, 0.2 0.71 C0.24 0.64, 0.29 0.57, 0.35 0.51 C0.4 0.44, 0.47 0.38, 0.53 0.33 C0.6 0.28, 0.67 0.23, 0.75 0.19 C0.82 0.15, 0.9 0.11, 0.98 0.09 C1.06 0.06, 1.15 0.04, 1.23 0.02 C1.32 0.01, 1.41 0, 1.49 0 C1.58 0, 1.67 0.01, 1.75 0.02 C1.84 0.04, 1.92 0.06, 2 0.09 C2.08 0.11, 2.16 0.15, 2.24 0.19 C2.31 0.23, 2.38 0.28, 2.45 0.33 C2.52 0.38, 2.58 0.44, 2.63 0.51 C2.69 0.57, 2.74 0.64, 2.78 0.71 C2.83 0.78, 2.86 0.86, 2.89 0.93 C2.92 1.01, 2.95 1.09, 2.96 1.17 C2.98 1.25, 2.98 1.38, 2.98 1.42 C2.99 1.46, 2.99 1.38, 2.98 1.42" stroke="#000000" stroke-width="1" fill="none"></path></g><g stroke-linecap="round" transform="translate(216.72895722142118 105.33598325705412) rotate(0 0.2910326573625639 0.36379082170319066)"><path d="M0.58 0.36 C0.58 0.38, 0.58 0.41, 0.58 0.43 C0.57 0.45, 0.57 0.47, 0.56 0.49 C0.56 0.51, 0.55 0.53, 0.54 0.55 C0.53 0.56, 0.52 0.58, 0.51 0.6 C0.5 0.61, 0.49 0.63, 0.48 0.64 C0.47 0.66, 0.45 0.67, 0.44 0.68 C0.42 0.69, 0.41 0.7, 0.39 0.71 C0.37 0.71, 0.36 0.72, 0.34 0.72 C0.32 0.73, 0.31 0.73, 0.29 0.73 C0.27 0.73, 0.26 0.73, 0.24 0.72 C0.22 0.72, 0.21 0.71, 0.19 0.71 C0.18 0.7, 0.16 0.69, 0.15 0.68 C0.13 0.67, 0.12 0.66, 0.1 0.64 C0.09 0.63, 0.08 0.61, 0.07 0.6 C0.06 0.58, 0.05 0.56, 0.04 0.55 C0.03 0.53, 0.02 0.51, 0.02 0.49 C0.01 0.47, 0.01 0.45, 0 0.43 C0 0.41, 0 0.38, 0 0.36 C0 0.34, 0 0.32, 0 0.3 C0.01 0.28, 0.01 0.26, 0.02 0.24 C0.02 0.22, 0.03 0.2, 0.04 0.18 C0.05 0.16, 0.06 0.15, 0.07 0.13 C0.08 0.11, 0.09 0.1, 0.1 0.09 C0.12 0.07, 0.13 0.06, 0.15 0.05 C0.16 0.04, 0.18 0.03, 0.19 0.02 C0.21 0.01, 0.22 0.01, 0.24 0.01 C0.26 0, 0.27 0, 0.29 0 C0.31 0, 0.32 0, 0.34 0.01 C0.36 0.01, 0.37 0.01, 0.39 0.02 C0.41 0.03, 0.42 0.04, 0.44 0.05 C0.45 0.06, 0.47 0.07, 0.48 0.09 C0.49 0.1, 0.5 0.11, 0.51 0.13 C0.52 0.15, 0.53 0.16, 0.54 0.18 C0.55 0.2, 0.56 0.22, 0.56 0.24 C0.57 0.26, 0.57 0.28, 0.58 0.3 C0.58 0.32, 0.58 0.35, 0.58 0.36 C0.58 0.37, 0.58 0.35, 0.58 0.36" stroke="none" stroke-width="0" fill="#ffffff"></path><path d="M0.58 0.36 C0.58 0.38, 0.58 0.41, 0.58 0.43 C0.57 0.45, 0.57 0.47, 0.56 0.49 C0.56 0.51, 0.55 0.53, 0.54 0.55 C0.53 0.56, 0.52 0.58, 0.51 0.6 C0.5 0.61, 0.49 0.63, 0.48 0.64 C0.47 0.66, 0.45 0.67, 0.44 0.68 C0.42 0.69, 0.41 0.7, 0.39 0.71 C0.37 0.71, 0.36 0.72, 0.34 0.72 C0.32 0.73, 0.31 0.73, 0.29 0.73 C0.27 0.73, 0.26 0.73, 0.24 0.72 C0.22 0.72, 0.21 0.71, 0.19 0.71 C0.18 0.7, 0.16 0.69, 0.15 0.68 C0.13 0.67, 0.12 0.66, 0.1 0.64 C0.09 0.63, 0.08 0.61, 0.07 0.6 C0.06 0.58, 0.05 0.56, 0.04 0.55 C0.03 0.53, 0.02 0.51, 0.02 0.49 C0.01 0.47, 0.01 0.45, 0 0.43 C0 0.41, 0 0.38, 0 0.36 C0 0.34, 0 0.32, 0 0.3 C0.01 0.28, 0.01 0.26, 0.02 0.24 C0.02 0.22, 0.03 0.2, 0.04 0.18 C0.05 0.16, 0.06 0.15, 0.07 0.13 C0.08 0.11, 0.09 0.1, 0.1 0.09 C0.12 0.07, 0.13 0.06, 0.15 0.05 C0.16 0.04, 0.18 0.03, 0.19 0.02 C0.21 0.01, 0.22 0.01, 0.24 0.01 C0.26 0, 0.27 0, 0.29 0 C0.31 0, 0.32 0, 0.34 0.01 C0.36 0.01, 0.37 0.01, 0.39 0.02 C0.41 0.03, 0.42 0.04, 0.44 0.05 C0.45 0.06, 0.47 0.07, 0.48 0.09 C0.49 0.1, 0.5 0.11, 0.51 0.13 C0.52 0.15, 0.53 0.16, 0.54 0.18 C0.55 0.2, 0.56 0.22, 0.56 0.24 C0.57 0.26, 0.57 0.28, 0.58 0.3 C0.58 0.32, 0.58 0.35, 0.58 0.36 C0.58 0.37, 0.58 0.35, 0.58 0.36" stroke="#ffffff" stroke-width="1" fill="none"></path></g><g stroke-linecap="round"><g transform="translate(202.63579084878813 116.43404868636742) rotate(354.3524280434069 3.429244343518178 -0.9256727436940935)" fill-rule="evenodd"><path d="M0 0 L1.28 -2.45 L3.3 -2.78 L5 -2.59 L6.87 -0.63 L6.4 0.46 L1.58 0.93 L0.02 0.08" stroke="none" stroke-width="0" fill="#ccbdac" fill-rule="evenodd"></path><path d="M0 0 C0.02 -0.19, -0.09 -0.72, 0.12 -1.13 C0.34 -1.54, 0.75 -2.17, 1.28 -2.45 C1.81 -2.72, 2.68 -2.75, 3.3 -2.78 C3.92 -2.8, 4.46 -2.79, 5 -2.59 C5.53 -2.4, 6.21 -1.92, 6.52 -1.59 C6.83 -1.27, 6.89 -0.97, 6.87 -0.63 C6.84 -0.28, 6.96 0.28, 6.4 0.46 C5.84 0.64, 4.3 0.38, 3.5 0.46 C2.69 0.54, 2.09 0.9, 1.58 0.93 C1.07 0.97, 0.71 0.81, 0.45 0.67 C0.19 0.53, 0.09 0.18, 0.02 0.08 M0 0 C0.02 -0.19, -0.09 -0.72, 0.12 -1.13 C0.34 -1.54, 0.75 -2.17, 1.28 -2.45 C1.81 -2.72, 2.68 -2.75, 3.3 -2.78 C3.92 -2.8, 4.46 -2.79, 5 -2.59 C5.53 -2.4, 6.21 -1.92, 6.52 -1.59 C6.83 -1.27, 6.89 -0.97, 6.87 -0.63 C6.84 -0.28, 6.96 0.28, 6.4 0.46 C5.84 0.64, 4.3 0.38, 3.5 0.46 C2.69 0.54, 2.09 0.9, 1.58 0.93 C1.07 0.97, 0.71 0.81, 0.45 0.67 C0.19 0.53, 0.09 0.18, 0.02 0.08" stroke="#000000" stroke-width="1" fill="none"></path></g></g><g stroke-linecap="round"><g transform="translate(205.45218870365886 117.1729269793758) rotate(354.3524280434069 -0.8621501300988257 -1.365879970840922)" fill-rule="evenodd"><path d="M0 0 L-1.47 -0.43 L-1.67 -1.22 L0.84 -2.01 L-0.26 -3.02 L-1.43 -2.84 L-2.45 -1.76 L-2.47 -0.35 L-1.55 0.34 L0 0" stroke="none" stroke-width="0" fill="#958b7f" fill-rule="evenodd"></path><path d="M0 0 C-0.05 -0.01, -0.04 0.02, -0.29 -0.06 C-0.53 -0.13, -1.24 -0.23, -1.47 -0.43 C-1.7 -0.62, -1.76 -0.99, -1.67 -1.22 C-1.58 -1.44, -1.33 -1.65, -0.91 -1.78 C-0.49 -1.91, 0.74 -1.8, 0.84 -2.01 C0.95 -2.21, 0.12 -2.88, -0.26 -3.02 C-0.64 -3.16, -1.12 -2.96, -1.43 -2.84 C-1.74 -2.71, -1.95 -2.44, -2.12 -2.26 C-2.29 -2.08, -2.38 -1.95, -2.45 -1.76 C-2.53 -1.57, -2.57 -1.34, -2.58 -1.1 C-2.58 -0.87, -2.56 -0.55, -2.47 -0.35 C-2.39 -0.14, -2.21 0.02, -2.06 0.13 C-1.91 0.25, -1.79 0.33, -1.55 0.34 C-1.32 0.34, -0.9 0.23, -0.64 0.17 C-0.38 0.12, -0.11 0.03, 0 0 M0 0 C-0.05 -0.01, -0.04 0.02, -0.29 -0.06 C-0.53 -0.13, -1.24 -0.23, -1.47 -0.43 C-1.7 -0.62, -1.76 -0.99, -1.67 -1.22 C-1.58 -1.44, -1.33 -1.65, -0.91 -1.78 C-0.49 -1.91, 0.74 -1.8, 0.84 -2.01 C0.95 -2.21, 0.12 -2.88, -0.26 -3.02 C-0.64 -3.16, -1.12 -2.96, -1.43 -2.84 C-1.74 -2.71, -1.95 -2.44, -2.12 -2.26 C-2.29 -2.08, -2.38 -1.95, -2.45 -1.76 C-2.53 -1.57, -2.57 -1.34, -2.58 -1.1 C-2.58 -0.87, -2.56 -0.55, -2.47 -0.35 C-2.39 -0.14, -2.21 0.02, -2.06 0.13 C-1.91 0.25, -1.79 0.33, -1.55 0.34 C-1.32 0.34, -0.9 0.23, -0.64 0.17 C-0.38 0.12, -0.11 0.03, 0 0" stroke="#958b7f" stroke-width="1" fill="none"></path></g></g><g stroke-linecap="round"><g transform="translate(202.60358627623884 116.43327642410543) rotate(354.3524280434069 3.458747993574036 -0.9337185734847253)"><path d="M0 0 C0.03 -0.19, -0.07 -0.73, 0.15 -1.14 C0.37 -1.55, 0.78 -2.18, 1.31 -2.46 C1.83 -2.73, 2.71 -2.76, 3.33 -2.79 C3.95 -2.81, 4.51 -2.78, 5.03 -2.6 C5.54 -2.43, 6.13 -2.05, 6.44 -1.74 C6.74 -1.44, 6.82 -1.12, 6.84 -0.77 C6.86 -0.42, 7.11 0.16, 6.56 0.37 C6.01 0.57, 4.35 0.36, 3.53 0.45 C2.7 0.54, 2.12 0.89, 1.61 0.92 C1.1 0.96, 0.75 0.81, 0.48 0.66 C0.21 0.5, 0.08 0.11, 0 0 M0 0 C0.03 -0.19, -0.07 -0.73, 0.15 -1.14 C0.37 -1.55, 0.78 -2.18, 1.31 -2.46 C1.83 -2.73, 2.71 -2.76, 3.33 -2.79 C3.95 -2.81, 4.51 -2.78, 5.03 -2.6 C5.54 -2.43, 6.13 -2.05, 6.44 -1.74 C6.74 -1.44, 6.82 -1.12, 6.84 -0.77 C6.86 -0.42, 7.11 0.16, 6.56 0.37 C6.01 0.57, 4.35 0.36, 3.53 0.45 C2.7 0.54, 2.12 0.89, 1.61 0.92 C1.1 0.96, 0.75 0.81, 0.48 0.66 C0.21 0.5, 0.08 0.11, 0 0" stroke="#000000" stroke-width="1" fill="none"></path></g></g><g stroke-linecap="round"><g transform="translate(203.4640182485656 113.32503048234759) rotate(354.3524280434069 2.379112162706747 0.1142683831447755)" fill-rule="evenodd"><path d="M0 0 L0.89 -1.21 L4.72 -0.71 L4.45 0.56 L2.77 1.62 L1 1.2 L0 0" stroke="none" stroke-width="0" fill="#595755" fill-rule="evenodd"></path><path d="M0 0 C0.01 -0.11, -0.09 -0.48, 0.06 -0.68 C0.2 -0.88, 0.5 -1.09, 0.89 -1.21 C1.27 -1.34, 1.91 -1.4, 2.36 -1.41 C2.82 -1.42, 3.21 -1.42, 3.6 -1.3 C4 -1.18, 4.58 -1.02, 4.72 -0.71 C4.86 -0.4, 4.77 0.17, 4.45 0.56 C4.12 0.95, 3.35 1.52, 2.77 1.62 C2.2 1.73, 1.42 1.38, 1 1.2 C0.58 1.01, 0.43 0.72, 0.26 0.52 C0.09 0.32, 0.04 0.09, 0 0 M0 0 C0.01 -0.11, -0.09 -0.48, 0.06 -0.68 C0.2 -0.88, 0.5 -1.09, 0.89 -1.21 C1.27 -1.34, 1.91 -1.4, 2.36 -1.41 C2.82 -1.42, 3.21 -1.42, 3.6 -1.3 C4 -1.18, 4.58 -1.02, 4.72 -0.71 C4.86 -0.4, 4.77 0.17, 4.45 0.56 C4.12 0.95, 3.35 1.52, 2.77 1.62 C2.2 1.73, 1.42 1.38, 1 1.2 C0.58 1.01, 0.43 0.72, 0.26 0.52 C0.09 0.32, 0.04 0.09, 0 0" stroke="#000000" stroke-width="1" fill="none"></path></g></g><g stroke-linecap="round"><g transform="translate(206.4143274513291 114.90861952126511) rotate(354.3524280434069 -1.450012123955446 -1.3961021559096594)" fill-rule="evenodd"><path d="M0 0 L-1.95 -1.19 L-0.58 -2.87 L-2.43 -2.48 L-2.55 -0.82 L-0.53 0.09" stroke="none" stroke-width="0" fill="#454342" fill-rule="evenodd"></path><path d="M0 0 C-0.1 -0.02, -0.39 -0.01, -0.62 -0.1 C-0.85 -0.19, -1.18 -0.36, -1.4 -0.54 C-1.62 -0.72, -1.86 -0.96, -1.95 -1.19 C-2.04 -1.41, -2.03 -1.68, -1.93 -1.89 C-1.82 -2.1, -1.55 -2.3, -1.33 -2.47 C-1.1 -2.63, -0.52 -2.82, -0.58 -2.87 C-0.64 -2.91, -1.38 -2.8, -1.68 -2.74 C-1.99 -2.67, -2.25 -2.61, -2.43 -2.48 C-2.61 -2.36, -2.69 -2.18, -2.77 -1.98 C-2.84 -1.79, -2.93 -1.52, -2.89 -1.33 C-2.86 -1.13, -2.68 -0.96, -2.55 -0.82 C-2.42 -0.68, -2.28 -0.57, -2.14 -0.47 C-2 -0.37, -1.89 -0.29, -1.71 -0.22 C-1.54 -0.15, -1.27 -0.1, -1.07 -0.05 C-0.88 0, -0.62 0.06, -0.53 0.09 M0 0 C-0.1 -0.02, -0.39 -0.01, -0.62 -0.1 C-0.85 -0.19, -1.18 -0.36, -1.4 -0.54 C-1.62 -0.72, -1.86 -0.96, -1.95 -1.19 C-2.04 -1.41, -2.03 -1.68, -1.93 -1.89 C-1.82 -2.1, -1.55 -2.3, -1.33 -2.47 C-1.1 -2.63, -0.52 -2.82, -0.58 -2.87 C-0.64 -2.91, -1.38 -2.8, -1.68 -2.74 C-1.99 -2.67, -2.25 -2.61, -2.43 -2.48 C-2.61 -2.36, -2.69 -2.18, -2.77 -1.98 C-2.84 -1.79, -2.93 -1.52, -2.89 -1.33 C-2.86 -1.13, -2.68 -0.96, -2.55 -0.82 C-2.42 -0.68, -2.28 -0.57, -2.14 -0.47 C-2 -0.37, -1.89 -0.29, -1.71 -0.22 C-1.54 -0.15, -1.27 -0.1, -1.07 -0.05 C-0.88 0, -0.62 0.06, -0.53 0.09" stroke="#454342" stroke-width="1" fill="none"></path></g></g><g stroke-linecap="round"><g transform="translate(203.4540877234648 113.32023329105215) rotate(354.3524280434069 2.3898115701580878 0.09084816172827459)"><path d="M0 0 C0.01 -0.11, -0.09 -0.48, 0.06 -0.68 C0.2 -0.88, 0.5 -1.09, 0.89 -1.21 C1.27 -1.34, 1.91 -1.4, 2.36 -1.41 C2.82 -1.42, 3.21 -1.42, 3.6 -1.3 C4 -1.18, 4.57 -1, 4.72 -0.71 C4.87 -0.41, 4.83 0.09, 4.52 0.47 C4.21 0.85, 3.43 1.45, 2.84 1.57 C2.26 1.69, 1.43 1.37, 1 1.2 C0.57 1.02, 0.43 0.72, 0.26 0.52 C0.09 0.32, 0.04 0.09, 0 0 M0 0 C0.01 -0.11, -0.09 -0.48, 0.06 -0.68 C0.2 -0.88, 0.5 -1.09, 0.89 -1.21 C1.27 -1.34, 1.91 -1.4, 2.36 -1.41 C2.82 -1.42, 3.21 -1.42, 3.6 -1.3 C4 -1.18, 4.57 -1, 4.72 -0.71 C4.87 -0.41, 4.83 0.09, 4.52 0.47 C4.21 0.85, 3.43 1.45, 2.84 1.57 C2.26 1.69, 1.43 1.37, 1 1.2 C0.57 1.02, 0.43 0.72, 0.26 0.52 C0.09 0.32, 0.04 0.09, 0 0" stroke="#000000" stroke-width="1" fill="none"></path></g></g><g stroke-linecap="round"><g transform="translate(207.12479626538993 112.42487500986772) rotate(354.3524280434069 0.2141791915460658 0.393501073377422)" fill-rule="evenodd"><path d="" stroke="none" stroke-width="0" fill="#454342" fill-rule="evenodd"></path><path d="M0 0 C0.07 0.06, 0.38 0.22, 0.42 0.35 C0.47 0.48, 0.3 0.71, 0.27 0.79 M0 0 C0.07 0.06, 0.38 0.22, 0.42 0.35 C0.47 0.48, 0.3 0.71, 0.27 0.79" stroke="#000000" stroke-width="1" fill="none"></path></g></g><g stroke-linecap="round"><g transform="translate(205.04567210137566 117.37243475352375) rotate(354.3524280434069 0.014695595697276076 0.6466062106813695)"><path d="M0 0 C0 0.22, 0.02 1.08, 0.03 1.29 M0 0 C0 0.22, 0.02 1.08, 0.03 1.29" stroke="#000000" stroke-width="1" fill="none"></path></g></g><g stroke-linecap="round"><g transform="translate(205.03930583415797 118.33300208385225) rotate(354.3524280434069 1.5582474735416554 -0.292107568435938)" fill-rule="evenodd"><path d="M0 0 L0.25 0.8 L2.26 0.87 L3.08 0.48 L3.14 -1.33 L-0.01 -1.08 L0 0" stroke="none" stroke-width="0" fill="#ffffff" fill-rule="evenodd"></path><path d="M0 0 C0.04 0.13, 0.05 0.64, 0.25 0.8 C0.46 0.96, 0.89 0.95, 1.23 0.96 C1.56 0.97, 1.96 0.95, 2.26 0.87 C2.57 0.79, 2.92 0.7, 3.08 0.48 C3.24 0.27, 3.22 -0.12, 3.23 -0.42 C3.24 -0.72, 3.25 -1.15, 3.14 -1.33 C3.03 -1.5, 2.87 -1.43, 2.58 -1.47 C2.3 -1.5, 1.86 -1.59, 1.43 -1.52 C0.99 -1.46, 0.22 -1.34, -0.01 -1.08 C-0.25 -0.83, 0 -0.18, 0 0 M0 0 C0.04 0.13, 0.05 0.64, 0.25 0.8 C0.46 0.96, 0.89 0.95, 1.23 0.96 C1.56 0.97, 1.96 0.95, 2.26 0.87 C2.57 0.79, 2.92 0.7, 3.08 0.48 C3.24 0.27, 3.22 -0.12, 3.23 -0.42 C3.24 -0.72, 3.25 -1.15, 3.14 -1.33 C3.03 -1.5, 2.87 -1.43, 2.58 -1.47 C2.3 -1.5, 1.86 -1.59, 1.43 -1.52 C0.99 -1.46, 0.22 -1.34, -0.01 -1.08 C-0.25 -0.83, 0 -0.18, 0 0" stroke="#000000" stroke-width="1" fill="none"></path></g></g><g stroke-linecap="round"><g transform="translate(206.7313115587565 117.02138845785754) rotate(354.3524280434069 0.03535957503601139 1.102169677297809)" fill-rule="evenodd"><path d="" stroke="none" stroke-width="0" fill="#ffffff" fill-rule="evenodd"></path><path d="M0 0 C0.01 0.16, 0.06 0.61, 0.07 0.98 C0.08 1.35, 0.06 2, 0.06 2.2 M0 0 C0.01 0.16, 0.06 0.61, 0.07 0.98 C0.08 1.35, 0.06 2, 0.06 2.2" stroke="#000000" stroke-width="1" fill="none"></path></g></g><g stroke-linecap="round"><g transform="translate(186.42985571186364 96.37377402956793) rotate(352.10971498794663 -2.4588807709453704 -0.21298878273665878)" fill-rule="evenodd"><path d="M0 0 L-3.54 2.17 L-4.91 -0.53 L-4.44 -1.98 L-2.67 -2.68 L0 0" stroke="none" stroke-width="0" fill="#bcdec2" fill-rule="evenodd"></path><path d="M0 0 C-0.49 0.32, -2.34 1.58, -2.93 1.95 C-3.52 2.31, -3.32 2.34, -3.54 2.17 C-3.76 2.01, -4.03 1.4, -4.26 0.95 C-4.49 0.5, -4.88 -0.04, -4.91 -0.53 C-4.94 -1.02, -4.82 -1.62, -4.44 -1.98 C-4.07 -2.34, -3.26 -2.8, -2.67 -2.68 C-2.07 -2.56, -1.3 -1.71, -0.86 -1.26 C-0.41 -0.82, -0.14 -0.21, 0 0 M0 0 C-0.49 0.32, -2.34 1.58, -2.93 1.95 C-3.52 2.31, -3.32 2.34, -3.54 2.17 C-3.76 2.01, -4.03 1.4, -4.26 0.95 C-4.49 0.5, -4.88 -0.04, -4.91 -0.53 C-4.94 -1.02, -4.82 -1.62, -4.44 -1.98 C-4.07 -2.34, -3.26 -2.8, -2.67 -2.68 C-2.07 -2.56, -1.3 -1.71, -0.86 -1.26 C-0.41 -0.82, -0.14 -0.21, 0 0" stroke="#bcdec2" stroke-width="1" fill="none"></path></g></g><g stroke-linecap="round"><g transform="translate(184.61574794504588 97.5446536060548) rotate(338.63165034724796 -0.6716717493183069 -0.5970415549496124)"><path d="M0 0 C-0.05 -0.13, -0.1 -0.57, -0.32 -0.77 C-0.55 -0.97, -1.17 -1.12, -1.34 -1.19 M0 0 C-0.05 -0.13, -0.1 -0.57, -0.32 -0.77 C-0.55 -0.97, -1.17 -1.12, -1.34 -1.19" stroke="#000000" stroke-width="1" fill="none"></path></g></g><g stroke-linecap="round"><g transform="translate(184.41127557212724 97.32402456926741) rotate(338.63165034724796 -0.06308802224634746 -1.0821028923097913)"><path d="M0 0 C-0.02 -0.15, -0.11 -0.56, -0.12 -0.92 C-0.14 -1.28, -0.08 -1.96, -0.07 -2.16 M0 0 C-0.02 -0.15, -0.11 -0.56, -0.12 -0.92 C-0.14 -1.28, -0.08 -1.96, -0.07 -2.16" stroke="#000000" stroke-width="1" fill="none"></path></g></g><g stroke-linecap="round"><g transform="translate(182.94522824646276 98.66529435983648) rotate(352.10971498794663 1.0515284236243474 -2.512646820083887)" fill-rule="evenodd"><path d="M0 0 L-1.44 -2.86 L-0.97 -4.31 L0.81 -5.01 L3.54 -2.32" stroke="none" stroke-width="0" fill="#bcdec2" fill-rule="evenodd"></path><path d="M0 0 C-0.13 -0.22, -0.57 -0.84, -0.81 -1.31 C-1.05 -1.79, -1.41 -2.36, -1.44 -2.86 C-1.46 -3.36, -1.34 -3.95, -0.97 -4.31 C-0.59 -4.67, 0.21 -5.13, 0.81 -5.01 C1.41 -4.89, 2.16 -4.04, 2.62 -3.59 C3.07 -3.14, 3.39 -2.53, 3.54 -2.32 M0 0 C-0.13 -0.22, -0.57 -0.84, -0.81 -1.31 C-1.05 -1.79, -1.41 -2.36, -1.44 -2.86 C-1.46 -3.36, -1.34 -3.95, -0.97 -4.31 C-0.59 -4.67, 0.21 -5.13, 0.81 -5.01 C1.41 -4.89, 2.16 -4.04, 2.62 -3.59 C3.07 -3.14, 3.39 -2.53, 3.54 -2.32" stroke="#000000" stroke-width="1" fill="none"></path></g></g><g stroke-linecap="round"><g transform="translate(185.74886245508776 127.58473561092052) rotate(4.746031570543487 1.2643735925191208 -0.0634482235520295)" fill-rule="evenodd"><path d="M0 0 L2 2.22 L3.18 1.46 L0.65 -2.32 L-0.65 -1.43 L0 0" stroke="none" stroke-width="0" fill="#ffffff" fill-rule="evenodd"></path><path d="M0 0 C0.13 0.18, 0.46 0.68, 0.79 1.05 C1.13 1.42, 1.6 2.15, 2 2.22 C2.4 2.29, 3.1 1.81, 3.18 1.46 C3.26 1.11, 2.74 0.56, 2.49 0.11 C2.23 -0.34, 1.93 -0.83, 1.62 -1.24 C1.32 -1.64, 0.97 -2.2, 0.65 -2.32 C0.33 -2.45, -0.08 -2.13, -0.3 -1.98 C-0.51 -1.83, -0.61 -1.62, -0.65 -1.43 C-0.68 -1.24, -0.62 -1.09, -0.51 -0.86 C-0.41 -0.62, -0.09 -0.14, 0 0 M0 0 C0.13 0.18, 0.46 0.68, 0.79 1.05 C1.13 1.42, 1.6 2.15, 2 2.22 C2.4 2.29, 3.1 1.81, 3.18 1.46 C3.26 1.11, 2.74 0.56, 2.49 0.11 C2.23 -0.34, 1.93 -0.83, 1.62 -1.24 C1.32 -1.64, 0.97 -2.2, 0.65 -2.32 C0.33 -2.45, -0.08 -2.13, -0.3 -1.98 C-0.51 -1.83, -0.61 -1.62, -0.65 -1.43 C-0.68 -1.24, -0.62 -1.09, -0.51 -0.86 C-0.41 -0.62, -0.09 -0.14, 0 0" stroke="#000000" stroke-width="1" fill="none"></path></g></g><g stroke-linecap="round"><g transform="translate(185.86974752112667 153.08401442170668) rotate(41.461030233629415 1.553211895229424 -0.3684216975382668)" fill-rule="evenodd"><path d="M0 0 L2.05 1.82 L3.27 1.21 L3.47 -0.13 L0.97 -2.56 L-0.45 -1.08 L0 0" stroke="none" stroke-width="0" fill="#ffffff" fill-rule="evenodd"></path><path d="M0 0 C0.14 0.16, 0.5 0.66, 0.84 0.97 C1.18 1.27, 1.64 1.78, 2.05 1.82 C2.45 1.86, 3.03 1.54, 3.27 1.21 C3.5 0.89, 3.67 0.4, 3.47 -0.13 C3.27 -0.66, 2.46 -1.56, 2.05 -1.96 C1.63 -2.37, 1.31 -2.55, 0.97 -2.56 C0.62 -2.57, 0.24 -2.29, 0 -2.04 C-0.24 -1.8, -0.45 -1.42, -0.45 -1.08 C-0.45 -0.74, -0.08 -0.18, 0 0 M0 0 C0.14 0.16, 0.5 0.66, 0.84 0.97 C1.18 1.27, 1.64 1.78, 2.05 1.82 C2.45 1.86, 3.03 1.54, 3.27 1.21 C3.5 0.89, 3.67 0.4, 3.47 -0.13 C3.27 -0.66, 2.46 -1.56, 2.05 -1.96 C1.63 -2.37, 1.31 -2.55, 0.97 -2.56 C0.62 -2.57, 0.24 -2.29, 0 -2.04 C-0.24 -1.8, -0.45 -1.42, -0.45 -1.08 C-0.45 -0.74, -0.08 -0.18, 0 0" stroke="#000000" stroke-width="1" fill="none"></path></g></g><g transform="translate(10 10) rotate(0 195.1923076923078 104.28082191780825)"><text x="0" y="143.5616438356165" font-family="Helvetica, Segoe UI Emoji" font-size="173.8080712846393px" fill="#007d9c" text-anchor="start" style="white-space: pre;" direction="ltr">mq tt</text></g><g stroke-opacity="0.2" fill-opacity="0.2" transform="translate(252.72543907025647 20.93023615011191) rotate(0 30.271438386975547 95.8595548920893)"><text x="0" y="131.7191097841786" font-family="Helvetica, Segoe UI Emoji" font-size="161.447671397203px" fill="#007d9c" text-anchor="start" style="white-space: pre;" direction="ltr">/</text></g></svg>