<svg version="1.1" xmlns="http://www.w3.org/2000/svg" viewBox="0 0 919.8044804943396 477.90962236946393" width="919.8044804943396" height="477.90962236946393">
  <!-- svg-source:excalidraw -->
  
  <defs>
    <style class="style-fonts">
      @font-face {
        font-family: "Virgil";
        src: url("https://excalidraw.com/Virgil.woff2");
      }
      @font-face {
        font-family: "Cascadia";
        src: url("https://excalidraw.com/Cascadia.woff2");
      }
    </style>
  </defs>
  <g stroke-linecap="round" transform="translate(10 34.3346724650101) rotate(0 449.9022402471698 210.3828571060575)"><path d="M0 0 L899.8 0 L899.8 420.77 L0 420.77" stroke="none" stroke-width="0" fill="#ffffff"></path><path d="M0 0 C341.96 0, 683.92 0, 899.8 0 M0 0 C302.56 0, 605.12 0, 899.8 0 M899.8 0 C899.8 140.61, 899.8 281.23, 899.8 420.77 M899.8 0 C899.8 145.52, 899.8 291.05, 899.8 420.77 M899.8 420.77 C640.35 420.77, 380.89 420.77, 0 420.77 M899.8 420.77 C669.93 420.77, 440.06 420.77, 0 420.77 M0 420.77 C0 308.79, 0 196.81, 0 0 M0 420.77 C0 295.17, 0 169.58, 0 0" stroke="#ffffff" stroke-width="1" fill="none"></path></g><g stroke-linecap="round"><g transform="translate(510.28879816791294 313.7898650590612) rotate(0 3.3740998032575558 -0.5700841206174232)" fill-rule="evenodd"><path d="M0 0 L4.42 3.93 L7.48 2.74 L7.82 0.01 L4.42 -4.24 L2.04 -5.09 L0 -4.41 L-1.34 -2.65 L0 0" stroke="none" stroke-width="0" fill="#ffffff" fill-rule="evenodd"></path><path d="M0 0 C0.22 0.29, 0.58 1.08, 1.32 1.74 C2.05 2.39, 3.39 3.76, 4.42 3.93 C5.45 4.09, 6.92 3.39, 7.48 2.74 C8.05 2.08, 8.34 1.18, 7.82 0.01 C7.31 -1.15, 5.39 -3.39, 4.42 -4.24 C3.46 -5.09, 2.78 -5.06, 2.04 -5.09 C1.3 -5.12, 0.56 -4.82, 0 -4.41 C-0.57 -4, -1.34 -3.38, -1.34 -2.65 C-1.34 -1.91, -0.22 -0.44, 0 0 M0 0 C0.22 0.29, 0.58 1.08, 1.32 1.74 C2.05 2.39, 3.39 3.76, 4.42 3.93 C5.45 4.09, 6.92 3.39, 7.48 2.74 C8.05 2.08, 8.34 1.18, 7.82 0.01 C7.31 -1.15, 5.39 -3.39, 4.42 -4.24 C3.46 -5.09, 2.78 -5.06, 2.04 -5.09 C1.3 -5.12, 0.56 -4.82, 0 -4.41 C-0.57 -4, -1.34 -3.38, -1.34 -2.65 C-1.34 -1.91, -0.22 -0.44, 0 0" stroke="#000000" stroke-width="1" fill="none"></path></g></g><g stroke-linecap="round"><g transform="translate(524.756006833358 254.97008121379952) rotate(354.2378726086236 2.72995072818009 -0.1369931522711454)" fill-rule="evenodd"><path d="M0 0 L4.32 4.79 L6.86 3.16 L1.4 -5.01 L-0.64 -4.28 L-1.4 -3.08 L0 0" stroke="none" stroke-width="0" fill="#ffffff" fill-rule="evenodd"></path><path d="M0 0 C0.29 0.38, 0.99 1.48, 1.71 2.27 C2.43 3.07, 3.46 4.64, 4.32 4.79 C5.17 4.93, 6.69 3.92, 6.86 3.16 C7.03 2.4, 5.93 1.22, 5.37 0.25 C4.81 -0.72, 4.16 -1.79, 3.5 -2.67 C2.84 -3.55, 2.09 -4.75, 1.4 -5.01 C0.71 -5.28, -0.17 -4.6, -0.64 -4.28 C-1.11 -3.95, -1.32 -3.49, -1.4 -3.08 C-1.47 -2.68, -1.34 -2.36, -1.11 -1.85 C-0.88 -1.33, -0.19 -0.31, 0 0 M0 0 C0.29 0.38, 0.99 1.48, 1.71 2.27 C2.43 3.07, 3.46 4.64, 4.32 4.79 C5.17 4.93, 6.69 3.92, 6.86 3.16 C7.03 2.4, 5.93 1.22, 5.37 0.25 C4.81 -0.72, 4.16 -1.79, 3.5 -2.67 C2.84 -3.55, 2.09 -4.75, 1.4 -5.01 C0.71 -5.28, -0.17 -4.6, -0.64 -4.28 C-1.11 -3.95, -1.32 -3.49, -1.4 -3.08 C-1.47 -2.68, -1.34 -2.36, -1.11 -1.85 C-0.88 -1.33, -0.19 -0.31, 0 0" stroke="#000000" stroke-width="1" fill="none"></path></g></g><g stroke-linecap="round"><g transform="translate(520.3791803713608 188.4010798541476) rotate(70.75302048686233 1.7781812624633986 -5.31182212884849)" fill-rule="evenodd"><path d="M0 0 L-3.57 -5.95 L-2.55 -9.07 L1.28 -10.58 L5.19 -7.53 L7.14 -4.71 L0 0" stroke="none" stroke-width="0" fill="#bcdec2" fill-rule="evenodd"></path><path d="M0 0 C-0.36 -0.46, -1.57 -1.77, -2.16 -2.76 C-2.76 -3.75, -3.51 -4.89, -3.57 -5.95 C-3.64 -7, -3.36 -8.3, -2.55 -9.07 C-1.74 -9.85, -0.01 -10.84, 1.28 -10.58 C2.57 -10.32, 4.25 -8.49, 5.19 -7.53 C6.12 -6.56, 6.7 -5.33, 6.9 -4.81 C7.09 -4.29, 7.51 -5.21, 6.36 -4.41 C5.21 -3.61, 1.06 -0.73, 0 0 M0 0 C-0.36 -0.46, -1.57 -1.77, -2.16 -2.76 C-2.76 -3.75, -3.51 -4.89, -3.57 -5.95 C-3.64 -7, -3.36 -8.3, -2.55 -9.07 C-1.74 -9.85, -0.01 -10.84, 1.28 -10.58 C2.57 -10.32, 4.25 -8.49, 5.19 -7.53 C6.12 -6.56, 6.7 -5.33, 6.9 -4.81 C7.09 -4.29, 7.51 -5.21, 6.36 -4.41 C5.21 -3.61, 1.06 -0.73, 0 0" stroke="#bcdec2" stroke-width="1" fill="none"></path></g></g><g stroke-linecap="round"><g transform="translate(522.3999020856986 185.19658220026133) rotate(57.2749558461637 -1.2079935889906848 -2.021434892064434)"><path d="M0 0 C-0.19 -0.32, -0.74 -1.25, -1.14 -1.92 C-1.54 -2.59, -2.2 -3.69, -2.42 -4.04 M0 0 C-0.19 -0.32, -0.74 -1.25, -1.14 -1.92 C-1.54 -2.59, -2.2 -3.69, -2.42 -4.04" stroke="#000000" stroke-width="1" fill="none"></path></g></g><g stroke-linecap="round"><g transform="translate(520.4091918837463 188.4004620856415) rotate(70.75302048686233 1.7611687840240773 -5.31182212884849)"><path d="M0 0 C-0.36 -0.46, -1.57 -1.77, -2.16 -2.76 C-2.76 -3.75, -3.51 -4.89, -3.57 -5.95 C-3.64 -7, -3.36 -8.3, -2.55 -9.07 C-1.74 -9.85, -0.01 -10.84, 1.28 -10.58 C2.57 -10.32, 4.22 -8.52, 5.19 -7.53 C6.16 -6.53, 6.78 -5.1, 7.1 -4.62 M0 0 C-0.36 -0.46, -1.57 -1.77, -2.16 -2.76 C-2.76 -3.75, -3.51 -4.89, -3.57 -5.95 C-3.64 -7, -3.36 -8.3, -2.55 -9.07 C-1.74 -9.85, -0.01 -10.84, 1.28 -10.58 C2.57 -10.32, 4.22 -8.52, 5.19 -7.53 C6.16 -6.53, 6.78 -5.1, 7.1 -4.62" stroke="#000000" stroke-width="1" fill="none"></path></g></g><g stroke-linecap="round"><g transform="translate(521.8261148595126 186.30607155078133) rotate(57.2749558461637 0.11711535527188177 -1.974765848616073)"><path d="M0 0 C-0.02 -0.4, -0.15 -1.73, -0.09 -2.39 C-0.03 -3.04, 0.27 -3.69, 0.34 -3.95 M0 0 C-0.02 -0.4, -0.15 -1.73, -0.09 -2.39 C-0.03 -3.04, 0.27 -3.69, 0.34 -3.95" stroke="#000000" stroke-width="1" fill="none"></path></g></g><g stroke-linecap="round"><g transform="translate(522.3223028837915 185.23148693622255) rotate(57.2749558461637 -1.2079935889906848 -2.021434892064434)"><path d="M0 0 C-0.19 -0.32, -0.74 -1.25, -1.14 -1.92 C-1.54 -2.59, -2.2 -3.69, -2.42 -4.04 M0 0 C-0.19 -0.32, -0.74 -1.25, -1.14 -1.92 C-1.54 -2.59, -2.2 -3.69, -2.42 -4.04" stroke="#000000" stroke-width="1" fill="none"></path></g></g><g stroke-linecap="round"><g transform="translate(521.7485156576056 186.34097628674317) rotate(57.2749558461637 0.11711535527188177 -1.974765848616073)"><path d="M0 0 C-0.02 -0.4, -0.15 -1.73, -0.09 -2.39 C-0.03 -3.04, 0.27 -3.69, 0.34 -3.95 M0 0 C-0.02 -0.4, -0.15 -1.73, -0.09 -2.39 C-0.03 -3.04, 0.27 -3.69, 0.34 -3.95" stroke="#000000" stroke-width="1" fill="none"></path></g></g><g stroke-linecap="round"><g transform="translate(528.1997422750887 272.3389147967049) rotate(0 -44.26313927025003 -25.05581210144578)" fill-rule="evenodd"><path d="M0 0 L-1.81 16.23 L-4.62 24.46 L-8.96 31.89 L-15.18 37.53 L-23.09 41.72 L-33.06 44.64 L-43.82 45.82 L-54.33 44.59 L-73.6 38.43 L-81.32 32.86 L-86.69 24.82 L-88.52 19 L-89.66 10.51 L-89.83 -18.43 L-88.94 -34.85 L-87.46 -48.56 L-85.2 -58.92 L-82.22 -67.46 L-75.44 -80.43 L-72.17 -84.94 L-68.83 -87.99 L-60.9 -92.04 L-49.86 -94.87 L-38.22 -95.92 L-28.04 -95.2 L-18.91 -93.22 L-10.94 -90.96 L-4.61 -86.95 L-0.4 -79.94 L1.53 -70.3 L-2.31 -42.97 L0 0" stroke="none" stroke-width="0" fill="#bcdec2" fill-rule="evenodd"></path><path d="M0 0 C-0.3 2.7, -0.32 10.91, -1.81 16.23 C-3.31 21.54, -5.42 27.64, -8.96 31.89 C-12.51 36.14, -17.28 39.4, -23.09 41.72 C-28.9 44.05, -36.95 45.82, -43.82 45.82 C-50.7 45.82, -58.11 43.89, -64.36 41.73 C-70.61 39.57, -77.1 38.06, -81.32 32.86 C-85.53 27.66, -88.63 24.08, -89.66 10.51 C-90.68 -3.06, -89.83 -33.4, -87.46 -48.56 C-85.09 -63.72, -79.87 -73.19, -75.44 -80.43 C-71.01 -87.68, -67.1 -89.46, -60.9 -92.04 C-54.69 -94.62, -45.22 -95.72, -38.22 -95.92 C-31.22 -96.11, -24.52 -94.72, -18.91 -93.22 C-13.31 -91.73, -8.02 -90.77, -4.61 -86.95 C-1.2 -83.13, 1.15 -77.63, 1.53 -70.3 C1.91 -62.97, -2.06 -54.69, -2.31 -42.97 C-2.57 -31.26, -0.39 -7.16, 0 0 M0 0 C-0.3 2.7, -0.32 10.91, -1.81 16.23 C-3.31 21.54, -5.42 27.64, -8.96 31.89 C-12.51 36.14, -17.28 39.4, -23.09 41.72 C-28.9 44.05, -36.95 45.82, -43.82 45.82 C-50.7 45.82, -58.11 43.89, -64.36 41.73 C-70.61 39.57, -77.1 38.06, -81.32 32.86 C-85.53 27.66, -88.63 24.08, -89.66 10.51 C-90.68 -3.06, -89.83 -33.4, -87.46 -48.56 C-85.09 -63.72, -79.87 -73.19, -75.44 -80.43 C-71.01 -87.68, -67.1 -89.46, -60.9 -92.04 C-54.69 -94.62, -45.22 -95.72, -38.22 -95.92 C-31.22 -96.11, -24.52 -94.72, -18.91 -93.22 C-13.31 -91.73, -8.02 -90.77, -4.61 -86.95 C-1.2 -83.13, 1.15 -77.63, 1.53 -70.3 C1.91 -62.97, -2.06 -54.69, -2.31 -42.97 C-2.57 -31.26, -0.39 -7.16, 0 0" stroke="#000000" stroke-width="1" fill="none"></path></g></g><g stroke-linecap="round"><g stroke-opacity="0.6" fill-opacity="0.6" transform="translate(483.4978459275519 317.1149919906694) rotate(0 17.53028916730349 -21.406604246806765)" fill-rule="evenodd"><path d="M0 0 L-7.32 -9.08 L-8.52 -13.02 L-6.85 -22.32 L-1.01 -31.41 L10.74 -38.62 L23.87 -42.71 L34.82 -40.92 L42.46 -36.18 L43.57 -33.45 L43.17 -30.23 L39.05 -19.1 L35.93 -14.57 L30.6 -9.29 L24.37 -4.77 L18.35 -2.61 L0 0" stroke="none" stroke-width="0" fill="#ffffff" fill-rule="evenodd"></path><path d="M0 0 C-1.42 -2.17, -8.35 -7.78, -8.52 -13.02 C-8.69 -18.25, -6.4 -26.46, -1.01 -31.41 C4.39 -36.36, 16.63 -41.92, 23.87 -42.71 C31.11 -43.51, 39.62 -39.31, 42.46 -36.18 C45.31 -33.05, 42.01 -27.53, 40.92 -23.93 C39.83 -20.33, 38.69 -17.77, 35.93 -14.57 C33.17 -11.38, 28.32 -6.96, 24.37 -4.77 C20.43 -2.59, 16.31 -2.27, 12.25 -1.48 C8.19 -0.68, 2.04 -0.25, 0 0 M0 0 C-1.42 -2.17, -8.35 -7.78, -8.52 -13.02 C-8.69 -18.25, -6.4 -26.46, -1.01 -31.41 C4.39 -36.36, 16.63 -41.92, 23.87 -42.71 C31.11 -43.51, 39.62 -39.31, 42.46 -36.18 C45.31 -33.05, 42.01 -27.53, 40.92 -23.93 C39.83 -20.33, 38.69 -17.77, 35.93 -14.57 C33.17 -11.38, 28.32 -6.96, 24.37 -4.77 C20.43 -2.59, 16.31 -2.27, 12.25 -1.48 C8.19 -0.68, 2.04 -0.25, 0 0" stroke="#000000" stroke-width="1" fill="none"></path></g></g><g stroke-linecap="round" transform="translate(503.3032033436806 194.02205777368232) rotate(0 15.945097079806311 16.102191632316732)"><path d="M31.89 16.1 C31.89 17.03, 31.81 17.98, 31.65 18.9 C31.49 19.82, 31.24 20.73, 30.93 21.61 C30.61 22.49, 30.22 23.35, 29.75 24.15 C29.29 24.96, 28.75 25.74, 28.16 26.45 C27.57 27.17, 26.9 27.84, 26.19 28.44 C25.49 29.04, 24.72 29.58, 23.92 30.05 C23.12 30.51, 22.27 30.91, 21.4 31.23 C20.53 31.55, 19.62 31.8, 18.71 31.96 C17.81 32.12, 16.87 32.2, 15.95 32.2 C15.02 32.2, 14.09 32.12, 13.18 31.96 C12.27 31.8, 11.36 31.55, 10.49 31.23 C9.62 30.91, 8.77 30.51, 7.97 30.05 C7.17 29.58, 6.4 29.04, 5.7 28.44 C4.99 27.84, 4.32 27.17, 3.73 26.45 C3.14 25.74, 2.6 24.96, 2.14 24.15 C1.67 23.35, 1.28 22.49, 0.96 21.61 C0.65 20.73, 0.4 19.82, 0.24 18.9 C0.08 17.98, 0 17.03, 0 16.1 C0 15.17, 0.08 14.22, 0.24 13.31 C0.4 12.39, 0.65 11.47, 0.96 10.59 C1.28 9.72, 1.67 8.86, 2.14 8.05 C2.6 7.24, 3.14 6.47, 3.73 5.75 C4.32 5.04, 4.99 4.37, 5.7 3.77 C6.4 3.17, 7.17 2.62, 7.97 2.16 C8.77 1.69, 9.62 1.29, 10.49 0.97 C11.36 0.65, 12.27 0.41, 13.18 0.24 C14.09 0.08, 15.02 0, 15.95 0 C16.87 0, 17.81 0.08, 18.71 0.24 C19.62 0.41, 20.53 0.65, 21.4 0.97 C22.27 1.29, 23.12 1.69, 23.92 2.16 C24.72 2.62, 25.49 3.17, 26.19 3.77 C26.9 4.37, 27.57 5.04, 28.16 5.75 C28.75 6.47, 29.29 7.24, 29.75 8.05 C30.22 8.86, 30.61 9.72, 30.93 10.59 C31.24 11.47, 31.49 12.39, 31.65 13.31 C31.81 14.22, 31.85 15.64, 31.89 16.1 C31.93 16.57, 31.93 15.64, 31.89 16.1" stroke="none" stroke-width="0" fill="#ffffff"></path><path d="M31.89 16.1 C31.89 17.03, 31.81 17.98, 31.65 18.9 C31.49 19.82, 31.24 20.73, 30.93 21.61 C30.61 22.49, 30.22 23.35, 29.75 24.15 C29.29 24.96, 28.75 25.74, 28.16 26.45 C27.57 27.17, 26.9 27.84, 26.19 28.44 C25.49 29.04, 24.72 29.58, 23.92 30.05 C23.12 30.51, 22.27 30.91, 21.4 31.23 C20.53 31.55, 19.62 31.8, 18.71 31.96 C17.81 32.12, 16.87 32.2, 15.95 32.2 C15.02 32.2, 14.09 32.12, 13.18 31.96 C12.27 31.8, 11.36 31.55, 10.49 31.23 C9.62 30.91, 8.77 30.51, 7.97 30.05 C7.17 29.58, 6.4 29.04, 5.7 28.44 C4.99 27.84, 4.32 27.17, 3.73 26.45 C3.14 25.74, 2.6 24.96, 2.14 24.15 C1.67 23.35, 1.28 22.49, 0.96 21.61 C0.65 20.73, 0.4 19.82, 0.24 18.9 C0.08 17.98, 0 17.03, 0 16.1 C0 15.17, 0.08 14.22, 0.24 13.31 C0.4 12.39, 0.65 11.47, 0.96 10.59 C1.28 9.72, 1.67 8.86, 2.14 8.05 C2.6 7.24, 3.14 6.47, 3.73 5.75 C4.32 5.04, 4.99 4.37, 5.7 3.77 C6.4 3.17, 7.17 2.62, 7.97 2.16 C8.77 1.69, 9.62 1.29, 10.49 0.97 C11.36 0.65, 12.27 0.41, 13.18 0.24 C14.09 0.08, 15.02 0, 15.95 0 C16.87 0, 17.81 0.08, 18.71 0.24 C19.62 0.41, 20.53 0.65, 21.4 0.97 C22.27 1.29, 23.12 1.69, 23.92 2.16 C24.72 2.62, 25.49 3.17, 26.19 3.77 C26.9 4.37, 27.57 5.04, 28.16 5.75 C28.75 6.47, 29.29 7.24, 29.75 8.05 C30.22 8.86, 30.61 9.72, 30.93 10.59 C31.24 11.47, 31.49 12.39, 31.65 13.31 C31.81 14.22, 31.85 15.64, 31.89 16.1 C31.93 16.57, 31.93 15.64, 31.89 16.1" stroke="#000000" stroke-width="1" fill="none"></path></g><g stroke-linecap="round" transform="translate(454.59496715376656 192.09492565895982) rotate(0 19.16060348829152 19.34937790689537)"><path d="M38.32 19.35 C38.32 20.47, 38.22 21.61, 38.03 22.71 C37.84 23.81, 37.55 24.91, 37.17 25.97 C36.79 27.02, 36.31 28.05, 35.75 29.02 C35.2 29.99, 34.55 30.93, 33.84 31.79 C33.13 32.64, 32.33 33.45, 31.48 34.17 C30.63 34.89, 29.7 35.55, 28.74 36.11 C27.78 36.67, 26.76 37.15, 25.71 37.53 C24.67 37.91, 23.58 38.21, 22.49 38.4 C21.4 38.6, 20.27 38.7, 19.16 38.7 C18.05 38.7, 16.93 38.6, 15.83 38.4 C14.74 38.21, 13.65 37.91, 12.61 37.53 C11.57 37.15, 10.54 36.67, 9.58 36.11 C8.62 35.55, 7.69 34.89, 6.84 34.17 C5.99 33.45, 5.2 32.64, 4.48 31.79 C3.77 30.93, 3.12 29.99, 2.57 29.02 C2.01 28.05, 1.53 27.02, 1.16 25.97 C0.78 24.91, 0.48 23.81, 0.29 22.71 C0.1 21.61, 0 20.47, 0 19.35 C0 18.23, 0.1 17.09, 0.29 15.99 C0.48 14.89, 0.78 13.78, 1.16 12.73 C1.53 11.68, 2.01 10.64, 2.57 9.67 C3.12 8.7, 3.77 7.77, 4.48 6.91 C5.2 6.05, 5.99 5.25, 6.84 4.53 C7.69 3.81, 8.62 3.15, 9.58 2.59 C10.54 2.03, 11.57 1.55, 12.61 1.17 C13.65 0.78, 14.74 0.49, 15.83 0.29 C16.93 0.1, 18.05 0, 19.16 0 C20.27 0, 21.4 0.1, 22.49 0.29 C23.58 0.49, 24.67 0.78, 25.71 1.17 C26.76 1.55, 27.78 2.03, 28.74 2.59 C29.7 3.15, 30.63 3.81, 31.48 4.53 C32.33 5.25, 33.13 6.05, 33.84 6.91 C34.55 7.77, 35.2 8.7, 35.75 9.67 C36.31 10.64, 36.79 11.68, 37.17 12.73 C37.55 13.78, 37.84 14.89, 38.03 15.99 C38.22 17.09, 38.27 18.79, 38.32 19.35 C38.37 19.91, 38.37 18.79, 38.32 19.35" stroke="none" stroke-width="0" fill="#ffffff"></path><path d="M38.32 19.35 C38.32 20.47, 38.22 21.61, 38.03 22.71 C37.84 23.81, 37.55 24.91, 37.17 25.97 C36.79 27.02, 36.31 28.05, 35.75 29.02 C35.2 29.99, 34.55 30.93, 33.84 31.79 C33.13 32.64, 32.33 33.45, 31.48 34.17 C30.63 34.89, 29.7 35.55, 28.74 36.11 C27.78 36.67, 26.76 37.15, 25.71 37.53 C24.67 37.91, 23.58 38.21, 22.49 38.4 C21.4 38.6, 20.27 38.7, 19.16 38.7 C18.05 38.7, 16.93 38.6, 15.83 38.4 C14.74 38.21, 13.65 37.91, 12.61 37.53 C11.57 37.15, 10.54 36.67, 9.58 36.11 C8.62 35.55, 7.69 34.89, 6.84 34.17 C5.99 33.45, 5.2 32.64, 4.48 31.79 C3.77 30.93, 3.12 29.99, 2.57 29.02 C2.01 28.05, 1.53 27.02, 1.16 25.97 C0.78 24.91, 0.48 23.81, 0.29 22.71 C0.1 21.61, 0 20.47, 0 19.35 C0 18.23, 0.1 17.09, 0.29 15.99 C0.48 14.89, 0.78 13.78, 1.16 12.73 C1.53 11.68, 2.01 10.64, 2.57 9.67 C3.12 8.7, 3.77 7.77, 4.48 6.91 C5.2 6.05, 5.99 5.25, 6.84 4.53 C7.69 3.81, 8.62 3.15, 9.58 2.59 C10.54 2.03, 11.57 1.55, 12.61 1.17 C13.65 0.78, 14.74 0.49, 15.83 0.29 C16.93 0.1, 18.05 0, 19.16 0 C20.27 0, 21.4 0.1, 22.49 0.29 C23.58 0.49, 24.67 0.78, 25.71 1.17 C26.76 1.55, 27.78 2.03, 28.74 2.59 C29.7 3.15, 30.63 3.81, 31.48 4.53 C32.33 5.25, 33.13 6.05, 33.84 6.91 C34.55 7.77, 35.2 8.7, 35.75 9.67 C36.31 10.64, 36.79 11.68, 37.17 12.73 C37.55 13.78, 37.84 14.89, 38.03 15.99 C38.22 17.09, 38.27 18.79, 38.32 19.35 C38.37 19.91, 38.37 18.79, 38.32 19.35" stroke="#000000" stroke-width="1" fill="none"></path></g><g stroke-linecap="round"><g stroke-opacity="0.1" fill-opacity="0.1" transform="translate(526.2130422511359 224.4791550257006) rotate(0 -11.280303068752954 -13.767860822478667)" fill-rule="evenodd"><path d="M0 0 L-5.93 0.02 L-13.33 -2.69 L-16.15 -5.76 L-18.91 -10.51 L-18.72 -17.01 L-16.05 -23.65 L-10.1 -28.44 L-5.01 -30.22 L-13.85 -28.79 L-19.03 -24.23 L-21.55 -20.3 L-22.9 -15.05 L-23.29 -9.5 L-22.27 -5.51 L-20.45 -2.73 L-17.18 0.05 L-12.32 2.08 L-6.29 2.57 L0.76 0.07" stroke="none" stroke-width="0" fill="#000000" fill-rule="evenodd"></path><path d="M0 0 C-0.49 0.06, -1.97 0.35, -2.95 0.35 C-3.94 0.35, -4.79 0.23, -5.93 0.02 C-7.06 -0.19, -8.51 -0.48, -9.74 -0.93 C-10.98 -1.38, -12.27 -1.89, -13.33 -2.69 C-14.4 -3.5, -15.22 -4.45, -16.15 -5.76 C-17.07 -7.06, -18.48 -8.63, -18.91 -10.51 C-19.34 -12.38, -19.2 -14.82, -18.72 -17.01 C-18.24 -19.2, -17.49 -21.74, -16.05 -23.65 C-14.62 -25.56, -11.94 -27.35, -10.1 -28.44 C-8.26 -29.54, -4.39 -30.17, -5.01 -30.22 C-5.64 -30.28, -11.51 -29.79, -13.85 -28.79 C-16.19 -27.79, -17.75 -25.65, -19.03 -24.23 C-20.32 -22.82, -20.9 -21.83, -21.55 -20.3 C-22.19 -18.77, -22.61 -16.85, -22.9 -15.05 C-23.19 -13.25, -23.4 -11.09, -23.29 -9.5 C-23.18 -7.91, -22.74 -6.64, -22.27 -5.51 C-21.79 -4.38, -21.3 -3.65, -20.45 -2.73 C-19.6 -1.8, -18.54 -0.75, -17.18 0.05 C-15.83 0.85, -14.13 1.66, -12.32 2.08 C-10.5 2.5, -8.47 2.9, -6.29 2.57 C-4.11 2.23, -0.42 0.49, 0.76 0.07 M0 0 C-0.49 0.06, -1.97 0.35, -2.95 0.35 C-3.94 0.35, -4.79 0.23, -5.93 0.02 C-7.06 -0.19, -8.51 -0.48, -9.74 -0.93 C-10.98 -1.38, -12.27 -1.89, -13.33 -2.69 C-14.4 -3.5, -15.22 -4.45, -16.15 -5.76 C-17.07 -7.06, -18.48 -8.63, -18.91 -10.51 C-19.34 -12.38, -19.2 -14.82, -18.72 -17.01 C-18.24 -19.2, -17.49 -21.74, -16.05 -23.65 C-14.62 -25.56, -11.94 -27.35, -10.1 -28.44 C-8.26 -29.54, -4.39 -30.17, -5.01 -30.22 C-5.64 -30.28, -11.51 -29.79, -13.85 -28.79 C-16.19 -27.79, -17.75 -25.65, -19.03 -24.23 C-20.32 -22.82, -20.9 -21.83, -21.55 -20.3 C-22.19 -18.77, -22.61 -16.85, -22.9 -15.05 C-23.19 -13.25, -23.4 -11.09, -23.29 -9.5 C-23.18 -7.91, -22.74 -6.64, -22.27 -5.51 C-21.79 -4.38, -21.3 -3.65, -20.45 -2.73 C-19.6 -1.8, -18.54 -0.75, -17.18 0.05 C-15.83 0.85, -14.13 1.66, -12.32 2.08 C-10.5 2.5, -8.47 2.9, -6.29 2.57 C-4.11 2.23, -0.42 0.49, 0.76 0.07" stroke="#000000" stroke-width="1" fill="none"></path></g></g><g stroke-linecap="round"><g stroke-opacity="0.1" fill-opacity="0.1" transform="translate(475.8368879551178 230.27340176300623) rotate(0 -9.610363280671898 -18.810384164561498)" fill-rule="evenodd"><path d="M0 0 L-8.07 -4.72 L-14.27 -12.21 L-15.62 -22.09 L-12.41 -30.07 L-5.27 -35.84 L0.85 -37.97 L-9.77 -36.25 L-16 -30.78 L-19.02 -26.06 L-20.15 -19.83 L-19.21 -12.65 L-16.37 -6.42 L-12.03 -2.84 L-4.86 0.18 L0 0" stroke="none" stroke-width="0" fill="#000000" fill-rule="evenodd"></path><path d="M0 0 C-1.34 -0.79, -5.69 -2.69, -8.07 -4.72 C-10.45 -6.76, -13.02 -9.32, -14.27 -12.21 C-15.53 -15.11, -15.93 -19.12, -15.62 -22.09 C-15.31 -25.07, -14.14 -27.78, -12.41 -30.07 C-10.69 -32.37, -7.48 -34.52, -5.27 -35.84 C-3.06 -37.15, 1.6 -37.91, 0.85 -37.97 C0.1 -38.04, -6.96 -37.45, -9.77 -36.25 C-12.58 -35.05, -14.46 -32.47, -16 -30.78 C-17.54 -29.08, -18.33 -27.88, -19.02 -26.06 C-19.71 -24.23, -20.12 -22.06, -20.15 -19.83 C-20.18 -17.59, -19.84 -14.89, -19.21 -12.65 C-18.58 -10.42, -17.57 -8.06, -16.37 -6.42 C-15.18 -4.79, -13.95 -3.94, -12.03 -2.84 C-10.11 -1.74, -6.86 -0.29, -4.86 0.18 C-2.85 0.66, -0.81 0.03, 0 0 M0 0 C-1.34 -0.79, -5.69 -2.69, -8.07 -4.72 C-10.45 -6.76, -13.02 -9.32, -14.27 -12.21 C-15.53 -15.11, -15.93 -19.12, -15.62 -22.09 C-15.31 -25.07, -14.14 -27.78, -12.41 -30.07 C-10.69 -32.37, -7.48 -34.52, -5.27 -35.84 C-3.06 -37.15, 1.6 -37.91, 0.85 -37.97 C0.1 -38.04, -6.96 -37.45, -9.77 -36.25 C-12.58 -35.05, -14.46 -32.47, -16 -30.78 C-17.54 -29.08, -18.33 -27.88, -19.02 -26.06 C-19.71 -24.23, -20.12 -22.06, -20.15 -19.83 C-20.18 -17.59, -19.84 -14.89, -19.21 -12.65 C-18.58 -10.42, -17.57 -8.06, -16.37 -6.42 C-15.18 -4.79, -13.95 -3.94, -12.03 -2.84 C-10.11 -1.74, -6.86 -0.29, -4.86 0.18 C-2.85 0.66, -0.81 0.03, 0 0" stroke="#000000" stroke-width="1" fill="none"></path></g></g><g stroke-linecap="round" transform="translate(454.74308574137564 191.94680707135092) rotate(0 19.16060348829152 19.34937790689537)"><path d="M38.32 19.35 C38.32 20.47, 38.22 21.61, 38.03 22.71 C37.84 23.81, 37.55 24.91, 37.17 25.97 C36.79 27.02, 36.31 28.05, 35.75 29.02 C35.2 29.99, 34.55 30.93, 33.84 31.79 C33.13 32.64, 32.33 33.45, 31.48 34.17 C30.63 34.89, 29.7 35.55, 28.74 36.11 C27.78 36.67, 26.76 37.15, 25.71 37.53 C24.67 37.91, 23.58 38.21, 22.49 38.4 C21.4 38.6, 20.27 38.7, 19.16 38.7 C18.05 38.7, 16.93 38.6, 15.83 38.4 C14.74 38.21, 13.65 37.91, 12.61 37.53 C11.57 37.15, 10.54 36.67, 9.58 36.11 C8.62 35.55, 7.69 34.89, 6.84 34.17 C5.99 33.45, 5.2 32.64, 4.48 31.79 C3.77 30.93, 3.12 29.99, 2.57 29.02 C2.01 28.05, 1.53 27.02, 1.16 25.97 C0.78 24.91, 0.48 23.81, 0.29 22.71 C0.1 21.61, 0 20.47, 0 19.35 C0 18.23, 0.1 17.09, 0.29 15.99 C0.48 14.89, 0.78 13.78, 1.16 12.73 C1.53 11.68, 2.01 10.64, 2.57 9.67 C3.12 8.7, 3.77 7.77, 4.48 6.91 C5.2 6.05, 5.99 5.25, 6.84 4.53 C7.69 3.81, 8.62 3.15, 9.58 2.59 C10.54 2.03, 11.57 1.55, 12.61 1.17 C13.65 0.78, 14.74 0.49, 15.83 0.29 C16.93 0.1, 18.05 0, 19.16 0 C20.27 0, 21.4 0.1, 22.49 0.29 C23.58 0.49, 24.67 0.78, 25.71 1.17 C26.76 1.55, 27.78 2.03, 28.74 2.59 C29.7 3.15, 30.63 3.81, 31.48 4.53 C32.33 5.25, 33.13 6.05, 33.84 6.91 C34.55 7.77, 35.2 8.7, 35.75 9.67 C36.31 10.64, 36.79 11.68, 37.17 12.73 C37.55 13.78, 37.84 14.89, 38.03 15.99 C38.22 17.09, 38.27 18.79, 38.32 19.35 C38.37 19.91, 38.37 18.79, 38.32 19.35" stroke="#000000" stroke-width="1" fill="none"></path></g><g stroke-linecap="round" transform="translate(503.49362008507705 193.82059213276813) rotate(0 15.945097079806311 16.102191632316732)"><path d="M31.89 16.1 C31.89 17.03, 31.81 17.98, 31.65 18.9 C31.49 19.82, 31.24 20.73, 30.93 21.61 C30.61 22.49, 30.22 23.35, 29.75 24.15 C29.29 24.96, 28.75 25.74, 28.16 26.45 C27.57 27.17, 26.9 27.84, 26.19 28.44 C25.49 29.04, 24.72 29.58, 23.92 30.05 C23.12 30.51, 22.27 30.91, 21.4 31.23 C20.53 31.55, 19.62 31.8, 18.71 31.96 C17.81 32.12, 16.87 32.2, 15.95 32.2 C15.02 32.2, 14.09 32.12, 13.18 31.96 C12.27 31.8, 11.36 31.55, 10.49 31.23 C9.62 30.91, 8.77 30.51, 7.97 30.05 C7.17 29.58, 6.4 29.04, 5.7 28.44 C4.99 27.84, 4.32 27.17, 3.73 26.45 C3.14 25.74, 2.6 24.96, 2.14 24.15 C1.67 23.35, 1.28 22.49, 0.96 21.61 C0.65 20.73, 0.4 19.82, 0.24 18.9 C0.08 17.98, 0 17.03, 0 16.1 C0 15.17, 0.08 14.22, 0.24 13.31 C0.4 12.39, 0.65 11.47, 0.96 10.59 C1.28 9.72, 1.67 8.86, 2.14 8.05 C2.6 7.24, 3.14 6.47, 3.73 5.75 C4.32 5.04, 4.99 4.37, 5.7 3.77 C6.4 3.17, 7.17 2.62, 7.97 2.16 C8.77 1.69, 9.62 1.29, 10.49 0.97 C11.36 0.65, 12.27 0.41, 13.18 0.24 C14.09 0.08, 15.02 0, 15.95 0 C16.87 0, 17.81 0.08, 18.71 0.24 C19.62 0.41, 20.53 0.65, 21.4 0.97 C22.27 1.29, 23.12 1.69, 23.92 2.16 C24.72 2.62, 25.49 3.17, 26.19 3.77 C26.9 4.37, 27.57 5.04, 28.16 5.75 C28.75 6.47, 29.29 7.24, 29.75 8.05 C30.22 8.86, 30.61 9.72, 30.93 10.59 C31.24 11.47, 31.49 12.39, 31.65 13.31 C31.81 14.22, 31.85 15.64, 31.89 16.1 C31.93 16.57, 31.93 15.64, 31.89 16.1" stroke="#000000" stroke-width="1" fill="none"></path></g><g stroke-linecap="round" transform="translate(475.47693692089746 213.831774739151) rotate(0 3.869875581379077 3.6811011627752066)"><path d="M7.74 3.68 C7.74 3.89, 7.72 4.11, 7.68 4.32 C7.64 4.53, 7.58 4.74, 7.51 4.94 C7.43 5.14, 7.33 5.34, 7.22 5.52 C7.11 5.71, 6.98 5.88, 6.83 6.05 C6.69 6.21, 6.53 6.36, 6.36 6.5 C6.19 6.64, 6 6.76, 5.8 6.87 C5.61 6.98, 5.4 7.07, 5.19 7.14 C4.98 7.21, 4.76 7.27, 4.54 7.31 C4.32 7.34, 4.09 7.36, 3.87 7.36 C3.65 7.36, 3.42 7.34, 3.2 7.31 C2.98 7.27, 2.76 7.21, 2.55 7.14 C2.34 7.07, 2.13 6.98, 1.93 6.87 C1.74 6.76, 1.55 6.64, 1.38 6.5 C1.21 6.36, 1.05 6.21, 0.91 6.05 C0.76 5.88, 0.63 5.71, 0.52 5.52 C0.41 5.34, 0.31 5.14, 0.23 4.94 C0.16 4.74, 0.1 4.53, 0.06 4.32 C0.02 4.11, 0 3.89, 0 3.68 C0 3.47, 0.02 3.25, 0.06 3.04 C0.1 2.83, 0.16 2.62, 0.23 2.42 C0.31 2.22, 0.41 2.03, 0.52 1.84 C0.63 1.66, 0.76 1.48, 0.91 1.31 C1.05 1.15, 1.21 1, 1.38 0.86 C1.55 0.72, 1.74 0.6, 1.93 0.49 C2.13 0.39, 2.34 0.29, 2.55 0.22 C2.76 0.15, 2.98 0.09, 3.2 0.06 C3.42 0.02, 3.65 0, 3.87 0 C4.09 0, 4.32 0.02, 4.54 0.06 C4.76 0.09, 4.98 0.15, 5.19 0.22 C5.4 0.29, 5.61 0.39, 5.8 0.49 C6 0.6, 6.19 0.72, 6.36 0.86 C6.53 1, 6.69 1.15, 6.83 1.31 C6.98 1.48, 7.11 1.66, 7.22 1.84 C7.33 2.03, 7.43 2.22, 7.51 2.42 C7.58 2.62, 7.64 2.83, 7.68 3.04 C7.72 3.25, 7.73 3.57, 7.74 3.68 C7.75 3.79, 7.75 3.57, 7.74 3.68" stroke="none" stroke-width="0" fill="#000000"></path><path d="M7.74 3.68 C7.74 3.89, 7.72 4.11, 7.68 4.32 C7.64 4.53, 7.58 4.74, 7.51 4.94 C7.43 5.14, 7.33 5.34, 7.22 5.52 C7.11 5.71, 6.98 5.88, 6.83 6.05 C6.69 6.21, 6.53 6.36, 6.36 6.5 C6.19 6.64, 6 6.76, 5.8 6.87 C5.61 6.98, 5.4 7.07, 5.19 7.14 C4.98 7.21, 4.76 7.27, 4.54 7.31 C4.32 7.34, 4.09 7.36, 3.87 7.36 C3.65 7.36, 3.42 7.34, 3.2 7.31 C2.98 7.27, 2.76 7.21, 2.55 7.14 C2.34 7.07, 2.13 6.98, 1.93 6.87 C1.74 6.76, 1.55 6.64, 1.38 6.5 C1.21 6.36, 1.05 6.21, 0.91 6.05 C0.76 5.88, 0.63 5.71, 0.52 5.52 C0.41 5.34, 0.31 5.14, 0.23 4.94 C0.16 4.74, 0.1 4.53, 0.06 4.32 C0.02 4.11, 0 3.89, 0 3.68 C0 3.47, 0.02 3.25, 0.06 3.04 C0.1 2.83, 0.16 2.62, 0.23 2.42 C0.31 2.22, 0.41 2.03, 0.52 1.84 C0.63 1.66, 0.76 1.48, 0.91 1.31 C1.05 1.15, 1.21 1, 1.38 0.86 C1.55 0.72, 1.74 0.6, 1.93 0.49 C2.13 0.39, 2.34 0.29, 2.55 0.22 C2.76 0.15, 2.98 0.09, 3.2 0.06 C3.42 0.02, 3.65 0, 3.87 0 C4.09 0, 4.32 0.02, 4.54 0.06 C4.76 0.09, 4.98 0.15, 5.19 0.22 C5.4 0.29, 5.61 0.39, 5.8 0.49 C6 0.6, 6.19 0.72, 6.36 0.86 C6.53 1, 6.69 1.15, 6.83 1.31 C6.98 1.48, 7.11 1.66, 7.22 1.84 C7.33 2.03, 7.43 2.22, 7.51 2.42 C7.58 2.62, 7.64 2.83, 7.68 3.04 C7.72 3.25, 7.73 3.57, 7.74 3.68 C7.75 3.79, 7.75 3.57, 7.74 3.68" stroke="#000000" stroke-width="1" fill="none"></path></g><g stroke-linecap="round" transform="translate(477.36468110693573 215.53074450658573) rotate(0 0.7550976744154312 0.9438720930192801)"><path d="M1.51 0.94 C1.51 1, 1.51 1.05, 1.5 1.11 C1.49 1.16, 1.48 1.22, 1.46 1.27 C1.45 1.32, 1.43 1.37, 1.41 1.42 C1.39 1.46, 1.36 1.51, 1.33 1.55 C1.31 1.59, 1.27 1.63, 1.24 1.67 C1.21 1.7, 1.17 1.73, 1.13 1.76 C1.09 1.79, 1.05 1.81, 1.01 1.83 C0.97 1.85, 0.93 1.86, 0.89 1.87 C0.84 1.88, 0.8 1.89, 0.76 1.89 C0.71 1.89, 0.67 1.88, 0.62 1.87 C0.58 1.86, 0.54 1.85, 0.5 1.83 C0.46 1.81, 0.42 1.79, 0.38 1.76 C0.34 1.73, 0.3 1.7, 0.27 1.67 C0.24 1.63, 0.2 1.59, 0.18 1.55 C0.15 1.51, 0.12 1.46, 0.1 1.42 C0.08 1.37, 0.06 1.32, 0.05 1.27 C0.03 1.22, 0.02 1.16, 0.01 1.11 C0 1.05, 0 1, 0 0.94 C0 0.89, 0 0.83, 0.01 0.78 C0.02 0.73, 0.03 0.67, 0.05 0.62 C0.06 0.57, 0.08 0.52, 0.1 0.47 C0.12 0.42, 0.15 0.38, 0.18 0.34 C0.2 0.3, 0.24 0.26, 0.27 0.22 C0.3 0.19, 0.34 0.15, 0.38 0.13 C0.42 0.1, 0.46 0.08, 0.5 0.06 C0.54 0.04, 0.58 0.02, 0.62 0.01 C0.67 0, 0.71 0, 0.76 0 C0.8 0, 0.84 0, 0.89 0.01 C0.93 0.02, 0.97 0.04, 1.01 0.06 C1.05 0.08, 1.09 0.1, 1.13 0.13 C1.17 0.15, 1.21 0.19, 1.24 0.22 C1.27 0.26, 1.31 0.3, 1.33 0.34 C1.36 0.38, 1.39 0.42, 1.41 0.47 C1.43 0.52, 1.45 0.57, 1.46 0.62 C1.48 0.67, 1.49 0.73, 1.5 0.78 C1.51 0.83, 1.51 0.92, 1.51 0.94 C1.51 0.97, 1.51 0.92, 1.51 0.94" stroke="none" stroke-width="0" fill="#ffffff"></path><path d="M1.51 0.94 C1.51 1, 1.51 1.05, 1.5 1.11 C1.49 1.16, 1.48 1.22, 1.46 1.27 C1.45 1.32, 1.43 1.37, 1.41 1.42 C1.39 1.46, 1.36 1.51, 1.33 1.55 C1.31 1.59, 1.27 1.63, 1.24 1.67 C1.21 1.7, 1.17 1.73, 1.13 1.76 C1.09 1.79, 1.05 1.81, 1.01 1.83 C0.97 1.85, 0.93 1.86, 0.89 1.87 C0.84 1.88, 0.8 1.89, 0.76 1.89 C0.71 1.89, 0.67 1.88, 0.62 1.87 C0.58 1.86, 0.54 1.85, 0.5 1.83 C0.46 1.81, 0.42 1.79, 0.38 1.76 C0.34 1.73, 0.3 1.7, 0.27 1.67 C0.24 1.63, 0.2 1.59, 0.18 1.55 C0.15 1.51, 0.12 1.46, 0.1 1.42 C0.08 1.37, 0.06 1.32, 0.05 1.27 C0.03 1.22, 0.02 1.16, 0.01 1.11 C0 1.05, 0 1, 0 0.94 C0 0.89, 0 0.83, 0.01 0.78 C0.02 0.73, 0.03 0.67, 0.05 0.62 C0.06 0.57, 0.08 0.52, 0.1 0.47 C0.12 0.42, 0.15 0.38, 0.18 0.34 C0.2 0.3, 0.24 0.26, 0.27 0.22 C0.3 0.19, 0.34 0.15, 0.38 0.13 C0.42 0.1, 0.46 0.08, 0.5 0.06 C0.54 0.04, 0.58 0.02, 0.62 0.01 C0.67 0, 0.71 0, 0.76 0 C0.8 0, 0.84 0, 0.89 0.01 C0.93 0.02, 0.97 0.04, 1.01 0.06 C1.05 0.08, 1.09 0.1, 1.13 0.13 C1.17 0.15, 1.21 0.19, 1.24 0.22 C1.27 0.26, 1.31 0.3, 1.33 0.34 C1.36 0.38, 1.39 0.42, 1.41 0.47 C1.43 0.52, 1.45 0.57, 1.46 0.62 C1.48 0.67, 1.49 0.73, 1.5 0.78 C1.51 0.83, 1.51 0.92, 1.51 0.94 C1.51 0.97, 1.51 0.92, 1.51 0.94" stroke="#ffffff" stroke-width="1" fill="none"></path></g><g stroke-linecap="round" transform="translate(521.1502680100639 212.2057727865332) rotate(0 3.2204383264633436 3.063343773952937)"><path d="M6.44 3.06 C6.44 3.24, 6.42 3.42, 6.39 3.6 C6.36 3.77, 6.31 3.94, 6.25 4.11 C6.18 4.28, 6.1 4.44, 6.01 4.6 C5.92 4.75, 5.81 4.9, 5.69 5.03 C5.57 5.17, 5.43 5.3, 5.29 5.41 C5.15 5.52, 4.99 5.63, 4.83 5.72 C4.67 5.8, 4.5 5.88, 4.32 5.94 C4.15 6, 3.96 6.05, 3.78 6.08 C3.6 6.11, 3.41 6.13, 3.22 6.13 C3.03 6.13, 2.84 6.11, 2.66 6.08 C2.48 6.05, 2.29 6, 2.12 5.94 C1.94 5.88, 1.77 5.8, 1.61 5.72 C1.45 5.63, 1.29 5.52, 1.15 5.41 C1.01 5.3, 0.87 5.17, 0.75 5.03 C0.63 4.9, 0.52 4.75, 0.43 4.6 C0.34 4.44, 0.26 4.28, 0.19 4.11 C0.13 3.94, 0.08 3.77, 0.05 3.6 C0.02 3.42, 0 3.24, 0 3.06 C0 2.89, 0.02 2.71, 0.05 2.53 C0.08 2.36, 0.13 2.18, 0.19 2.02 C0.26 1.85, 0.34 1.69, 0.43 1.53 C0.52 1.38, 0.63 1.23, 0.75 1.09 C0.87 0.96, 1.01 0.83, 1.15 0.72 C1.29 0.6, 1.45 0.5, 1.61 0.41 C1.77 0.32, 1.94 0.25, 2.12 0.18 C2.29 0.12, 2.48 0.08, 2.66 0.05 C2.84 0.02, 3.03 0, 3.22 0 C3.41 0, 3.6 0.02, 3.78 0.05 C3.96 0.08, 4.15 0.12, 4.32 0.18 C4.5 0.25, 4.67 0.32, 4.83 0.41 C4.99 0.5, 5.15 0.6, 5.29 0.72 C5.43 0.83, 5.57 0.96, 5.69 1.09 C5.81 1.23, 5.92 1.38, 6.01 1.53 C6.1 1.69, 6.18 1.85, 6.25 2.02 C6.31 2.18, 6.36 2.36, 6.39 2.53 C6.42 2.71, 6.43 2.97, 6.44 3.06 C6.45 3.15, 6.45 2.97, 6.44 3.06" stroke="none" stroke-width="0" fill="#000000"></path><path d="M6.44 3.06 C6.44 3.24, 6.42 3.42, 6.39 3.6 C6.36 3.77, 6.31 3.94, 6.25 4.11 C6.18 4.28, 6.1 4.44, 6.01 4.6 C5.92 4.75, 5.81 4.9, 5.69 5.03 C5.57 5.17, 5.43 5.3, 5.29 5.41 C5.15 5.52, 4.99 5.63, 4.83 5.72 C4.67 5.8, 4.5 5.88, 4.32 5.94 C4.15 6, 3.96 6.05, 3.78 6.08 C3.6 6.11, 3.41 6.13, 3.22 6.13 C3.03 6.13, 2.84 6.11, 2.66 6.08 C2.48 6.05, 2.29 6, 2.12 5.94 C1.94 5.88, 1.77 5.8, 1.61 5.72 C1.45 5.63, 1.29 5.52, 1.15 5.41 C1.01 5.3, 0.87 5.17, 0.75 5.03 C0.63 4.9, 0.52 4.75, 0.43 4.6 C0.34 4.44, 0.26 4.28, 0.19 4.11 C0.13 3.94, 0.08 3.77, 0.05 3.6 C0.02 3.42, 0 3.24, 0 3.06 C0 2.89, 0.02 2.71, 0.05 2.53 C0.08 2.36, 0.13 2.18, 0.19 2.02 C0.26 1.85, 0.34 1.69, 0.43 1.53 C0.52 1.38, 0.63 1.23, 0.75 1.09 C0.87 0.96, 1.01 0.83, 1.15 0.72 C1.29 0.6, 1.45 0.5, 1.61 0.41 C1.77 0.32, 1.94 0.25, 2.12 0.18 C2.29 0.12, 2.48 0.08, 2.66 0.05 C2.84 0.02, 3.03 0, 3.22 0 C3.41 0, 3.6 0.02, 3.78 0.05 C3.96 0.08, 4.15 0.12, 4.32 0.18 C4.5 0.25, 4.67 0.32, 4.83 0.41 C4.99 0.5, 5.15 0.6, 5.29 0.72 C5.43 0.83, 5.57 0.96, 5.69 1.09 C5.81 1.23, 5.92 1.38, 6.01 1.53 C6.1 1.69, 6.18 1.85, 6.25 2.02 C6.31 2.18, 6.36 2.36, 6.39 2.53 C6.42 2.71, 6.43 2.97, 6.44 3.06 C6.45 3.15, 6.45 2.97, 6.44 3.06" stroke="#000000" stroke-width="1" fill="none"></path></g><g stroke-linecap="round" transform="translate(522.721213535168 212.67705644406448) rotate(0 0.6283782100416277 0.7854727625520468)"><path d="M1.26 0.79 C1.26 0.83, 1.25 0.88, 1.25 0.92 C1.24 0.97, 1.23 1.01, 1.22 1.05 C1.21 1.1, 1.19 1.14, 1.17 1.18 C1.15 1.22, 1.13 1.26, 1.11 1.29 C1.09 1.33, 1.06 1.36, 1.03 1.39 C1 1.42, 0.97 1.44, 0.94 1.47 C0.91 1.49, 0.88 1.51, 0.84 1.52 C0.81 1.54, 0.77 1.55, 0.74 1.56 C0.7 1.57, 0.66 1.57, 0.63 1.57 C0.59 1.57, 0.56 1.57, 0.52 1.56 C0.48 1.55, 0.45 1.54, 0.41 1.52 C0.38 1.51, 0.35 1.49, 0.31 1.47 C0.28 1.44, 0.25 1.42, 0.22 1.39 C0.2 1.36, 0.17 1.33, 0.15 1.29 C0.12 1.26, 0.1 1.22, 0.08 1.18 C0.07 1.14, 0.05 1.1, 0.04 1.05 C0.03 1.01, 0.02 0.97, 0.01 0.92 C0 0.88, 0 0.83, 0 0.79 C0 0.74, 0 0.69, 0.01 0.65 C0.02 0.6, 0.03 0.56, 0.04 0.52 C0.05 0.47, 0.07 0.43, 0.08 0.39 C0.1 0.35, 0.12 0.32, 0.15 0.28 C0.17 0.25, 0.2 0.21, 0.22 0.18 C0.25 0.15, 0.28 0.13, 0.31 0.11 C0.35 0.08, 0.38 0.06, 0.41 0.05 C0.45 0.03, 0.48 0.02, 0.52 0.01 C0.56 0, 0.59 0, 0.63 0 C0.66 0, 0.7 0, 0.74 0.01 C0.77 0.02, 0.81 0.03, 0.84 0.05 C0.88 0.06, 0.91 0.08, 0.94 0.11 C0.97 0.13, 1 0.15, 1.03 0.18 C1.06 0.21, 1.09 0.25, 1.11 0.28 C1.13 0.32, 1.15 0.35, 1.17 0.39 C1.19 0.43, 1.21 0.47, 1.22 0.52 C1.23 0.56, 1.24 0.6, 1.25 0.65 C1.25 0.69, 1.26 0.76, 1.26 0.79 C1.26 0.81, 1.26 0.76, 1.26 0.79" stroke="none" stroke-width="0" fill="#ffffff"></path><path d="M1.26 0.79 C1.26 0.83, 1.25 0.88, 1.25 0.92 C1.24 0.97, 1.23 1.01, 1.22 1.05 C1.21 1.1, 1.19 1.14, 1.17 1.18 C1.15 1.22, 1.13 1.26, 1.11 1.29 C1.09 1.33, 1.06 1.36, 1.03 1.39 C1 1.42, 0.97 1.44, 0.94 1.47 C0.91 1.49, 0.88 1.51, 0.84 1.52 C0.81 1.54, 0.77 1.55, 0.74 1.56 C0.7 1.57, 0.66 1.57, 0.63 1.57 C0.59 1.57, 0.56 1.57, 0.52 1.56 C0.48 1.55, 0.45 1.54, 0.41 1.52 C0.38 1.51, 0.35 1.49, 0.31 1.47 C0.28 1.44, 0.25 1.42, 0.22 1.39 C0.2 1.36, 0.17 1.33, 0.15 1.29 C0.12 1.26, 0.1 1.22, 0.08 1.18 C0.07 1.14, 0.05 1.1, 0.04 1.05 C0.03 1.01, 0.02 0.97, 0.01 0.92 C0 0.88, 0 0.83, 0 0.79 C0 0.74, 0 0.69, 0.01 0.65 C0.02 0.6, 0.03 0.56, 0.04 0.52 C0.05 0.47, 0.07 0.43, 0.08 0.39 C0.1 0.35, 0.12 0.32, 0.15 0.28 C0.17 0.25, 0.2 0.21, 0.22 0.18 C0.25 0.15, 0.28 0.13, 0.31 0.11 C0.35 0.08, 0.38 0.06, 0.41 0.05 C0.45 0.03, 0.48 0.02, 0.52 0.01 C0.56 0, 0.59 0, 0.63 0 C0.66 0, 0.7 0, 0.74 0.01 C0.77 0.02, 0.81 0.03, 0.84 0.05 C0.88 0.06, 0.91 0.08, 0.94 0.11 C0.97 0.13, 1 0.15, 1.03 0.18 C1.06 0.21, 1.09 0.25, 1.11 0.28 C1.13 0.32, 1.15 0.35, 1.17 0.39 C1.19 0.43, 1.21 0.47, 1.22 0.52 C1.23 0.56, 1.24 0.6, 1.25 0.65 C1.25 0.69, 1.26 0.76, 1.26 0.79 C1.26 0.81, 1.26 0.76, 1.26 0.79" stroke="#ffffff" stroke-width="1" fill="none"></path></g><g stroke-linecap="round"><g transform="translate(492.29219316573955 236.63925557524016) rotate(354.3524280434069 7.4041945735694465 -1.9986505536463426)" fill-rule="evenodd"><path d="M0 0 L0.26 -2.43 L2.76 -5.29 L7.12 -6 L10.79 -5.6 L14.08 -3.44 L14.82 -1.35 L13.81 0.99 L7.55 0.99 L3.42 2.01 L0.97 1.44 L0.04 0.18" stroke="none" stroke-width="0" fill="#ccbdac" fill-rule="evenodd"></path><path d="M0 0 C0.04 -0.41, -0.19 -1.55, 0.26 -2.43 C0.72 -3.32, 1.61 -4.69, 2.76 -5.29 C3.9 -5.88, 5.79 -5.95, 7.12 -6 C8.46 -6.05, 9.63 -6.03, 10.79 -5.6 C11.95 -5.17, 13.41 -4.15, 14.08 -3.44 C14.76 -2.73, 14.87 -2.09, 14.82 -1.35 C14.78 -0.61, 15.03 0.6, 13.81 0.99 C12.6 1.38, 9.28 0.82, 7.55 0.99 C5.82 1.16, 4.51 1.94, 3.42 2.01 C2.32 2.09, 1.53 1.75, 0.97 1.44 C0.41 1.14, 0.2 0.39, 0.04 0.18 M0 0 C0.04 -0.41, -0.19 -1.55, 0.26 -2.43 C0.72 -3.32, 1.61 -4.69, 2.76 -5.29 C3.9 -5.88, 5.79 -5.95, 7.12 -6 C8.46 -6.05, 9.63 -6.03, 10.79 -5.6 C11.95 -5.17, 13.41 -4.15, 14.08 -3.44 C14.76 -2.73, 14.87 -2.09, 14.82 -1.35 C14.78 -0.61, 15.03 0.6, 13.81 0.99 C12.6 1.38, 9.28 0.82, 7.55 0.99 C5.82 1.16, 4.51 1.94, 3.42 2.01 C2.32 2.09, 1.53 1.75, 0.97 1.44 C0.41 1.14, 0.2 0.39, 0.04 0.18" stroke="#000000" stroke-width="1" fill="none"></path></g></g><g stroke-linecap="round"><g transform="translate(498.3731706713122 238.23459206911303) rotate(354.3524280434069 -1.8614967833790228 -2.9491164977389417)" fill-rule="evenodd"><path d="M0 0 L-3.18 -0.92 L-3.61 -2.62 L-1.97 -3.84 L1.82 -4.33 L-0.57 -6.52 L-3.09 -6.13 L-5.29 -3.8 L-5.34 -0.75 L-3.36 0.73 L0 0" stroke="none" stroke-width="0" fill="#958b7f" fill-rule="evenodd"></path><path d="M0 0 C-0.1 -0.02, -0.09 0.03, -0.62 -0.12 C-1.15 -0.27, -2.68 -0.5, -3.18 -0.92 C-3.68 -1.34, -3.81 -2.14, -3.61 -2.62 C-3.41 -3.11, -2.87 -3.56, -1.97 -3.84 C-1.06 -4.13, 1.59 -3.88, 1.82 -4.33 C2.05 -4.78, 0.25 -6.22, -0.57 -6.52 C-1.38 -6.82, -2.42 -6.4, -3.09 -6.13 C-3.76 -5.85, -4.21 -5.27, -4.58 -4.88 C-4.94 -4.49, -5.13 -4.22, -5.29 -3.8 C-5.46 -3.39, -5.56 -2.89, -5.56 -2.38 C-5.57 -1.87, -5.53 -1.19, -5.34 -0.75 C-5.15 -0.3, -4.78 0.05, -4.45 0.29 C-4.12 0.54, -3.87 0.71, -3.36 0.73 C-2.85 0.74, -1.94 0.49, -1.38 0.37 C-0.82 0.25, -0.23 0.06, 0 0 M0 0 C-0.1 -0.02, -0.09 0.03, -0.62 -0.12 C-1.15 -0.27, -2.68 -0.5, -3.18 -0.92 C-3.68 -1.34, -3.81 -2.14, -3.61 -2.62 C-3.41 -3.11, -2.87 -3.56, -1.97 -3.84 C-1.06 -4.13, 1.59 -3.88, 1.82 -4.33 C2.05 -4.78, 0.25 -6.22, -0.57 -6.52 C-1.38 -6.82, -2.42 -6.4, -3.09 -6.13 C-3.76 -5.85, -4.21 -5.27, -4.58 -4.88 C-4.94 -4.49, -5.13 -4.22, -5.29 -3.8 C-5.46 -3.39, -5.56 -2.89, -5.56 -2.38 C-5.57 -1.87, -5.53 -1.19, -5.34 -0.75 C-5.15 -0.3, -4.78 0.05, -4.45 0.29 C-4.12 0.54, -3.87 0.71, -3.36 0.73 C-2.85 0.74, -1.94 0.49, -1.38 0.37 C-0.82 0.25, -0.23 0.06, 0 0" stroke="#958b7f" stroke-width="1" fill="none"></path></g></g><g stroke-linecap="round"><g transform="translate(492.222659210901 236.63758815831773) rotate(354.3524280434069 7.467896877564465 -2.0160225701339414)"><path d="M0 0 C0.05 -0.41, -0.14 -1.57, 0.33 -2.45 C0.8 -3.34, 1.68 -4.71, 2.82 -5.31 C3.96 -5.9, 5.85 -5.97, 7.18 -6.02 C8.52 -6.07, 9.73 -6, 10.85 -5.62 C11.97 -5.24, 13.24 -4.42, 13.9 -3.76 C14.55 -3.1, 14.73 -2.42, 14.77 -1.66 C14.82 -0.9, 15.36 0.36, 14.17 0.8 C12.97 1.23, 9.39 0.77, 7.61 0.97 C5.83 1.17, 4.57 1.92, 3.48 1.99 C2.38 2.07, 1.61 1.75, 1.03 1.42 C0.45 1.09, 0.17 0.24, 0 0 M0 0 C0.05 -0.41, -0.14 -1.57, 0.33 -2.45 C0.8 -3.34, 1.68 -4.71, 2.82 -5.31 C3.96 -5.9, 5.85 -5.97, 7.18 -6.02 C8.52 -6.07, 9.73 -6, 10.85 -5.62 C11.97 -5.24, 13.24 -4.42, 13.9 -3.76 C14.55 -3.1, 14.73 -2.42, 14.77 -1.66 C14.82 -0.9, 15.36 0.36, 14.17 0.8 C12.97 1.23, 9.39 0.77, 7.61 0.97 C5.83 1.17, 4.57 1.92, 3.48 1.99 C2.38 2.07, 1.61 1.75, 1.03 1.42 C0.45 1.09, 0.17 0.24, 0 0" stroke="#000000" stroke-width="1" fill="none"></path></g></g><g stroke-linecap="round"><g transform="translate(494.0804462631614 229.92647182192042) rotate(354.3524280434069 5.136819544026476 0.24672063511903275)" fill-rule="evenodd"><path d="M0 0 L0.12 -1.47 L1.91 -2.62 L7.78 -2.81 L10.19 -1.52 L9.6 1.21 L5.99 3.51 L2.16 2.58 L0 0" stroke="none" stroke-width="0" fill="#595755" fill-rule="evenodd"></path><path d="M0 0 C0.02 -0.25, -0.2 -1.04, 0.12 -1.47 C0.44 -1.91, 1.08 -2.36, 1.91 -2.62 C2.75 -2.88, 4.13 -3.01, 5.1 -3.04 C6.08 -3.08, 6.94 -3.06, 7.78 -2.81 C8.63 -2.55, 9.89 -2.19, 10.19 -1.52 C10.49 -0.85, 10.3 0.37, 9.6 1.21 C8.9 2.05, 7.23 3.28, 5.99 3.51 C4.75 3.74, 3.06 2.98, 2.16 2.58 C1.25 2.19, 0.92 1.55, 0.56 1.12 C0.2 0.69, 0.09 0.19, 0 0 M0 0 C0.02 -0.25, -0.2 -1.04, 0.12 -1.47 C0.44 -1.91, 1.08 -2.36, 1.91 -2.62 C2.75 -2.88, 4.13 -3.01, 5.1 -3.04 C6.08 -3.08, 6.94 -3.06, 7.78 -2.81 C8.63 -2.55, 9.89 -2.19, 10.19 -1.52 C10.49 -0.85, 10.3 0.37, 9.6 1.21 C8.9 2.05, 7.23 3.28, 5.99 3.51 C4.75 3.74, 3.06 2.98, 2.16 2.58 C1.25 2.19, 0.92 1.55, 0.56 1.12 C0.2 0.69, 0.09 0.19, 0 0" stroke="#000000" stroke-width="1" fill="none"></path></g></g><g stroke-linecap="round"><g transform="translate(500.4505561769521 233.34565114954114) rotate(354.3524280434069 -3.1307690045750434 -3.0143702143808184)" fill-rule="evenodd"><path d="M0 0 L-3.02 -1.16 L-4.21 -2.57 L-4.16 -4.08 L-1.25 -6.19 L-5.25 -5.36 L-6.24 -2.86 L-5.5 -1.77 L-1.14 0.19" stroke="none" stroke-width="0" fill="#454342" fill-rule="evenodd"></path><path d="M0 0 C-0.22 -0.04, -0.83 -0.03, -1.33 -0.22 C-1.84 -0.41, -2.54 -0.77, -3.02 -1.16 C-3.5 -1.55, -4.02 -2.08, -4.21 -2.57 C-4.4 -3.05, -4.38 -3.62, -4.16 -4.08 C-3.94 -4.54, -3.35 -4.98, -2.86 -5.33 C-2.38 -5.68, -1.12 -6.1, -1.25 -6.19 C-1.37 -6.29, -2.97 -6.05, -3.64 -5.91 C-4.31 -5.77, -4.87 -5.63, -5.25 -5.36 C-5.64 -5.09, -5.81 -4.7, -5.97 -4.28 C-6.14 -3.87, -6.32 -3.28, -6.24 -2.86 C-6.16 -2.44, -5.78 -2.08, -5.5 -1.77 C-5.23 -1.46, -4.92 -1.24, -4.61 -1.02 C-4.31 -0.8, -4.08 -0.62, -3.7 -0.47 C-3.32 -0.32, -2.75 -0.22, -2.32 -0.11 C-1.89 0, -1.34 0.14, -1.14 0.19 M0 0 C-0.22 -0.04, -0.83 -0.03, -1.33 -0.22 C-1.84 -0.41, -2.54 -0.77, -3.02 -1.16 C-3.5 -1.55, -4.02 -2.08, -4.21 -2.57 C-4.4 -3.05, -4.38 -3.62, -4.16 -4.08 C-3.94 -4.54, -3.35 -4.98, -2.86 -5.33 C-2.38 -5.68, -1.12 -6.1, -1.25 -6.19 C-1.37 -6.29, -2.97 -6.05, -3.64 -5.91 C-4.31 -5.77, -4.87 -5.63, -5.25 -5.36 C-5.64 -5.09, -5.81 -4.7, -5.97 -4.28 C-6.14 -3.87, -6.32 -3.28, -6.24 -2.86 C-6.16 -2.44, -5.78 -2.08, -5.5 -1.77 C-5.23 -1.46, -4.92 -1.24, -4.61 -1.02 C-4.31 -0.8, -4.08 -0.62, -3.7 -0.47 C-3.32 -0.32, -2.75 -0.22, -2.32 -0.11 C-1.89 0, -1.34 0.14, -1.14 0.19" stroke="#454342" stroke-width="1" fill="none"></path></g></g><g stroke-linecap="round"><g transform="translate(494.05900493886446 229.9161140479622) rotate(354.3524280434069 5.15992098756794 0.19615326255731702)"><path d="M0 0 C0.02 -0.25, -0.2 -1.04, 0.12 -1.47 C0.44 -1.91, 1.08 -2.36, 1.91 -2.62 C2.75 -2.88, 4.13 -3.01, 5.1 -3.04 C6.08 -3.08, 6.94 -3.06, 7.78 -2.81 C8.63 -2.55, 9.86 -2.16, 10.19 -1.52 C10.52 -0.89, 10.43 0.2, 9.75 1.02 C9.08 1.84, 7.41 3.13, 6.14 3.39 C4.87 3.65, 3.09 2.96, 2.16 2.58 C1.23 2.21, 0.92 1.55, 0.56 1.12 C0.2 0.69, 0.09 0.19, 0 0 M0 0 C0.02 -0.25, -0.2 -1.04, 0.12 -1.47 C0.44 -1.91, 1.08 -2.36, 1.91 -2.62 C2.75 -2.88, 4.13 -3.01, 5.1 -3.04 C6.08 -3.08, 6.94 -3.06, 7.78 -2.81 C8.63 -2.55, 9.86 -2.16, 10.19 -1.52 C10.52 -0.89, 10.43 0.2, 9.75 1.02 C9.08 1.84, 7.41 3.13, 6.14 3.39 C4.87 3.65, 3.09 2.96, 2.16 2.58 C1.23 2.21, 0.92 1.55, 0.56 1.12 C0.2 0.69, 0.09 0.19, 0 0" stroke="#000000" stroke-width="1" fill="none"></path></g></g><g stroke-linecap="round"><g transform="translate(501.9845528277597 227.98291645022402) rotate(354.3524280434069 0.4624413570337378 0.8496211469158936)" fill-rule="evenodd"><path d="" stroke="none" stroke-width="0" fill="#454342" fill-rule="evenodd"></path><path d="M0 0 C0.15 0.13, 0.81 0.47, 0.91 0.76 C1.01 1.04, 0.64 1.54, 0.59 1.7 M0 0 C0.15 0.13, 0.81 0.47, 0.91 0.76 C1.01 1.04, 0.64 1.54, 0.59 1.7" stroke="#000000" stroke-width="1" fill="none"></path></g></g><g stroke-linecap="round"><g transform="translate(497.49544726662685 238.6653558849148) rotate(354.3524280434069 0.031729745395079334 1.396108797383505)"><path d="M0 0 C0.01 0.47, 0.05 2.33, 0.06 2.79 M0 0 C0.01 0.47, 0.05 2.33, 0.06 2.79" stroke="#000000" stroke-width="1" fill="none"></path></g></g><g stroke-linecap="round"><g transform="translate(497.4817016490898 240.73934849153954) rotate(354.3524280434069 3.364463517941914 -0.6306990859954169)" fill-rule="evenodd"><path d="M0 0 L0.54 1.72 L4.89 1.88 L6.64 1.05 L6.77 -2.87 L3.08 -3.29 L-0.03 -2.34 L0 0" stroke="none" stroke-width="0" fill="#ffffff" fill-rule="evenodd"></path><path d="M0 0 C0.09 0.29, 0.1 1.38, 0.54 1.72 C0.98 2.07, 1.92 2.04, 2.65 2.07 C3.37 2.1, 4.22 2.05, 4.89 1.88 C5.55 1.71, 6.3 1.51, 6.64 1.05 C6.99 0.58, 6.95 -0.26, 6.97 -0.91 C6.99 -1.57, 7.01 -2.49, 6.77 -2.87 C6.54 -3.24, 6.19 -3.1, 5.57 -3.17 C4.96 -3.24, 4.01 -3.43, 3.08 -3.29 C2.15 -3.15, 0.48 -2.89, -0.03 -2.34 C-0.54 -1.79, 0 -0.39, 0 0 M0 0 C0.09 0.29, 0.1 1.38, 0.54 1.72 C0.98 2.07, 1.92 2.04, 2.65 2.07 C3.37 2.1, 4.22 2.05, 4.89 1.88 C5.55 1.71, 6.3 1.51, 6.64 1.05 C6.99 0.58, 6.95 -0.26, 6.97 -0.91 C6.99 -1.57, 7.01 -2.49, 6.77 -2.87 C6.54 -3.24, 6.19 -3.1, 5.57 -3.17 C4.96 -3.24, 4.01 -3.43, 3.08 -3.29 C2.15 -3.15, 0.48 -2.89, -0.03 -2.34 C-0.54 -1.79, 0 -0.39, 0 0" stroke="#000000" stroke-width="1" fill="none"></path></g></g><g stroke-linecap="round"><g transform="translate(501.13496701882093 237.90740024889948) rotate(354.3524280434069 0.07634602477370578 2.379730904630975)" fill-rule="evenodd"><path d="" stroke="none" stroke-width="0" fill="#ffffff" fill-rule="evenodd"></path><path d="M0 0 C0.02 0.35, 0.13 1.32, 0.15 2.11 C0.17 2.91, 0.13 4.32, 0.13 4.76 M0 0 C0.02 0.35, 0.13 1.32, 0.15 2.11 C0.17 2.91, 0.13 4.32, 0.13 4.76" stroke="#000000" stroke-width="1" fill="none"></path></g></g><g stroke-linecap="round"><g transform="translate(457.30142406897363 193.32645488813426) rotate(352.10971498794663 -5.30905057719216 -0.4598711061084657)" fill-rule="evenodd"><path d="M0 0 L-7.64 4.69 L-10.61 -1.14 L-9.59 -4.27 L-5.76 -5.78 L-1.85 -2.72 L0 0" stroke="none" stroke-width="0" fill="#bcdec2" fill-rule="evenodd"></path><path d="M0 0 C-1.05 0.7, -5.05 3.42, -6.33 4.2 C-7.6 4.98, -7.16 5.05, -7.64 4.69 C-8.12 4.33, -8.7 3.01, -9.2 2.04 C-9.69 1.07, -10.54 -0.09, -10.61 -1.14 C-10.67 -2.2, -10.4 -3.5, -9.59 -4.27 C-8.78 -5.04, -7.05 -6.04, -5.76 -5.78 C-4.47 -5.52, -2.81 -3.69, -1.85 -2.72 C-0.89 -1.76, -0.31 -0.45, 0 0 M0 0 C-1.05 0.7, -5.05 3.42, -6.33 4.2 C-7.6 4.98, -7.16 5.05, -7.64 4.69 C-8.12 4.33, -8.7 3.01, -9.2 2.04 C-9.69 1.07, -10.54 -0.09, -10.61 -1.14 C-10.67 -2.2, -10.4 -3.5, -9.59 -4.27 C-8.78 -5.04, -7.05 -6.04, -5.76 -5.78 C-4.47 -5.52, -2.81 -3.69, -1.85 -2.72 C-0.89 -1.76, -0.31 -0.45, 0 0" stroke="#bcdec2" stroke-width="1" fill="none"></path></g></g><g stroke-linecap="round"><g transform="translate(453.38452415242773 195.85453960245735) rotate(338.63165034724796 -1.4502286286256307 -1.2890921143338971)"><path d="M0 0 C-0.12 -0.28, -0.21 -1.24, -0.7 -1.67 C-1.18 -2.09, -2.53 -2.43, -2.9 -2.58 M0 0 C-0.12 -0.28, -0.21 -1.24, -0.7 -1.67 C-1.18 -2.09, -2.53 -2.43, -2.9 -2.58" stroke="#000000" stroke-width="1" fill="none"></path></g></g><g stroke-linecap="round"><g transform="translate(452.9430411076655 195.37817217181896) rotate(338.63165034724796 -0.13621542975101164 -2.336404047273021)"><path d="M0 0 C-0.04 -0.33, -0.24 -1.21, -0.27 -1.99 C-0.3 -2.77, -0.18 -4.23, -0.16 -4.67 M0 0 C-0.04 -0.33, -0.24 -1.21, -0.27 -1.99 C-0.3 -2.77, -0.18 -4.23, -0.16 -4.67" stroke="#000000" stroke-width="1" fill="none"></path></g></g><g stroke-linecap="round"><g transform="translate(449.7776499701695 198.27415201758168) rotate(352.10971498794663 2.270389703454569 -5.425138627326618)"><path d="M0 0 C-0.29 -0.47, -1.23 -1.8, -1.74 -2.83 C-2.26 -3.86, -3.05 -5.1, -3.1 -6.17 C-3.16 -7.25, -2.89 -8.53, -2.09 -9.3 C-1.28 -10.07, 0.46 -11.07, 1.75 -10.81 C3.04 -10.55, 4.67 -8.72, 5.65 -7.75 C6.64 -6.79, 7.32 -5.47, 7.65 -5.01 M0 0 C-0.29 -0.47, -1.23 -1.8, -1.74 -2.83 C-2.26 -3.86, -3.05 -5.1, -3.1 -6.17 C-3.16 -7.25, -2.89 -8.53, -2.09 -9.3 C-1.28 -10.07, 0.46 -11.07, 1.75 -10.81 C3.04 -10.55, 4.67 -8.72, 5.65 -7.75 C6.64 -6.79, 7.32 -5.47, 7.65 -5.01" stroke="#000000" stroke-width="1" fill="none"></path></g></g><g stroke-linecap="round"><g transform="translate(455.8310690661323 260.7150715124753) rotate(4.746031570543487 2.7299507281800928 -0.1369931522711454)" fill-rule="evenodd"><path d="M0 0 L4.32 4.79 L6.86 3.16 L1.4 -5.01 L-0.64 -4.28 L-1.4 -3.08 L0 0" stroke="none" stroke-width="0" fill="#ffffff" fill-rule="evenodd"></path><path d="M0 0 C0.29 0.38, 0.99 1.48, 1.71 2.27 C2.43 3.07, 3.46 4.64, 4.32 4.79 C5.17 4.93, 6.69 3.92, 6.86 3.16 C7.03 2.4, 5.93 1.22, 5.37 0.25 C4.81 -0.72, 4.16 -1.79, 3.5 -2.67 C2.84 -3.55, 2.09 -4.75, 1.4 -5.01 C0.71 -5.28, -0.17 -4.6, -0.64 -4.28 C-1.11 -3.95, -1.32 -3.49, -1.4 -3.08 C-1.47 -2.68, -1.34 -2.36, -1.11 -1.85 C-0.88 -1.33, -0.19 -0.31, 0 0 M0 0 C0.29 0.38, 0.99 1.48, 1.71 2.27 C2.43 3.07, 3.46 4.64, 4.32 4.79 C5.17 4.93, 6.69 3.92, 6.86 3.16 C7.03 2.4, 5.93 1.22, 5.37 0.25 C4.81 -0.72, 4.16 -1.79, 3.5 -2.67 C2.84 -3.55, 2.09 -4.75, 1.4 -5.01 C0.71 -5.28, -0.17 -4.6, -0.64 -4.28 C-1.11 -3.95, -1.32 -3.49, -1.4 -3.08 C-1.47 -2.68, -1.34 -2.36, -1.11 -1.85 C-0.88 -1.33, -0.19 -0.31, 0 0" stroke="#000000" stroke-width="1" fill="none"></path></g></g><g stroke-linecap="round"><g transform="translate(456.09207599953504 315.77140547060316) rotate(41.461030233629415 3.353591034712508 -0.7954714393140989)" fill-rule="evenodd"><path d="M0 0 L4.42 3.93 L7.05 2.62 L7.49 -0.28 L4.42 -4.24 L2.09 -5.53 L0 -4.41 L-0.98 -2.33 L0 0" stroke="none" stroke-width="0" fill="#ffffff" fill-rule="evenodd"></path><path d="M0 0 C0.3 0.35, 1.08 1.43, 1.82 2.09 C2.55 2.74, 3.55 3.84, 4.42 3.93 C5.29 4.02, 6.54 3.32, 7.05 2.62 C7.56 1.91, 7.93 0.86, 7.49 -0.28 C7.05 -1.43, 5.32 -3.37, 4.42 -4.24 C3.52 -5.11, 2.82 -5.5, 2.09 -5.53 C1.35 -5.55, 0.51 -4.94, 0 -4.41 C-0.51 -3.88, -0.98 -3.07, -0.98 -2.33 C-0.98 -1.6, -0.16 -0.39, 0 0 M0 0 C0.3 0.35, 1.08 1.43, 1.82 2.09 C2.55 2.74, 3.55 3.84, 4.42 3.93 C5.29 4.02, 6.54 3.32, 7.05 2.62 C7.56 1.91, 7.93 0.86, 7.49 -0.28 C7.05 -1.43, 5.32 -3.37, 4.42 -4.24 C3.52 -5.11, 2.82 -5.5, 2.09 -5.53 C1.35 -5.55, 0.51 -4.94, 0 -4.41 C-0.51 -3.88, -0.98 -3.07, -0.98 -2.33 C-0.98 -1.6, -0.16 -0.39, 0 0" stroke="#000000" stroke-width="1" fill="none"></path></g></g><g stroke-opacity="0.3" fill-opacity="0.3" transform="translate(598.0283072934324 18.57868655435385) rotate(0 109.97610317153044 224.66546790755504)"><text x="0" y="310.3309358151101" font-family="Helvetica, Segoe UI Emoji" font-size="374.82995751196705px" fill="#007d9c" text-anchor="start" style="white-space: pre;" direction="ltr">tt</text></g><g transform="translate(73.91305695819767 10) rotate(0 262.37156042350836 225.4510115016374)"><text x="0" y="311.9020230032748" font-family="Helvetica, Segoe UI Emoji" font-size="375.27473966116406px" fill="#007d9c" text-anchor="start" style="white-space: pre;" direction="ltr">mq</text></g></svg>